<svg width="256" height="256" viewBox="0 0 256 256" fill="none" xmlns="http://www.w3.org/2000/svg">
<path fill-rule="evenodd" clip-rule="evenodd" d="M148.11 107.889C207.696 167.475 247.057 224.722 236.025 235.754C235.98 235.799 235.934 235.844 235.887 235.887L218.388 218.388L218.529 218.259C227.772 209.016 194.794 161.052 144.871 111.129C94.948 61.2054 46.9843 28.2275 37.7412 37.4706C37.6961 37.5157 37.6519 37.5618 37.6087 37.6089L20.1164 20.1161L20.2456 19.975C31.2776 8.94297 88.5246 48.3036 148.11 107.889ZM143.791 111.937C191.294 159.441 222.673 205.081 213.877 213.876L207.285 207.285L207.427 207.156C215.552 199.031 186.638 156.945 142.847 113.153C99.0552 69.3616 56.9687 40.4482 48.8438 48.5731C48.7986 48.6183 48.7546 48.6645 48.7117 48.7118L41.8516 41.8509C50.6474 33.0551 96.287 64.4339 143.791 111.937Z" fill="#B87D43"/>
<circle cx="127.983" cy="121.851" r="79.9406" fill="#FCCB6B"/>
<mask id="mask0_0_689" style="mask-type:luminance" maskUnits="userSpaceOnUse" x="48" y="41" width="160" height="161">
<circle cx="127.983" cy="121.851" r="79.9406" fill="white"/>
</mask>
<g mask="url(#mask0_0_689)">
<path fill-rule="evenodd" clip-rule="evenodd" d="M207.297 198.899C205.496 197.098 202.575 197.098 200.774 198.899C198.973 200.7 198.973 203.62 200.774 205.421L243.169 247.816C244.97 249.617 247.89 249.617 249.691 247.816C251.493 246.015 251.493 243.095 249.691 241.294L207.297 198.899ZM147.509 139.111C145.708 137.31 142.788 137.31 140.987 139.111C139.186 140.912 139.186 143.832 140.987 145.633L162.184 166.831L162.181 166.833C163.848 168.643 163.804 171.462 162.048 173.217C160.293 174.973 157.474 175.017 155.664 173.35L155.662 173.353L112.18 129.871C110.379 128.07 107.459 128.07 105.658 129.871C103.856 131.672 103.856 134.592 105.658 136.393L175.5 206.236C177.301 208.037 180.222 208.037 182.023 206.236C183.824 204.435 183.824 201.515 182.023 199.714L168.706 186.398C166.905 184.596 166.905 181.676 168.706 179.875C170.507 178.074 173.428 178.074 175.229 179.875L183.382 188.028C185.183 189.829 188.103 189.829 189.904 188.028C191.705 186.227 191.705 183.307 189.904 181.506L147.509 139.111ZM177.131 220.911C175.33 219.11 172.41 219.11 170.609 220.911C168.808 222.712 168.808 225.633 170.609 227.434L190.447 247.272C192.248 249.073 195.169 249.073 196.97 247.272C198.771 245.471 198.771 242.551 196.97 240.75L177.131 220.911ZM99.1352 142.916C97.3341 141.115 94.414 141.115 92.6129 142.916C90.8118 144.717 90.8118 147.637 92.6129 149.438L112.452 169.277C114.253 171.078 117.173 171.078 118.974 169.277C120.775 167.475 120.775 164.555 118.974 162.754L99.1352 142.916ZM24.1289 74.4315C25.9299 72.6305 28.8501 72.6305 30.6512 74.4315L75.7637 119.544C77.5648 121.345 77.5648 124.265 75.7637 126.066C73.9626 127.867 71.0425 127.867 69.2414 126.066L24.1289 80.9538C22.3278 79.1528 22.3278 76.2326 24.1289 74.4315ZM98.5917 103.238C96.7906 101.437 93.8705 101.437 92.0694 103.238C90.2683 105.039 90.2683 107.96 92.0694 109.761L94.5153 112.206C96.3164 114.008 96.3164 116.928 94.5153 118.729C92.7142 120.53 89.7941 120.53 87.993 118.729L18.1501 48.8859C16.349 47.0848 16.349 44.1647 18.1501 42.3636C19.9512 40.5625 22.8713 40.5625 24.6724 42.3636L79.0248 96.7161L79.0275 96.7132C80.8368 98.3801 83.6556 98.3358 85.4112 96.5802C87.1668 94.8246 87.2112 92.0057 85.5442 90.1964L85.5471 90.1938L79.0248 83.6715C77.2237 81.8704 77.2237 78.9503 79.0248 77.1492C80.8259 75.3481 83.746 75.3481 85.5471 77.1492L127.942 119.544C129.743 121.345 129.743 124.265 127.942 126.066C126.141 127.867 123.221 127.867 121.42 126.066L98.5917 103.238ZM20.8677 18.992C22.6688 17.191 25.5889 17.191 27.39 18.9921L69.7849 61.387C71.586 63.188 71.586 66.1082 69.7849 67.9093C67.9838 69.7103 65.0637 69.7103 63.2626 67.9092L20.8677 25.5143C19.0666 23.7133 19.0666 20.7931 20.8677 18.992Z" fill="#ECB55A"/>
</g>
<mask id="mask1_0_689" style="mask-type:luminance" maskUnits="userSpaceOnUse" x="48" y="41" width="160" height="161">
<circle cx="127.983" cy="121.851" r="79.9406" fill="white"/>
</mask>
<g mask="url(#mask1_0_689)">
<rect opacity="0.0775757" x="127.983" y="41.9106" width="80.3591" height="159.881" fill="black"/>
</g>
<path fill-rule="evenodd" clip-rule="evenodd" d="M107.89 148.111C167.475 207.696 224.722 247.057 235.754 236.025C235.8 235.98 235.844 235.934 235.887 235.887L218.388 218.388L218.259 218.529C209.016 227.772 161.052 194.795 111.129 144.871C61.2056 94.9481 28.2278 46.9844 37.4708 37.7413C37.516 37.6962 37.5621 37.652 37.6091 37.6089L20.1164 20.1165L19.9752 20.2457C8.94321 31.2777 48.3038 88.5248 107.89 148.111ZM111.938 143.791C159.441 191.294 205.081 222.673 213.877 213.877L207.285 207.285L207.156 207.427C199.031 215.552 156.945 186.638 113.153 142.847C69.3619 99.0554 40.4485 56.9688 48.5734 48.8439C48.6185 48.7987 48.6648 48.7547 48.712 48.7118L41.8512 41.8517C33.0554 50.6475 64.4342 96.2871 111.938 143.791Z" fill="#B87D43"/>
</svg>
