<svg width="423" height="423" viewBox="0 0 423 423" fill="none" xmlns="http://www.w3.org/2000/svg">
<path fill-rule="evenodd" clip-rule="evenodd" d="M34.1077 34.1063C34.1792 34.0295 34.252 33.9541 34.3261 33.8799C52.5117 15.6943 146.88 80.5779 245.103 178.801C343.327 277.025 408.21 371.393 390.025 389.579C389.95 389.653 389.875 389.726 389.798 389.797L360.957 360.956C361.034 360.885 361.11 360.812 361.184 360.738C376.421 345.502 322.059 266.436 239.764 184.141C157.468 101.846 78.4033 47.4838 63.1668 62.7203C63.0925 62.7946 63.02 62.8703 62.949 62.9476L34.1077 34.1063ZM69.9424 69.941C84.4419 55.4419 159.676 107.168 237.982 185.474C316.289 263.781 368.015 339.015 353.516 353.514L342.654 342.653C342.732 342.583 342.808 342.51 342.882 342.436C356.276 329.043 308.614 259.666 236.426 187.478C164.239 115.291 94.8618 67.6288 81.4684 81.0222C81.3942 81.0964 81.3219 81.1723 81.2514 81.25L69.9424 69.941Z" fill="#B87D43"/>
<ellipse cx="211.953" cy="201.816" rx="131.777" ry="131.777" fill="#FCCB6B"/>
<mask id="mask0_54_8" style="mask-type:luminance" maskUnits="userSpaceOnUse" x="80" y="70" width="264" height="264">
<ellipse cx="211.953" cy="201.816" rx="131.777" ry="131.777" fill="white"/>
</mask>
<g mask="url(#mask0_54_8)">
<path fill-rule="evenodd" clip-rule="evenodd" d="M163.503 171.133C160.534 168.165 155.721 168.165 152.752 171.133C149.783 174.102 149.783 178.916 152.752 181.885L156.784 185.917C159.753 188.886 159.753 193.7 156.784 196.669C153.815 199.638 149.001 199.637 146.032 196.669L30.9005 81.5368C27.9315 78.5679 27.9315 73.7542 30.9005 70.7852C33.8695 67.8163 38.6831 67.8163 41.6521 70.7852L131.249 160.382L131.253 160.377C134.236 163.125 138.882 163.052 141.776 160.158C144.67 157.264 144.743 152.617 141.996 149.635L142 149.63L131.249 138.879C128.28 135.91 128.28 131.096 131.249 128.127C134.218 125.158 139.031 125.158 142 128.127L211.886 198.012C214.855 200.981 214.855 205.795 211.886 208.764C208.917 211.733 204.103 211.733 201.134 208.764L163.503 171.133ZM244.14 230.267C241.171 227.298 236.358 227.298 233.389 230.267C230.42 233.236 230.42 238.05 233.389 241.019L268.331 275.962L268.326 275.966C271.074 278.948 271.001 283.595 268.107 286.489C265.213 289.383 260.567 289.456 257.584 286.708L257.58 286.713L185.902 215.036C182.933 212.067 178.12 212.067 175.151 215.036C172.182 218.005 172.182 222.818 175.151 225.787L290.282 340.919C293.251 343.888 298.065 343.888 301.034 340.919C304.003 337.95 304.003 333.136 301.034 330.168L279.083 308.216C276.114 305.247 276.114 300.434 279.083 297.465C282.052 294.496 286.865 294.496 289.834 297.465L303.274 310.904C306.243 313.873 311.057 313.873 314.026 310.904C316.994 307.935 316.994 303.122 314.026 300.153L244.14 230.267ZM292.97 365.11C290.001 362.141 285.188 362.141 282.219 365.11C279.25 368.079 279.25 372.893 282.219 375.862L314.922 408.565C317.891 411.534 322.704 411.534 325.673 408.565C328.642 405.596 328.642 400.782 325.673 397.813L292.97 365.11ZM164.399 236.539C161.43 233.57 156.617 233.57 153.648 236.539C150.679 239.508 150.679 244.322 153.648 247.291L186.35 279.993C189.319 282.962 194.133 282.962 197.102 279.993C200.071 277.024 200.071 272.211 197.102 269.242L164.399 236.539ZM40.7556 123.647C43.7246 120.678 48.5383 120.678 51.5072 123.647L125.872 198.012C128.841 200.981 128.841 205.795 125.872 208.764C122.903 211.733 118.09 211.733 115.121 208.764L40.7556 134.399C37.7867 131.43 37.7867 126.616 40.7556 123.647ZM342.696 328.824C339.727 325.855 334.914 325.855 331.945 328.823C328.976 331.792 328.976 336.606 331.945 339.575L401.83 409.461C404.799 412.429 409.613 412.429 412.582 409.461C415.551 406.492 415.551 401.678 412.582 398.709L342.696 328.824ZM35.38 32.2587C38.349 29.2897 43.1626 29.2897 46.1316 32.2586L116.017 102.144C118.986 105.113 118.986 109.927 116.017 112.896C113.048 115.865 108.234 115.865 105.265 112.896L35.38 43.0102C32.411 40.0413 32.411 35.2277 35.38 32.2587Z" fill="#ECB55A"/>
</g>
<mask id="mask1_54_8" style="mask-type:luminance" maskUnits="userSpaceOnUse" x="80" y="70" width="264" height="264">
<ellipse cx="211.953" cy="201.816" rx="131.777" ry="131.777" fill="white"/>
</mask>
<g mask="url(#mask1_54_8)">
<rect opacity="0.0775757" x="211.953" y="70.0387" width="132.467" height="263.554" fill="black"/>
</g>
<path fill-rule="evenodd" clip-rule="evenodd" d="M211.953 329.792C282.569 329.792 339.826 272.597 339.928 202.005V201.626C339.826 131.034 282.569 73.8398 211.953 73.8398C211.953 73.8398 211.953 73.8398 211.953 73.8398V329.792C211.953 329.792 211.953 329.792 211.953 329.792Z" fill="#9C4925"/>
<mask id="mask2_54_8" style="mask-type:luminance" maskUnits="userSpaceOnUse" x="211" y="73" width="129" height="257">
<path fill-rule="evenodd" clip-rule="evenodd" d="M211.953 329.792C282.569 329.792 339.826 272.597 339.928 202.005V201.626C339.826 131.034 282.569 73.8398 211.953 73.8398C211.953 73.8398 211.953 73.8398 211.953 73.8398V329.792C211.953 329.792 211.953 329.792 211.953 329.792Z" fill="white"/>
</mask>
<g mask="url(#mask2_54_8)">
<ellipse cx="212.586" cy="201.816" rx="72.224" ry="72.224" fill="#E09B7F"/>
<ellipse cx="212.27" cy="202.133" rx="21.8573" ry="21.8573" fill="#FFEECC"/>
</g>
<path fill-rule="evenodd" clip-rule="evenodd" d="M34.1067 34.1069C34.0301 34.1783 33.9547 34.251 33.8805 34.3252C15.695 52.5107 80.5785 146.879 178.802 245.102C277.025 343.326 371.393 408.209 389.579 390.024C389.653 389.95 389.726 389.874 389.797 389.798L360.956 360.957C360.885 361.034 360.813 361.109 360.739 361.183C345.502 376.42 266.437 322.058 184.142 239.763C101.846 157.467 47.4845 78.4022 62.7211 63.1656C62.7952 63.0915 62.8709 63.019 62.948 62.9482L34.1067 34.1069ZM69.9415 69.9417C55.4432 84.4417 107.169 159.675 185.475 237.981C263.781 316.288 339.015 368.013 353.515 353.515L342.654 342.654C342.583 342.732 342.511 342.808 342.437 342.882C329.043 356.275 259.666 308.613 187.479 236.426C115.291 164.238 67.6293 94.8611 81.0227 81.4677C81.0969 81.3934 81.1728 81.3211 81.2505 81.2506L69.9415 69.9417Z" fill="#B87D43"/>
</svg>
