<svg width="422" height="422" viewBox="0 0 422 422" fill="none" xmlns="http://www.w3.org/2000/svg">
<path fill-rule="evenodd" clip-rule="evenodd" d="M244.151 177.849C342.374 276.072 407.258 370.441 389.072 388.626C388.998 388.701 388.922 388.774 388.845 388.845L359.999 359.999L360.232 359.786C375.468 344.549 321.106 265.484 238.811 183.189C156.516 100.893 77.4506 46.5316 62.214 61.7681C62.1396 61.8426 62.0668 61.9186 61.9956 61.9961L33.1606 33.1604L33.3736 32.9277C51.5592 14.7421 145.927 79.6257 244.151 177.849ZM237.03 184.522C315.336 262.829 367.062 338.063 352.563 352.562L341.697 341.697L341.93 341.484C355.323 328.091 307.661 258.713 235.474 186.526C163.286 114.339 93.9093 66.6766 80.5159 80.07C80.4415 80.1444 80.3689 80.2206 80.2982 80.2986L68.9898 68.9888C83.4891 54.4895 158.723 106.216 237.03 184.522Z" fill="#B87D43"/>
<circle cx="210.972" cy="200.864" r="131.777" fill="#FCCB6B"/>
<mask id="mask0_0_2964" style="mask-type:luminance" maskUnits="userSpaceOnUse" x="79" y="69" width="264" height="264">
<circle cx="210.972" cy="200.864" r="131.777" fill="white"/>
</mask>
<g mask="url(#mask0_0_2964)">
<path fill-rule="evenodd" clip-rule="evenodd" d="M341.716 327.872C338.747 324.903 333.933 324.903 330.964 327.872C327.995 330.841 327.995 335.654 330.964 338.623L400.849 408.509C403.818 411.478 408.632 411.478 411.601 408.509C414.57 405.54 414.57 400.726 411.601 397.757L341.716 327.872ZM243.159 229.315C240.19 226.346 235.377 226.346 232.408 229.315C229.439 232.284 229.439 237.098 232.408 240.067L267.35 275.01L267.346 275.014C270.093 277.997 270.02 282.643 267.126 285.537C264.232 288.431 259.586 288.504 256.603 285.757L256.599 285.761L184.921 214.084C181.953 211.115 177.139 211.115 174.17 214.084C171.201 217.053 171.201 221.867 174.17 224.836L289.302 339.967C292.27 342.936 297.084 342.936 300.053 339.967C303.022 336.998 303.022 332.185 300.053 329.216L278.102 307.264C275.133 304.295 275.133 299.482 278.102 296.513C281.071 293.544 285.885 293.544 288.854 296.513L302.293 309.952C305.262 312.921 310.076 312.921 313.045 309.952C316.014 306.983 316.014 302.17 313.045 299.201L243.159 229.315ZM291.989 364.158C289.02 361.189 284.207 361.189 281.238 364.158C278.269 367.127 278.269 371.941 281.238 374.91L313.941 407.613C316.91 410.582 321.723 410.582 324.692 407.613C327.661 404.644 327.661 399.83 324.692 396.861L291.989 364.158ZM163.418 235.587C160.449 232.618 155.636 232.618 152.667 235.587C149.698 238.556 149.698 243.37 152.667 246.339L185.369 279.042C188.338 282.01 193.152 282.01 196.121 279.042C199.09 276.073 199.09 271.259 196.121 268.29L163.418 235.587ZM39.775 122.695C42.744 119.726 47.5576 119.726 50.5266 122.695L124.892 197.061C127.861 200.03 127.861 204.843 124.892 207.812C121.923 210.781 117.109 210.781 114.14 207.812L39.775 133.447C36.806 130.478 36.806 125.664 39.775 122.695ZM162.522 170.182C159.553 167.213 154.74 167.213 151.771 170.182C148.802 173.151 148.802 177.964 151.771 180.933L155.803 184.965C158.772 187.934 158.772 192.748 155.803 195.717C152.834 198.686 148.02 198.686 145.051 195.717L29.9194 80.5851C26.9504 77.6161 26.9504 72.8024 29.9194 69.8335C32.8883 66.8645 37.702 66.8645 40.671 69.8335L130.268 159.43L130.272 159.425C133.254 162.173 137.901 162.1 140.795 159.206C143.689 156.312 143.762 151.665 141.014 148.683L141.019 148.678L130.268 137.927C127.299 134.958 127.299 130.144 130.268 127.175C133.237 124.206 138.05 124.206 141.019 127.175L210.905 197.061C213.873 200.03 213.873 204.843 210.905 207.812C207.936 210.781 203.122 210.781 200.153 207.812L162.522 170.182ZM34.3992 31.3069C37.3681 28.3379 42.1818 28.338 45.1508 31.3069L115.036 101.192C118.005 104.161 118.005 108.975 115.036 111.944C112.067 114.913 107.253 114.913 104.285 111.944L34.3992 42.0585C31.4302 39.0895 31.4302 34.2759 34.3992 31.3069Z" fill="#ECB55A"/>
</g>
<mask id="mask1_0_2964" style="mask-type:luminance" maskUnits="userSpaceOnUse" x="79" y="69" width="264" height="264">
<circle cx="210.972" cy="200.864" r="131.777" fill="white"/>
</mask>
<g mask="url(#mask1_0_2964)">
<rect opacity="0.0775757" x="210.972" y="69.0869" width="132.467" height="263.554" fill="black"/>
</g>
<path fill-rule="evenodd" clip-rule="evenodd" d="M177.849 244.151C276.073 342.374 370.441 407.258 388.626 389.072C388.701 388.998 388.774 388.922 388.846 388.845L359.999 359.999L359.786 360.232C344.549 375.468 265.484 321.106 183.189 238.811C100.894 156.516 46.5318 77.4505 61.7683 62.214C61.8428 62.1395 61.9187 62.0667 61.9962 61.9956L33.1606 33.1606L32.9279 33.3736C14.7423 51.5591 79.6258 145.927 177.849 244.151ZM184.522 237.03C262.829 315.336 338.063 367.062 352.562 352.563L341.697 341.697L341.484 341.93C328.091 355.323 258.714 307.661 186.526 235.474C114.339 163.286 66.6768 93.9093 80.0702 80.5159C80.1446 80.4414 80.2208 80.3688 80.2987 80.2981L68.989 68.9897C54.4897 83.489 106.216 158.723 184.522 237.03Z" fill="#B87D43"/>
</svg>
