<svg width="257" height="257" viewBox="0 0 257 257" fill="none" xmlns="http://www.w3.org/2000/svg">
<path fill-rule="evenodd" clip-rule="evenodd" d="M21.0656 21.0644C21.109 21.0179 21.1532 20.972 21.1982 20.927C32.2302 9.89502 89.4772 49.2556 149.063 108.841C208.649 168.427 248.009 225.674 236.977 236.706C236.932 236.751 236.887 236.795 236.84 236.839L219.344 219.343C219.391 219.3 219.437 219.256 219.482 219.211C228.725 209.968 195.747 162.004 145.824 112.081C95.9006 62.1574 47.9369 29.1796 38.6938 38.4226C38.6488 38.4677 38.6048 38.5136 38.5617 38.5605L21.0656 21.0644ZM42.8042 42.803C42.8042 42.8029 42.8042 42.8029 42.8042 42.8029C51.6 34.0071 97.2396 65.386 144.743 112.889C192.247 160.393 223.625 206.033 214.83 214.828C214.83 214.828 214.83 214.828 214.83 214.828L208.241 208.24C208.288 208.197 208.334 208.153 208.379 208.108C216.504 199.983 187.591 157.897 143.799 114.105C100.008 70.3136 57.9211 41.4002 49.7962 49.5251C49.7512 49.5701 49.7073 49.6162 49.6645 49.6633L42.8042 42.803Z" fill="#B87D43"/>
<ellipse cx="128.953" cy="122.803" rx="79.9406" ry="79.9406" fill="#FCCB6B"/>
<mask id="mask0_54_8" style="mask-type:luminance" maskUnits="userSpaceOnUse" x="49" y="42" width="160" height="161">
<ellipse cx="128.953" cy="122.803" rx="79.9406" ry="79.9406" fill="white"/>
</mask>
<g mask="url(#mask0_54_8)">
<path fill-rule="evenodd" clip-rule="evenodd" d="M99.5616 104.19C97.7605 102.389 94.8404 102.389 93.0393 104.19C91.2382 105.991 91.2382 108.911 93.0393 110.712L95.4851 113.158C97.2862 114.959 97.2862 117.879 95.4852 119.68C93.6841 121.481 90.7639 121.481 88.9629 119.68L19.12 49.8375C17.3189 48.0364 17.3189 45.1162 19.12 43.3152C20.9211 41.5141 23.8412 41.5141 25.6423 43.3152L79.9947 97.6676L79.9974 97.6647C81.8067 99.3316 84.6255 99.2873 86.3811 97.5317C88.1367 95.7761 88.1811 92.9573 86.5141 91.148L86.517 91.1453L79.9947 84.623C78.1936 82.8219 78.1936 79.9018 79.9947 78.1007C81.7958 76.2996 84.7159 76.2996 86.517 78.1007L128.912 120.496C130.713 122.297 130.713 125.217 128.912 127.018C127.111 128.819 124.191 128.819 122.39 127.018L99.5616 104.19ZM148.479 140.062C146.678 138.261 143.758 138.261 141.956 140.062C140.155 141.864 140.155 144.784 141.956 146.585L163.154 167.782L163.151 167.785C164.818 169.594 164.774 172.413 163.018 174.169C161.262 175.924 158.444 175.969 156.634 174.302L156.632 174.305L113.15 130.823C111.349 129.021 108.428 129.021 106.627 130.823C104.826 132.624 104.826 135.544 106.627 137.345L176.47 207.188C178.271 208.989 181.191 208.989 182.993 207.188C184.794 205.387 184.794 202.467 182.993 200.665L169.676 187.349C167.875 185.548 167.875 182.628 169.676 180.827C171.477 179.026 174.397 179.026 176.198 180.827L184.351 188.98C186.152 190.781 189.073 190.781 190.874 188.98C192.675 187.179 192.675 184.258 190.874 182.457L148.479 140.062ZM178.101 221.863C176.3 220.062 173.38 220.062 171.579 221.863C169.777 223.664 169.777 226.584 171.579 228.385L191.417 248.224C193.218 250.025 196.138 250.025 197.939 248.224C199.741 246.423 199.741 243.503 197.939 241.702L178.101 221.863ZM100.105 143.867C98.3039 142.066 95.3838 142.066 93.5827 143.867C91.7816 145.668 91.7816 148.588 93.5827 150.389L113.421 170.228C115.222 172.029 118.143 172.029 119.944 170.228C121.745 168.427 121.745 165.507 119.944 163.706L100.105 143.867ZM25.0986 75.3831C26.8997 73.582 29.8198 73.582 31.6209 75.3831L76.7334 120.496C78.5345 122.297 78.5345 125.217 76.7334 127.018C74.9323 128.819 72.0122 128.819 70.2111 127.018L25.0986 81.9054C23.2975 80.1043 23.2975 77.1842 25.0986 75.3831ZM208.266 199.85C206.465 198.049 203.545 198.049 201.744 199.85C199.943 201.651 199.943 204.571 201.744 206.372L244.139 248.767C245.94 250.568 248.86 250.568 250.661 248.767C252.462 246.966 252.462 244.046 250.661 242.245L208.266 199.85ZM21.8375 19.9436C23.6385 18.1425 26.5587 18.1425 28.3598 19.9436L70.7547 62.3385C72.5557 64.1396 72.5557 67.0597 70.7547 68.8608C68.9536 70.6618 66.0335 70.6618 64.2324 68.8608L21.8375 26.4659C20.0364 24.6648 20.0364 21.7446 21.8375 19.9436Z" fill="#ECB55A"/>
</g>
<mask id="mask1_54_8" style="mask-type:luminance" maskUnits="userSpaceOnUse" x="49" y="42" width="160" height="161">
<ellipse cx="128.953" cy="122.803" rx="79.9406" ry="79.9406" fill="white"/>
</mask>
<g mask="url(#mask1_54_8)">
<rect opacity="0.0775757" x="128.953" y="42.8623" width="80.3591" height="159.881" fill="black"/>
</g>
<path fill-rule="evenodd" clip-rule="evenodd" d="M128.953 200.437C171.829 200.437 206.587 165.679 206.587 122.803C206.587 79.9264 171.829 45.1682 128.953 45.1682V200.437Z" fill="#9C4925"/>
<mask id="mask2_54_8" style="mask-type:luminance" maskUnits="userSpaceOnUse" x="128" y="45" width="79" height="156">
<path fill-rule="evenodd" clip-rule="evenodd" d="M128.953 200.437C171.829 200.437 206.587 165.679 206.587 122.803C206.587 79.9264 171.829 45.1682 128.953 45.1682V200.437Z" fill="white"/>
</mask>
<g mask="url(#mask2_54_8)">
<ellipse cx="129.337" cy="122.803" rx="43.8136" ry="43.8136" fill="#E09B7F"/>
<ellipse cx="129.145" cy="122.995" rx="13.2594" ry="13.2594" fill="#FFEECC"/>
</g>
<path fill-rule="evenodd" clip-rule="evenodd" d="M21.0652 21.0648C21.0186 21.1081 20.9729 21.1523 20.9279 21.1972C9.89588 32.2292 49.2565 89.4763 108.842 149.062C168.428 208.648 225.675 248.008 236.707 236.976C236.752 236.931 236.796 236.886 236.839 236.839L219.343 219.343C219.3 219.39 219.256 219.436 219.211 219.481C209.968 228.724 162.005 195.746 112.081 145.823C62.1583 95.8996 29.1804 47.9359 38.4235 38.6929C38.4685 38.6479 38.5144 38.6039 38.5612 38.5609L21.0652 21.0648ZM42.8037 42.8034C34.0082 51.5993 65.387 97.2388 112.89 144.742C160.394 192.246 206.033 223.624 214.829 214.829L208.24 208.24C208.198 208.287 208.154 208.333 208.109 208.378C199.984 216.503 157.897 187.59 114.106 143.798C70.3144 100.007 41.401 57.9204 49.5259 49.7955C49.571 49.7505 49.617 49.7066 49.6642 49.6638L42.8037 42.8034Z" fill="#B87D43"/>
</svg>
