<svg width="290" height="290" viewBox="0 0 290 290" fill="none" xmlns="http://www.w3.org/2000/svg">
<circle cx="145" cy="145" r="145" fill="#65F0D5"/>
<mask id="mask0_0_2702" style="mask-type:luminance" maskUnits="userSpaceOnUse" x="0" y="0" width="290" height="290">
<circle cx="145" cy="145" r="145" fill="white"/>
</mask>
<g mask="url(#mask0_0_2702)">
<path fill-rule="evenodd" clip-rule="evenodd" d="M281.845 -94.978C281.845 -90.7816 278.443 -87.3797 274.246 -87.3797C270.05 -87.3797 266.648 -90.7816 266.648 -94.978V-193.755C266.648 -197.952 270.05 -201.354 274.246 -201.354C278.443 -201.354 281.845 -197.952 281.845 -193.755V-94.978ZM281.845 44.3233C281.845 48.5197 278.443 51.9216 274.246 51.9216C270.05 51.9216 266.648 48.5197 266.648 44.3233V-5.06531L266.642 -5.06506C266.476 -9.11476 263.14 -12.347 259.05 -12.347C254.96 -12.347 251.624 -9.11476 251.458 -5.06506L251.452 -5.06531L251.452 96.2448C251.452 100.441 248.05 103.843 243.853 103.843C239.657 103.843 236.255 100.441 236.255 96.2448L236.255 -66.4845C236.255 -70.6809 239.657 -74.0828 243.853 -74.0828C248.05 -74.0828 251.452 -70.6809 251.452 -66.4845V-35.4583C251.452 -31.2619 254.854 -27.8601 259.05 -27.8601C263.246 -27.8601 266.648 -31.2619 266.648 -35.4583V-54.4539C266.648 -58.6503 270.05 -62.0522 274.246 -62.0522C278.443 -62.0522 281.845 -58.6503 281.845 -54.4539V44.3233ZM221.059 -85.4801C221.059 -81.2838 217.657 -77.8819 213.46 -77.8819C209.264 -77.8819 205.862 -81.2838 205.862 -85.4801V-131.703C205.862 -135.899 209.264 -139.301 213.46 -139.301C217.657 -139.301 221.059 -135.899 221.059 -131.703V-85.4801ZM221.059 96.2448C221.059 100.441 217.657 103.843 213.46 103.843C209.264 103.843 205.862 100.441 205.862 96.2448V50.022C205.862 45.8256 209.264 42.4238 213.46 42.4238C217.657 42.4238 221.059 45.8256 221.059 50.022L221.059 96.2448ZM213.46 263.406C217.657 263.406 221.059 260.004 221.059 255.808V150.699C221.059 146.503 217.657 143.101 213.46 143.101C209.264 143.101 205.862 146.503 205.862 150.699V255.808C205.862 260.004 209.264 263.406 213.46 263.406ZM266.648 143.101C266.648 147.297 263.246 150.699 259.05 150.699C254.854 150.699 251.452 147.297 251.452 143.101V137.402C251.452 133.206 248.05 129.804 243.853 129.804C239.657 129.804 236.255 133.206 236.255 137.402V300.131C236.255 304.328 239.657 307.729 243.853 307.729C248.05 307.729 251.452 304.328 251.452 300.131V173.494L251.458 173.494C251.624 169.444 254.96 166.212 259.05 166.212C263.14 166.212 266.476 169.444 266.642 173.494L266.648 173.494V188.69C266.648 192.887 270.05 196.288 274.246 196.288C278.443 196.288 281.845 192.887 281.845 188.69V89.9129C281.845 85.7165 278.443 82.3146 274.246 82.3146C270.05 82.3146 266.648 85.7165 266.648 89.9129V143.101ZM274.246 331.791C278.443 331.791 281.845 328.389 281.845 324.192L281.845 225.415C281.845 221.219 278.443 217.817 274.246 217.817C270.05 217.817 266.648 221.219 266.648 225.415L266.648 324.192C266.648 328.389 270.05 331.791 274.246 331.791Z" fill="#49CBC2"/>
</g>
<mask id="mask1_0_2702" style="mask-type:luminance" maskUnits="userSpaceOnUse" x="0" y="0" width="290" height="290">
<circle cx="145" cy="145" r="145" fill="white"/>
</mask>
<g mask="url(#mask1_0_2702)">
<path fill-rule="evenodd" clip-rule="evenodd" d="M114.683 -139.301C114.683 -135.105 118.085 -131.703 122.281 -131.703C126.478 -131.703 129.88 -135.105 129.88 -139.301V-238.079C129.88 -242.275 126.478 -245.677 122.281 -245.677C118.085 -245.677 114.683 -242.275 114.683 -238.079V-139.301ZM114.683 9.15527e-05C114.683 4.1965 118.085 7.59836 122.281 7.59836C126.478 7.59836 129.88 4.1965 129.88 9.15527e-05V-49.3885L129.886 -49.3883C130.052 -53.438 133.387 -56.6702 137.478 -56.6702C141.568 -56.6702 144.904 -53.438 145.07 -49.3883L145.076 -49.3885L145.076 51.9215C145.076 56.1179 148.478 59.5197 152.674 59.5197C156.871 59.5197 160.273 56.1179 160.273 51.9215L160.273 -110.808C160.273 -115.004 156.871 -118.406 152.674 -118.406C148.478 -118.406 145.076 -115.004 145.076 -110.808V-79.7816C145.076 -75.5852 141.674 -72.1833 137.478 -72.1833C133.281 -72.1833 129.88 -75.5852 129.88 -79.7816V-98.7772C129.88 -102.974 126.478 -106.375 122.281 -106.375C118.085 -106.375 114.683 -102.974 114.683 -98.7772V9.15527e-05ZM175.469 -129.803C175.469 -125.607 178.871 -122.205 183.067 -122.205C187.264 -122.205 190.666 -125.607 190.666 -129.803V-176.026C190.666 -180.223 187.264 -183.624 183.067 -183.624C178.871 -183.624 175.469 -180.223 175.469 -176.026V-129.803ZM175.469 51.9215C175.469 56.1179 178.871 59.5197 183.067 59.5197C187.264 59.5197 190.666 56.1179 190.666 51.9215V5.69879C190.666 1.5024 187.264 -1.89946 183.067 -1.89946C178.871 -1.89946 175.469 1.5024 175.469 5.69879L175.469 51.9215ZM183.067 219.083C178.871 219.083 175.469 215.681 175.469 211.485V106.376C175.469 102.179 178.871 98.7774 183.067 98.7774C187.264 98.7774 190.666 102.179 190.666 106.376V211.485C190.666 215.681 187.264 219.083 183.067 219.083ZM129.88 98.7774C129.88 102.974 133.281 106.376 137.478 106.376C141.674 106.376 145.076 102.974 145.076 98.7774V93.0787C145.076 88.8823 148.478 85.4804 152.674 85.4804C156.871 85.4804 160.273 88.8823 160.273 93.0787V255.808C160.273 260.004 156.871 263.406 152.674 263.406C148.478 263.406 145.076 260.004 145.076 255.808V129.17L145.07 129.171C144.904 125.121 141.568 121.889 137.478 121.889C133.387 121.889 130.052 125.121 129.886 129.171L129.88 129.17V144.367C129.88 148.563 126.478 151.965 122.281 151.965C118.085 151.965 114.683 148.563 114.683 144.367L114.683 45.5896C114.683 41.3932 118.085 37.9914 122.281 37.9914C126.478 37.9914 129.88 41.3932 129.88 45.5896V98.7774ZM122.281 287.467C118.085 287.467 114.683 284.065 114.683 279.869V181.092C114.683 176.895 118.085 173.494 122.281 173.494C126.478 173.494 129.88 176.895 129.88 181.092V279.869C129.88 284.065 126.478 287.467 122.281 287.467Z" fill="#50DECD"/>
</g>
<mask id="mask2_0_2702" style="mask-type:luminance" maskUnits="userSpaceOnUse" x="0" y="0" width="290" height="290">
<circle cx="145" cy="145" r="145" fill="white"/>
</mask>
<g mask="url(#mask2_0_2702)">
<path fill-rule="evenodd" clip-rule="evenodd" d="M99.4866 -160.197C99.4866 -156 96.0847 -152.598 91.8883 -152.598C87.6919 -152.598 84.2901 -156 84.2901 -160.197V-258.974C84.2901 -263.17 87.6919 -266.572 91.8883 -266.572C96.0847 -266.572 99.4866 -263.17 99.4866 -258.974V-160.197ZM99.4866 -20.8954C99.4866 -16.699 96.0847 -13.2971 91.8883 -13.2971C87.6919 -13.2971 84.2901 -16.699 84.2901 -20.8954V-70.2841L84.2836 -70.2838C84.1177 -74.3335 80.7822 -77.5657 76.6918 -77.5657C72.6014 -77.5657 69.2659 -74.3335 69.1 -70.2838L69.0936 -70.2841V31.026C69.0936 35.2224 65.6917 38.6242 61.4953 38.6242C57.2989 38.6242 53.8971 35.2224 53.8971 31.026L53.8971 -131.703C53.8971 -135.9 57.2989 -139.302 61.4953 -139.302C65.6917 -139.302 69.0936 -135.9 69.0936 -131.703L69.0936 -100.677C69.0936 -96.4807 72.4954 -93.0788 76.6918 -93.0788C80.8882 -93.0788 84.2901 -96.4807 84.2901 -100.677V-119.673C84.2901 -123.869 87.6919 -127.271 91.8883 -127.271C96.0847 -127.271 99.4866 -123.869 99.4866 -119.673V-20.8954ZM38.7005 -150.699C38.7005 -146.503 35.2987 -143.101 31.1023 -143.101C26.9059 -143.101 23.504 -146.503 23.504 -150.699V-196.922C23.504 -201.118 26.9059 -204.52 31.1023 -204.52C35.2987 -204.52 38.7005 -201.118 38.7005 -196.922V-150.699ZM38.7005 31.026C38.7005 35.2224 35.2987 38.6242 31.1023 38.6242C26.9059 38.6242 23.504 35.2224 23.504 31.026V-15.1967C23.504 -19.3931 26.9059 -22.795 31.1023 -22.795C35.2987 -22.795 38.7005 -19.3931 38.7005 -15.1967L38.7005 31.026ZM31.1023 198.188C35.2987 198.188 38.7005 194.786 38.7005 190.589L38.7005 85.4802C38.7005 81.2838 35.2987 77.8819 31.1023 77.8819C26.9059 77.8819 23.504 81.2838 23.504 85.4802V190.589C23.504 194.786 26.9059 198.188 31.1023 198.188ZM84.2901 77.8819C84.2901 82.0783 80.8882 85.4801 76.6918 85.4801C72.4954 85.4801 69.0936 82.0783 69.0936 77.8819V72.1832C69.0936 67.9868 65.6917 64.5849 61.4953 64.5849C57.2989 64.5849 53.8971 67.9868 53.8971 72.1832L53.8971 234.912C53.8971 239.109 57.2989 242.511 61.4953 242.511C65.6917 242.511 69.0936 239.109 69.0936 234.912V108.275L69.1 108.275C69.2659 104.225 72.6014 100.993 76.6918 100.993C80.7822 100.993 84.1177 104.225 84.2836 108.275L84.2901 108.275V123.471C84.2901 127.668 87.6919 131.07 91.8883 131.07C96.0847 131.07 99.4866 127.668 99.4866 123.471L99.4866 24.6941C99.4866 20.4977 96.0847 17.0959 91.8883 17.0959C87.6919 17.0959 84.2901 20.4977 84.2901 24.6941L84.2901 77.8819ZM91.8883 266.572C96.0847 266.572 99.4866 263.17 99.4866 258.974V160.196C99.4866 156 96.0847 152.598 91.8883 152.598C87.6919 152.598 84.2901 156 84.2901 160.196V258.974C84.2901 263.17 87.6919 266.572 91.8883 266.572Z" fill="#77FFF5"/>
</g>
<mask id="mask3_0_2702" style="mask-type:luminance" maskUnits="userSpaceOnUse" x="0" y="0" width="290" height="290">
<circle cx="145" cy="145" r="145" fill="white"/>
</mask>
<g mask="url(#mask3_0_2702)">
<rect opacity="0.0775757" x="145" width="145" height="290" fill="black"/>
</g>
</svg>
