<svg width="290" height="290" viewBox="0 0 290 290" fill="none" xmlns="http://www.w3.org/2000/svg">
<circle cx="145" cy="145" r="145" fill="#65F0D5"/>
<mask id="mask0_54_9" style="mask-type:luminance" maskUnits="userSpaceOnUse" x="0" y="0" width="290" height="290">
<circle cx="145" cy="145" r="145" fill="white"/>
</mask>
<g mask="url(#mask0_54_9)">
<path fill-rule="evenodd" clip-rule="evenodd" d="M281.844 -94.9783C281.844 -90.7819 278.442 -87.38 274.246 -87.38C270.05 -87.38 266.648 -90.7819 266.648 -94.9783V-193.756C266.648 -197.952 270.05 -201.354 274.246 -201.354C278.442 -201.354 281.844 -197.952 281.844 -193.756V-94.9783ZM281.844 44.3232C281.844 48.5195 278.442 51.9214 274.246 51.9214C270.05 51.9214 266.648 48.5195 266.648 44.3232V-5.06549L266.641 -5.06525C266.475 -9.11494 263.14 -12.3472 259.049 -12.3472C254.959 -12.3472 251.624 -9.11494 251.458 -5.06525L251.451 -5.06549L251.451 96.2445C251.451 100.441 248.049 103.843 243.853 103.843C239.657 103.843 236.255 100.441 236.255 96.2445L236.255 -66.4847C236.255 -70.6811 239.657 -74.083 243.853 -74.083C248.049 -74.083 251.451 -70.6811 251.451 -66.4847V-35.4585C251.451 -31.2621 254.853 -27.8603 259.049 -27.8603C263.246 -27.8603 266.648 -31.2621 266.648 -35.4585V-54.4541C266.648 -58.6505 270.05 -62.0524 274.246 -62.0524C278.442 -62.0524 281.844 -58.6505 281.844 -54.4541V44.3232ZM221.059 -85.4804C221.059 -81.284 217.657 -77.8821 213.46 -77.8821C209.264 -77.8821 205.862 -81.284 205.862 -85.4804V-131.703C205.862 -135.899 209.264 -139.301 213.46 -139.301C217.657 -139.301 221.059 -135.899 221.059 -131.703V-85.4804ZM221.059 96.2445C221.059 100.441 217.657 103.843 213.46 103.843C209.264 103.843 205.862 100.441 205.862 96.2445V50.0218C205.862 45.8254 209.264 42.4236 213.46 42.4236C217.657 42.4236 221.059 45.8254 221.059 50.0218L221.059 96.2445ZM213.46 263.406C217.657 263.406 221.059 260.004 221.059 255.808V150.699C221.059 146.502 217.657 143.1 213.46 143.1C209.264 143.1 205.862 146.502 205.862 150.699V255.808C205.862 260.004 209.264 263.406 213.46 263.406ZM266.648 143.1C266.648 147.297 263.246 150.699 259.049 150.699C254.853 150.699 251.451 147.297 251.451 143.1V137.402C251.451 133.205 248.049 129.803 243.853 129.803C239.657 129.803 236.255 133.205 236.255 137.402V300.131C236.255 304.327 239.657 307.729 243.853 307.729C248.049 307.729 251.451 304.327 251.451 300.131V173.493L251.458 173.494C251.624 169.444 254.959 166.212 259.049 166.212C263.14 166.212 266.475 169.444 266.641 173.494L266.648 173.493V188.69C266.648 192.886 270.05 196.288 274.246 196.288C278.442 196.288 281.844 192.886 281.844 188.69V89.9126C281.844 85.7162 278.442 82.3144 274.246 82.3144C270.05 82.3144 266.648 85.7162 266.648 89.9126V143.1ZM274.246 331.79C278.442 331.79 281.844 328.389 281.844 324.192L281.844 225.415C281.844 221.218 278.442 217.817 274.246 217.817C270.05 217.817 266.648 221.218 266.648 225.415L266.648 324.192C266.648 328.389 270.05 331.79 274.246 331.79Z" fill="#49CBC2"/>
</g>
<mask id="mask1_54_9" style="mask-type:luminance" maskUnits="userSpaceOnUse" x="0" y="0" width="290" height="290">
<circle cx="145" cy="145" r="145" fill="white"/>
</mask>
<g mask="url(#mask1_54_9)">
<path fill-rule="evenodd" clip-rule="evenodd" d="M114.683 -139.301C114.683 -135.105 118.084 -131.703 122.281 -131.703C126.477 -131.703 129.879 -135.105 129.879 -139.301V-238.079C129.879 -242.275 126.477 -245.677 122.281 -245.677C118.084 -245.677 114.683 -242.275 114.683 -238.079V-139.301ZM114.683 6.10352e-05C114.683 4.19646 118.084 7.59831 122.281 7.59831C126.477 7.59831 129.879 4.19646 129.879 6.10352e-05V-49.3886L129.886 -49.3884C130.051 -53.438 133.387 -56.6703 137.477 -56.6703C141.568 -56.6703 144.903 -53.438 145.069 -49.3884L145.076 -49.3886L145.076 51.9214C145.076 56.1179 148.477 59.5197 152.674 59.5197C156.87 59.5197 160.272 56.1179 160.272 51.9214L160.272 -110.808C160.272 -115.004 156.87 -118.406 152.674 -118.406C148.477 -118.406 145.076 -115.004 145.076 -110.808V-79.7816C145.076 -75.5852 141.674 -72.1833 137.477 -72.1833C133.281 -72.1833 129.879 -75.5852 129.879 -79.7816V-98.7772C129.879 -102.974 126.477 -106.375 122.281 -106.375C118.084 -106.375 114.683 -102.974 114.683 -98.7772V6.10352e-05ZM175.469 -129.803C175.469 -125.607 178.871 -122.205 183.067 -122.205C187.264 -122.205 190.666 -125.607 190.666 -129.803V-176.026C190.666 -180.223 187.264 -183.624 183.067 -183.624C178.871 -183.624 175.469 -180.223 175.469 -176.026V-129.803ZM175.469 51.9214C175.469 56.1178 178.871 59.5197 183.067 59.5197C187.264 59.5197 190.666 56.1178 190.666 51.9214V5.6987C190.666 1.5023 187.264 -1.89955 183.067 -1.89955C178.871 -1.89955 175.469 1.5023 175.469 5.6987L175.469 51.9214ZM183.067 219.083C178.871 219.083 175.469 215.681 175.469 211.485V106.376C175.469 102.179 178.871 98.7773 183.067 98.7773C187.264 98.7773 190.666 102.179 190.666 106.376V211.485C190.666 215.681 187.264 219.083 183.067 219.083ZM129.879 98.7773C129.879 102.974 133.281 106.376 137.477 106.376C141.674 106.376 145.076 102.974 145.076 98.7773V93.0786C145.076 88.8822 148.477 85.4803 152.674 85.4803C156.87 85.4803 160.272 88.8822 160.272 93.0786V255.808C160.272 260.004 156.87 263.406 152.674 263.406C148.477 263.406 145.076 260.004 145.076 255.808V129.17L145.069 129.171C144.903 125.121 141.568 121.889 137.477 121.889C133.387 121.889 130.051 125.121 129.886 129.171L129.879 129.17V144.367C129.879 148.563 126.477 151.965 122.281 151.965C118.084 151.965 114.683 148.563 114.683 144.367L114.683 45.5895C114.683 41.3931 118.084 37.9912 122.281 37.9912C126.477 37.9912 129.879 41.3931 129.879 45.5895V98.7773ZM122.281 287.467C118.084 287.467 114.683 284.065 114.683 279.869V181.092C114.683 176.895 118.084 173.493 122.281 173.493C126.477 173.493 129.879 176.895 129.879 181.092V279.869C129.879 284.065 126.477 287.467 122.281 287.467Z" fill="#50DECD"/>
</g>
<mask id="mask2_54_9" style="mask-type:luminance" maskUnits="userSpaceOnUse" x="0" y="0" width="290" height="290">
<circle cx="145" cy="145" r="145" fill="white"/>
</mask>
<g mask="url(#mask2_54_9)">
<path fill-rule="evenodd" clip-rule="evenodd" d="M99.4863 -160.196C99.4863 -156 96.0845 -152.598 91.8881 -152.598C87.6917 -152.598 84.2898 -156 84.2898 -160.196V-258.974C84.2898 -263.17 87.6917 -266.572 91.8881 -266.572C96.0845 -266.572 99.4863 -263.17 99.4863 -258.974V-160.196ZM99.4863 -20.8952C99.4863 -16.6988 96.0845 -13.297 91.8881 -13.297C87.6917 -13.297 84.2898 -16.6988 84.2898 -20.8952V-70.2839L84.2834 -70.2836C84.1175 -74.3333 80.782 -77.5655 76.6916 -77.5655C72.6011 -77.5655 69.2656 -74.3333 69.0998 -70.2836L69.0933 -70.2839V31.0262C69.0933 35.2226 65.6915 38.6244 61.4951 38.6244C57.2987 38.6244 53.8968 35.2226 53.8968 31.0262L53.8968 -131.703C53.8968 -135.899 57.2987 -139.301 61.4951 -139.301C65.6915 -139.301 69.0933 -135.899 69.0933 -131.703L69.0933 -100.677C69.0933 -96.4805 72.4952 -93.0786 76.6916 -93.0786C80.888 -93.0786 84.2898 -96.4805 84.2898 -100.677V-119.673C84.2898 -123.869 87.6917 -127.271 91.8881 -127.271C96.0845 -127.271 99.4863 -123.869 99.4863 -119.673V-20.8952ZM38.7007 -150.699C38.7007 -146.502 35.2988 -143.101 31.1024 -143.101C26.906 -143.101 23.5042 -146.502 23.5042 -150.699V-196.921C23.5042 -201.118 26.906 -204.52 31.1024 -204.52C35.2988 -204.52 38.7007 -201.118 38.7007 -196.921V-150.699ZM38.7007 31.0261C38.7007 35.2225 35.2988 38.6244 31.1024 38.6244C26.906 38.6244 23.5042 35.2225 23.5042 31.0261V-15.1966C23.5042 -19.393 26.906 -22.7948 31.1024 -22.7948C35.2988 -22.7948 38.7007 -19.393 38.7007 -15.1966L38.7007 31.0261ZM31.1024 198.188C35.2988 198.188 38.7007 194.786 38.7007 190.59L38.7007 85.4803C38.7007 81.2839 35.2988 77.8821 31.1024 77.8821C26.906 77.8821 23.5042 81.2839 23.5042 85.4803V190.59C23.5042 194.786 26.906 198.188 31.1024 198.188ZM84.2898 77.882C84.2898 82.0784 80.888 85.4803 76.6916 85.4803C72.4952 85.4803 69.0933 82.0784 69.0933 77.882V72.1833C69.0933 67.9869 65.6915 64.5851 61.4951 64.5851C57.2987 64.5851 53.8968 67.9869 53.8968 72.1833L53.8968 234.913C53.8968 239.109 57.2987 242.511 61.4951 242.511C65.6915 242.511 69.0933 239.109 69.0933 234.913V108.275L69.0998 108.275C69.2656 104.226 72.6011 100.993 76.6916 100.993C80.782 100.993 84.1175 104.226 84.2834 108.275L84.2898 108.275V123.472C84.2898 127.668 87.6917 131.07 91.8881 131.07C96.0845 131.07 99.4863 127.668 99.4863 123.472L99.4863 24.6942C99.4863 20.4978 96.0845 17.096 91.8881 17.096C87.6917 17.096 84.2898 20.4978 84.2898 24.6942L84.2898 77.882ZM91.8881 266.572C96.0845 266.572 99.4863 263.17 99.4863 258.974V160.196C99.4863 156 96.0845 152.598 91.8881 152.598C87.6917 152.598 84.2898 156 84.2898 160.196V258.974C84.2898 263.17 87.6917 266.572 91.8881 266.572Z" fill="#77FFF5"/>
</g>
<mask id="mask3_54_9" style="mask-type:luminance" maskUnits="userSpaceOnUse" x="0" y="0" width="290" height="290">
<circle cx="145" cy="145" r="145" fill="white"/>
</mask>
<g mask="url(#mask3_54_9)">
<rect opacity="0.0775757" x="145" width="145" height="290" fill="black"/>
</g>
<path fill-rule="evenodd" clip-rule="evenodd" d="M145 284.934C222.284 284.934 284.934 222.284 284.934 145C284.934 67.7162 222.284 5.06545 145 5.06543L145 284.934Z" fill="#138B83"/>
<mask id="mask4_54_9" style="mask-type:luminance" maskUnits="userSpaceOnUse" x="145" y="5" width="140" height="280">
<path fill-rule="evenodd" clip-rule="evenodd" d="M145 284.934C222.284 284.934 284.934 222.284 284.934 145C284.934 67.7162 222.284 5.06545 145 5.06543L145 284.934Z" fill="white"/>
</mask>
<g mask="url(#mask4_54_9)">
<circle cx="145.633" cy="145" r="91.8122" fill="#1BB9AE"/>
<circle cx="144.684" cy="145.317" r="20.5786" fill="#06504C"/>
</g>
</svg>
