<svg width="176" height="176" viewBox="0 0 176 176" fill="none" xmlns="http://www.w3.org/2000/svg">
<circle cx="88" cy="88" r="88" fill="#65F0D5"/>
<mask id="mask0_54_9" style="mask-type:luminance" maskUnits="userSpaceOnUse" x="0" y="0" width="176" height="176">
<circle cx="88" cy="88" r="88" fill="white"/>
</mask>
<g mask="url(#mask0_54_9)">
<path fill-rule="evenodd" clip-rule="evenodd" d="M171.05 -57.642C171.05 -55.0952 168.986 -53.0306 166.439 -53.0306C163.892 -53.0306 161.828 -55.0952 161.828 -57.642V-117.59C161.828 -120.136 163.892 -122.201 166.439 -122.201C168.986 -122.201 171.05 -120.136 171.05 -117.59V-57.642ZM171.05 26.8996C171.05 29.4464 168.986 31.5109 166.439 31.5109C163.892 31.5109 161.828 29.4464 161.828 26.8996V-3.07423L161.824 -3.07409C161.723 -5.53184 159.699 -7.49345 157.216 -7.49345C154.734 -7.49345 152.709 -5.53184 152.609 -3.07409L152.605 -3.07423V58.4105C152.605 60.9573 150.54 63.0218 147.994 63.0218C145.447 63.0218 143.382 60.9573 143.382 58.4105V-40.3493C143.382 -42.8961 145.447 -44.9607 147.994 -44.9607C150.54 -44.9607 152.605 -42.8961 152.605 -40.3493V-21.5197C152.605 -18.9729 154.669 -16.9083 157.216 -16.9083C159.763 -16.9083 161.828 -18.9729 161.828 -21.5197V-33.048C161.828 -35.5948 163.892 -37.6594 166.439 -37.6594C168.986 -37.6594 171.05 -35.5948 171.05 -33.048V26.8996ZM134.16 -51.8777C134.16 -49.3309 132.095 -47.2664 129.548 -47.2664C127.002 -47.2664 124.937 -49.3309 124.937 -51.8777V-79.9301C124.937 -82.4769 127.002 -84.5415 129.548 -84.5415C132.095 -84.5415 134.16 -82.4769 134.16 -79.9301V-51.8777ZM134.16 58.4105C134.16 60.9573 132.095 63.0218 129.548 63.0218C127.002 63.0218 124.937 60.9573 124.937 58.4105L124.937 30.3581C124.937 27.8113 127.002 25.7467 129.548 25.7467C132.095 25.7467 134.16 27.8113 134.16 30.3581V58.4105ZM129.548 159.86C132.095 159.86 134.16 157.796 134.16 155.249V91.4585C134.16 88.9117 132.095 86.8472 129.548 86.8472C127.002 86.8472 124.937 88.9117 124.937 91.4585V155.249C124.937 157.796 127.002 159.86 129.548 159.86ZM161.828 86.8472C161.828 89.3939 159.763 91.4585 157.216 91.4585C154.669 91.4585 152.605 89.3939 152.605 86.8472V83.3886C152.605 80.8419 150.54 78.7773 147.994 78.7773C145.447 78.7773 143.382 80.8419 143.382 83.3886L143.382 182.148C143.382 184.695 145.447 186.76 147.994 186.76C150.54 186.76 152.605 184.695 152.605 182.148L152.605 105.293L152.609 105.293C152.709 102.835 154.734 100.873 157.216 100.873C159.699 100.873 161.723 102.835 161.824 105.293L161.828 105.293V114.515C161.828 117.062 163.892 119.127 166.439 119.127C168.986 119.127 171.05 117.062 171.05 114.515L171.05 54.5677C171.05 52.0209 168.986 49.9563 166.439 49.9563C163.892 49.9563 161.828 52.0209 161.828 54.5677V86.8472ZM166.439 201.362C168.986 201.362 171.05 199.298 171.05 196.751V136.803C171.05 134.257 168.986 132.192 166.439 132.192C163.892 132.192 161.828 134.257 161.828 136.803V196.751C161.828 199.298 163.892 201.362 166.439 201.362Z" fill="#49CBC2"/>
</g>
<mask id="mask1_54_9" style="mask-type:luminance" maskUnits="userSpaceOnUse" x="0" y="0" width="176" height="176">
<circle cx="88" cy="88" r="88" fill="white"/>
</mask>
<g mask="url(#mask1_54_9)">
<path fill-rule="evenodd" clip-rule="evenodd" d="M69.6006 -84.5415C69.6006 -81.9947 71.6652 -79.9302 74.2119 -79.9302C76.7587 -79.9302 78.8233 -81.9947 78.8233 -84.5415V-144.489C78.8233 -147.036 76.7587 -149.1 74.2119 -149.1C71.6652 -149.1 69.6006 -147.036 69.6006 -144.489V-84.5415ZM69.6006 0C69.6006 2.54678 71.6652 4.61136 74.2119 4.61136C76.7587 4.61136 78.8233 2.54678 78.8233 0L78.8233 -29.9738L78.8272 -29.9736C78.9279 -32.4314 80.9522 -34.393 83.4346 -34.393C85.9171 -34.393 87.9414 -32.4314 88.0421 -29.9736L88.046 -29.9738L88.046 31.5109C88.046 34.0577 90.1106 36.1223 92.6574 36.1223C95.2041 36.1223 97.2687 34.0577 97.2687 31.5109L97.2687 -67.2489C97.2687 -69.7957 95.2041 -71.8603 92.6574 -71.8603C90.1106 -71.8603 88.046 -69.7957 88.046 -67.2489V-48.4192C88.046 -45.8724 85.9814 -43.8079 83.4346 -43.8079C80.8879 -43.8079 78.8233 -45.8724 78.8233 -48.4192V-59.9476C78.8233 -62.4944 76.7587 -64.559 74.2119 -64.559C71.6652 -64.559 69.6006 -62.4944 69.6006 -59.9476L69.6006 0ZM106.492 -78.7773C106.492 -76.2305 108.556 -74.1659 111.103 -74.1659C113.65 -74.1659 115.714 -76.2305 115.714 -78.7773V-106.83C115.714 -109.376 113.65 -111.441 111.103 -111.441C108.556 -111.441 106.492 -109.376 106.492 -106.83V-78.7773ZM106.492 31.5109C106.492 34.0577 108.556 36.1223 111.103 36.1223C113.65 36.1223 115.714 34.0577 115.714 31.5109L115.714 3.45853C115.714 0.911743 113.65 -1.15283 111.103 -1.15283C108.556 -1.15283 106.492 0.911743 106.492 3.45853L106.492 31.5109ZM111.103 132.961C108.556 132.961 106.492 130.896 106.492 128.349V64.559C106.492 62.0122 108.556 59.9476 111.103 59.9476C113.65 59.9476 115.714 62.0122 115.714 64.559V128.349C115.714 130.896 113.65 132.961 111.103 132.961ZM78.8233 59.9476C78.8233 62.4944 80.8879 64.5589 83.4346 64.5589C85.9814 64.5589 88.046 62.4944 88.046 59.9476V56.4891C88.046 53.9423 90.1106 51.8777 92.6574 51.8777C95.2041 51.8777 97.2687 53.9423 97.2687 56.4891V155.249C97.2687 157.796 95.2041 159.86 92.6574 159.86C90.1106 159.86 88.046 157.796 88.046 155.249V78.393L88.0421 78.3932C87.9414 75.9354 85.9171 73.9738 83.4346 73.9738C80.9522 73.9738 78.9279 75.9354 78.8272 78.3932L78.8233 78.393V87.6157C78.8233 90.1625 76.7587 92.2271 74.2119 92.2271C71.6652 92.2271 69.6006 90.1625 69.6006 87.6157V27.6681C69.6006 25.1213 71.6652 23.0568 74.2119 23.0568C76.7587 23.0568 78.8233 25.1213 78.8233 27.6681V59.9476ZM74.2119 174.463C71.6652 174.463 69.6006 172.398 69.6006 169.852V109.904C69.6006 107.357 71.6652 105.293 74.2119 105.293C76.7587 105.293 78.8233 107.357 78.8233 109.904V169.852C78.8233 172.398 76.7587 174.463 74.2119 174.463Z" fill="#50DECD"/>
</g>
<mask id="mask2_54_9" style="mask-type:luminance" maskUnits="userSpaceOnUse" x="0" y="0" width="176" height="176">
<circle cx="88" cy="88" r="88" fill="white"/>
</mask>
<g mask="url(#mask2_54_9)">
<path fill-rule="evenodd" clip-rule="evenodd" d="M60.3779 -97.2227C60.3779 -94.6759 58.3134 -92.6113 55.7666 -92.6113C53.2198 -92.6113 51.1552 -94.6759 51.1552 -97.2227V-157.17C51.1552 -159.717 53.2198 -161.782 55.7666 -161.782C58.3134 -161.782 60.3779 -159.717 60.3779 -157.17L60.3779 -97.2227ZM60.3779 -12.6812C60.3779 -10.1344 58.3134 -8.06987 55.7666 -8.06987C53.2198 -8.06987 51.1552 -10.1344 51.1552 -12.6812V-42.655L51.1513 -42.6549C51.0506 -45.1126 49.0263 -47.0742 46.5439 -47.0742C44.0614 -47.0742 42.0371 -45.1126 41.9364 -42.6549L41.9325 -42.655L41.9325 18.8297C41.9325 21.3765 39.8679 23.4411 37.3212 23.4411C34.7744 23.4411 32.7098 21.3765 32.7098 18.8297L32.7098 -79.9301C32.7098 -82.4769 34.7744 -84.5415 37.3212 -84.5415C39.8679 -84.5415 41.9325 -82.4769 41.9325 -79.9301L41.9325 -61.1004C41.9325 -58.5536 43.9971 -56.4891 46.5439 -56.4891C49.0906 -56.4891 51.1552 -58.5536 51.1552 -61.1004V-72.6288C51.1552 -75.1756 53.2198 -77.2402 55.7666 -77.2402C58.3134 -77.2402 60.3779 -75.1756 60.3779 -72.6288V-12.6812ZM23.4873 -91.4585C23.4873 -88.9117 21.4227 -86.8472 18.8759 -86.8472C16.3292 -86.8472 14.2646 -88.9117 14.2646 -91.4585L14.2646 -119.511C14.2646 -122.058 16.3292 -124.122 18.8759 -124.122C21.4227 -124.122 23.4873 -122.058 23.4873 -119.511L23.4873 -91.4585ZM23.4873 18.8297C23.4873 21.3765 21.4227 23.441 18.8759 23.441C16.3292 23.441 14.2646 21.3765 14.2646 18.8297L14.2646 -9.2227C14.2646 -11.7695 16.3292 -13.8341 18.8759 -13.8341C21.4227 -13.8341 23.4873 -11.7695 23.4873 -9.2227L23.4873 18.8297ZM18.8759 120.279C21.4227 120.279 23.4873 118.215 23.4873 115.668V51.8777C23.4873 49.3309 21.4227 47.2664 18.8759 47.2664C16.3292 47.2664 14.2646 49.3309 14.2646 51.8777V115.668C14.2646 118.215 16.3292 120.279 18.8759 120.279ZM51.1552 47.2664C51.1552 49.8132 49.0906 51.8777 46.5439 51.8777C43.9971 51.8777 41.9325 49.8132 41.9325 47.2664V43.8079C41.9325 41.2611 39.8679 39.1965 37.3212 39.1965C34.7744 39.1965 32.7098 41.2611 32.7098 43.8079V142.568C32.7098 145.114 34.7744 147.179 37.3212 147.179C39.8679 147.179 41.9325 145.114 41.9325 142.568V65.7118L41.9364 65.7119C42.0371 63.2542 44.0614 61.2926 46.5439 61.2926C49.0263 61.2926 51.0506 63.2542 51.1513 65.7119L51.1552 65.7118V74.9345C51.1552 77.4813 53.2198 79.5459 55.7666 79.5459C58.3134 79.5459 60.3779 77.4813 60.3779 74.9345V14.9869C60.3779 12.4401 58.3134 10.3755 55.7666 10.3755C53.2198 10.3755 51.1552 12.4401 51.1552 14.9869V47.2664ZM55.7666 161.782C58.3134 161.782 60.3779 159.717 60.3779 157.17L60.3779 97.2227C60.3779 94.6759 58.3134 92.6114 55.7666 92.6114C53.2198 92.6114 51.1552 94.6759 51.1552 97.2227L51.1552 157.17C51.1552 159.717 53.2198 161.782 55.7666 161.782Z" fill="#77FFF5"/>
</g>
<mask id="mask3_54_9" style="mask-type:luminance" maskUnits="userSpaceOnUse" x="0" y="0" width="176" height="176">
<circle cx="88" cy="88" r="88" fill="white"/>
</mask>
<g mask="url(#mask3_54_9)">
<rect opacity="0.0775757" x="88" width="88" height="176" fill="black"/>
</g>
<path fill-rule="evenodd" clip-rule="evenodd" d="M88 172.926C134.903 172.926 172.926 134.903 172.926 88C172.926 41.0968 134.903 3.07422 88 3.07422V172.926Z" fill="#138B83"/>
<mask id="mask4_54_9" style="mask-type:luminance" maskUnits="userSpaceOnUse" x="88" y="3" width="85" height="170">
<path fill-rule="evenodd" clip-rule="evenodd" d="M88 172.926C134.903 172.926 172.926 134.903 172.926 88C172.926 41.0968 134.903 3.07422 88 3.07422V172.926Z" fill="white"/>
</mask>
<g mask="url(#mask4_54_9)">
<circle cx="88.3841" cy="87.9999" r="55.7205" fill="#1BB9AE"/>
<circle cx="87.8079" cy="88.1921" r="12.4891" fill="#06504C"/>
</g>
</svg>
