<svg width="129" height="129" viewBox="0 0 129 129" fill="none" xmlns="http://www.w3.org/2000/svg">
<circle cx="64.5" cy="64.5" r="64.5" fill="#FF6A45"/>
<mask id="mask0_0_1190" style="mask-type:luminance" maskUnits="userSpaceOnUse" x="0" y="0" width="129" height="129">
<circle cx="64.5" cy="64.5" r="64.5" fill="white"/>
</mask>
<g mask="url(#mask0_0_1190)">
<path fill-rule="evenodd" clip-rule="evenodd" d="M34.5537 9.21429C37.0981 9.21429 39.1608 11.277 39.1608 13.8214C39.1608 16.3659 37.0981 18.4286 34.5537 18.4286H15.7412C13.1967 18.4286 11.134 20.4913 11.134 23.0357C11.134 25.5802 13.1967 27.6429 15.7412 27.6429H64.5001C67.0446 27.6429 69.1072 25.5802 69.1072 23.0357C69.1072 20.4913 67.0446 18.4286 64.5001 18.4286H59.509L59.5086 18.4246C57.0534 18.3237 55.094 16.3014 55.094 13.8214C55.094 11.3414 57.0534 9.31912 59.5086 9.21823L59.509 9.21429H81.009C83.5535 9.21429 85.6162 7.1516 85.6162 4.60714C85.6162 2.06269 83.5535 0 81.009 0H21.1162C18.5717 0 16.509 2.06269 16.509 4.60714C16.509 7.1516 18.5717 9.21429 21.1162 9.21429H34.5537ZM109.804 23.0357C109.804 20.4913 107.741 18.4286 105.197 18.4286H103.277C100.732 18.4286 98.6697 20.4913 98.6697 23.0357C98.6697 25.5802 100.732 27.6429 103.277 27.6429H105.197C107.741 27.6429 109.804 25.5802 109.804 23.0357Z" fill="#FF9B6B"/>
</g>
<mask id="mask1_0_1190" style="mask-type:luminance" maskUnits="userSpaceOnUse" x="0" y="0" width="129" height="129">
<circle cx="64.5" cy="64.5" r="64.5" fill="white"/>
</mask>
<g mask="url(#mask1_0_1190)">
<path fill-rule="evenodd" clip-rule="evenodd" d="M75.634 119.786C78.1785 119.786 80.2411 121.848 80.2411 124.393C80.2411 126.937 78.1785 129 75.634 129H56.8215C54.277 129 52.2144 131.063 52.2144 133.607C52.2144 136.151 54.277 138.214 56.8215 138.214H105.58C108.125 138.214 110.188 136.151 110.188 133.607C110.188 131.063 108.125 129 105.58 129H100.589L100.589 128.996C98.1338 128.895 96.1743 126.873 96.1743 124.393C96.1743 121.913 98.1338 119.89 100.589 119.79L100.589 119.786H122.089C124.634 119.786 126.696 117.723 126.696 115.178C126.696 112.634 124.634 110.571 122.089 110.571H62.1965C59.652 110.571 57.5894 112.634 57.5894 115.178C57.5894 117.723 59.652 119.786 62.1965 119.786H75.634ZM150.884 133.607C150.884 131.063 148.821 129 146.277 129H144.357C141.813 129 139.75 131.063 139.75 133.607C139.75 136.151 141.813 138.214 144.357 138.214H146.277C148.821 138.214 150.884 136.151 150.884 133.607Z" fill="#FF9B6B"/>
</g>
<mask id="mask2_0_1190" style="mask-type:luminance" maskUnits="userSpaceOnUse" x="0" y="0" width="129" height="129">
<circle cx="64.5" cy="64.5" r="64.5" fill="white"/>
</mask>
<g mask="url(#mask2_0_1190)">
<path fill-rule="evenodd" clip-rule="evenodd" d="M53.366 27.6431C55.9105 27.6431 57.9732 29.7058 57.9732 32.2502C57.9732 34.7947 55.9105 36.8574 53.366 36.8574H38.0089C35.4644 36.8574 33.4018 34.7947 33.4018 32.2502C33.4018 29.7058 35.4644 27.6431 38.0089 27.6431H53.366ZM100.973 64.5002C103.518 64.5002 105.58 66.5629 105.58 69.1074C105.58 71.6518 103.518 73.7145 100.973 73.7145H43L42.9996 73.7184C40.5444 73.8193 38.5849 75.8417 38.5849 78.3216C38.5849 80.8016 40.5444 82.824 42.9996 82.9248L43 82.9288H50.2946C52.8391 82.9288 54.9017 84.9915 54.9017 87.5359C54.9017 90.0804 52.8391 92.1431 50.2946 92.1431H4.22318C1.67872 92.1431 -0.383964 90.0804 -0.383964 87.5359C-0.383964 84.9915 1.67872 82.9288 4.22318 82.9288H16.5089C19.0533 82.9288 21.116 80.8661 21.116 78.3216C21.116 75.7772 19.0533 73.7145 16.5089 73.7145H-8.06253C-10.607 73.7145 -12.6697 71.6518 -12.6697 69.1074C-12.6697 66.5629 -10.607 64.5002 -8.06253 64.5002H100.973ZM43 105.964C43 103.42 40.9373 101.357 38.3928 101.357H30.7143C28.1698 101.357 26.1071 103.42 26.1071 105.964C26.1071 108.509 28.1698 110.572 30.7143 110.572H38.3928C40.9373 110.572 43 108.509 43 105.964ZM87.9196 105.964C87.9196 103.42 85.8569 101.357 83.3125 101.357H59.5089C56.9644 101.357 54.9017 103.42 54.9017 105.964C54.9017 108.509 56.9644 110.572 59.5089 110.572H83.3125C85.8569 110.572 87.9196 108.509 87.9196 105.964ZM85.616 87.5359C85.616 84.9915 83.5534 82.9288 81.0089 82.9288H73.3303C70.7859 82.9288 68.7232 84.9915 68.7232 87.5359C68.7232 90.0804 70.7859 92.1431 73.3303 92.1431H81.0089C83.5534 92.1431 85.616 90.0804 85.616 87.5359ZM138.214 32.2502C138.214 29.7058 136.152 27.6431 133.607 27.6431H118.25C115.706 27.6431 113.643 29.7058 113.643 32.2502C113.643 34.7947 115.706 36.8574 118.25 36.8574H133.607C136.152 36.8574 138.214 34.7947 138.214 32.2502Z" fill="#D04237"/>
</g>
<mask id="mask3_0_1190" style="mask-type:luminance" maskUnits="userSpaceOnUse" x="0" y="0" width="129" height="129">
<circle cx="64.5" cy="64.5" r="64.5" fill="white"/>
</mask>
<g mask="url(#mask3_0_1190)">
<rect opacity="0.0775757" x="64.884" y="-6.14307" width="70.6429" height="141.286" fill="black"/>
</g>
</svg>
