<svg width="184" height="184" viewBox="0 0 184 184" fill="none" xmlns="http://www.w3.org/2000/svg">
<circle cx="92" cy="92" r="92" fill="#DEF4FC"/>
<mask id="mask0_0_4261" style="mask-type:luminance" maskUnits="userSpaceOnUse" x="0" y="0" width="184" height="184">
<circle cx="92" cy="92" r="92" fill="white"/>
</mask>
<g mask="url(#mask0_0_4261)">
<path fill-rule="evenodd" clip-rule="evenodd" d="M163.062 15.8618C163.062 11.6569 159.653 8.24805 155.448 8.24805H118.648C114.443 8.24805 111.035 11.6569 111.035 15.8618C111.035 20.0668 114.443 23.4756 118.648 23.4756H155.448C159.653 23.4756 163.062 20.0668 163.062 15.8618ZM46.3173 84.386C50.5223 84.386 53.9311 87.7948 53.9311 91.9998C53.9311 96.2048 50.5223 99.6136 46.3173 99.6136H44.4139C40.2089 99.6136 36.8001 103.022 36.8001 107.227C36.8001 111.432 40.2089 114.841 44.4139 114.841H123.09C127.295 114.841 130.704 111.432 130.704 107.227C130.704 103.022 127.295 99.6136 123.09 99.6136H90.0966L90.096 99.607C86.0385 99.4403 82.8003 96.0982 82.8003 91.9998C82.8003 87.9013 86.0385 84.5592 90.096 84.3925L90.0966 84.386H91.3656C95.5706 84.386 98.9794 80.9772 98.9794 76.7722C98.9794 72.5672 95.5706 69.1584 91.3656 69.1584H62.8139L62.8141 69.1519C58.7562 68.9857 55.5173 65.6434 55.5173 61.5446C55.5173 57.4458 58.7562 54.1035 62.8141 53.9373L62.8139 53.9308H75.5035C79.7085 53.9308 83.1173 50.522 83.1173 46.317C83.1173 42.112 79.7085 38.7032 75.5035 38.7032H29.1863C24.9813 38.7032 21.5725 42.112 21.5725 46.317C21.5725 50.522 24.9813 53.9308 29.1863 53.9308H32.3587C36.5637 53.9308 39.9725 57.3396 39.9725 61.5446C39.9725 65.7496 36.5637 69.1584 32.3587 69.1584H1.26907C-2.93592 69.1584 -6.34473 72.5672 -6.34473 76.7722C-6.34473 80.9772 -2.93592 84.386 1.26907 84.386H46.3173ZM82.4829 130.069C86.6878 130.069 90.0966 133.478 90.0966 137.683C90.0966 141.888 86.6878 145.296 82.4829 145.296C78.2779 145.296 74.8691 141.888 74.8691 137.683C74.8691 133.478 78.2779 130.069 82.4829 130.069ZM159.89 137.683C159.89 133.478 156.481 130.069 152.276 130.069H112.938C108.733 130.069 105.324 133.478 105.324 137.683C105.324 141.888 108.733 145.296 112.938 145.296H152.276C156.481 145.296 159.89 141.888 159.89 137.683ZM105.324 168.138C105.324 163.933 101.915 160.524 97.7104 160.524H85.0208C80.8158 160.524 77.407 163.933 77.407 168.138C77.407 172.343 80.8158 175.751 85.0208 175.751H97.7104C101.915 175.751 105.324 172.343 105.324 168.138ZM155.448 99.6136C159.653 99.6136 163.062 103.022 163.062 107.227C163.062 111.432 159.653 114.841 155.448 114.841C151.243 114.841 147.835 111.432 147.835 107.227C147.835 103.022 151.243 99.6136 155.448 99.6136ZM21.5725 107.227C21.5725 103.022 18.1637 99.6136 13.9587 99.6136H1.26907C-2.93592 99.6136 -6.34473 103.022 -6.34473 107.227C-6.34473 111.432 -2.93592 114.841 1.26907 114.841H13.9587C18.1637 114.841 21.5725 111.432 21.5725 107.227ZM140.221 38.7032C144.426 38.7032 147.835 42.112 147.835 46.317C147.835 50.522 144.426 53.9308 140.221 53.9308H127.531C123.326 53.9308 119.917 50.522 119.917 46.317C119.917 42.112 123.326 38.7032 127.531 38.7032H140.221Z" fill="#B1D5E2"/>
</g>
<mask id="mask1_0_4261" style="mask-type:luminance" maskUnits="userSpaceOnUse" x="0" y="0" width="184" height="184">
<circle cx="92" cy="92" r="92" fill="white"/>
</mask>
<g mask="url(#mask1_0_4261)">
<rect opacity="0.0775757" x="92.6343" width="92" height="184" fill="black"/>
</g>
</svg>
