<svg width="184" height="184" viewBox="0 0 184 184" fill="none" xmlns="http://www.w3.org/2000/svg">
<circle cx="92" cy="92" r="92" fill="#DEF4FC"/>
<mask id="mask0_54_2" style="mask-type:luminance" maskUnits="userSpaceOnUse" x="0" y="0" width="184" height="184">
<circle cx="92" cy="92" r="92" fill="white"/>
</mask>
<g mask="url(#mask0_54_2)">
<path fill-rule="evenodd" clip-rule="evenodd" d="M163.062 15.8621C163.062 11.6571 159.653 8.24829 155.448 8.24829H118.648C114.443 8.24829 111.034 11.6571 111.034 15.8621C111.034 20.0671 114.443 23.4759 118.648 23.4759H155.448C159.653 23.4759 163.062 20.0671 163.062 15.8621ZM46.3173 84.3862C50.5223 84.3862 53.9311 87.795 53.9311 92C53.9311 96.205 50.5223 99.6138 46.3173 99.6138H44.4139C40.2089 99.6138 36.8001 103.023 36.8001 107.228C36.8001 111.433 40.2089 114.841 44.4139 114.841H123.09C127.295 114.841 130.704 111.433 130.704 107.228C130.704 103.023 127.295 99.6138 123.09 99.6138H90.0966L90.096 99.6073C86.0385 99.4405 82.8003 96.0984 82.8003 92C82.8003 87.9016 86.0385 84.5594 90.096 84.3927L90.0966 84.3862H91.3656C95.5706 84.3862 98.9794 80.9774 98.9794 76.7724C98.9794 72.5674 95.5706 69.1586 91.3656 69.1586H62.8139L62.8141 69.1521C58.7562 68.9859 55.5173 65.6436 55.5173 61.5448C55.5173 57.446 58.7562 54.1037 62.8141 53.9375L62.8139 53.931H75.5036C79.7085 53.931 83.1173 50.5222 83.1173 46.3172C83.1173 42.1123 79.7085 38.7034 75.5036 38.7034H29.1863C24.9813 38.7034 21.5725 42.1123 21.5725 46.3172C21.5725 50.5222 24.9813 53.931 29.1863 53.931H32.3587C36.5637 53.931 39.9725 57.3398 39.9725 61.5448C39.9725 65.7498 36.5637 69.1586 32.3587 69.1586H1.26907C-2.93591 69.1586 -6.34473 72.5674 -6.34473 76.7724C-6.34473 80.9774 -2.93591 84.3862 1.26907 84.3862H46.3173ZM82.4829 130.069C86.6879 130.069 90.0967 133.478 90.0967 137.683C90.0967 141.888 86.6879 145.297 82.4829 145.297C78.278 145.297 74.8691 141.888 74.8691 137.683C74.8691 133.478 78.278 130.069 82.4829 130.069ZM159.89 137.683C159.89 133.478 156.481 130.069 152.276 130.069H112.938C108.733 130.069 105.324 133.478 105.324 137.683C105.324 141.888 108.733 145.297 112.938 145.297H152.276C156.481 145.297 159.89 141.888 159.89 137.683ZM105.324 168.138C105.324 163.933 101.915 160.524 97.7102 160.524H85.0205C80.8156 160.524 77.4067 163.933 77.4067 168.138C77.4067 172.343 80.8156 175.752 85.0205 175.752H97.7102C101.915 175.752 105.324 172.343 105.324 168.138ZM155.448 99.6138C159.653 99.6138 163.062 103.023 163.062 107.228C163.062 111.433 159.653 114.841 155.448 114.841C151.243 114.841 147.834 111.433 147.834 107.228C147.834 103.023 151.243 99.6138 155.448 99.6138ZM21.5725 107.228C21.5725 103.023 18.1637 99.6138 13.9587 99.6138H1.26907C-2.93591 99.6138 -6.34473 103.023 -6.34473 107.228C-6.34473 111.433 -2.93591 114.841 1.26907 114.841H13.9587C18.1637 114.841 21.5725 111.433 21.5725 107.228ZM140.221 38.7034C144.426 38.7034 147.835 42.1123 147.835 46.3172C147.835 50.5222 144.426 53.931 140.221 53.931H127.531C123.326 53.931 119.917 50.5222 119.917 46.3172C119.917 42.1123 123.326 38.7034 127.531 38.7034H140.221Z" fill="#B1D5E2"/>
</g>
<mask id="mask1_54_2" style="mask-type:luminance" maskUnits="userSpaceOnUse" x="0" y="0" width="184" height="184">
<circle cx="92" cy="92" r="92" fill="white"/>
</mask>
<g mask="url(#mask1_54_2)">
<rect opacity="0.0775757" x="92.6343" width="92" height="184" fill="black"/>
</g>
<path fill-rule="evenodd" clip-rule="evenodd" d="M180.827 91.8109V92.1891C180.725 140.81 141.279 180.193 92.6345 180.193C92.6344 180.193 92.6343 180.193 92.6343 180.193V3.80688C92.6343 3.80688 92.6344 3.80688 92.6345 3.80688C141.279 3.80688 180.725 43.1901 180.827 91.8109Z" fill="#7A939C"/>
<mask id="mask2_54_2" style="mask-type:luminance" maskUnits="userSpaceOnUse" x="92" y="3" width="89" height="178">
<path fill-rule="evenodd" clip-rule="evenodd" d="M180.827 91.8109V92.1891C180.725 140.81 141.279 180.193 92.6345 180.193C92.6344 180.193 92.6343 180.193 92.6343 180.193V3.80688C92.6343 3.80688 92.6344 3.80688 92.6345 3.80688C141.279 3.80688 180.725 43.1901 180.827 91.8109Z" fill="white"/>
</mask>
<g mask="url(#mask2_54_2)">
<circle cx="93.2691" cy="92.6345" r="83.1172" fill="#9AB2BB"/>
<circle cx="93.269" cy="92" r="60.2759" fill="#E8903F"/>
<circle cx="92.9516" cy="92.3172" r="26.331" fill="#FFEA87"/>
</g>
</svg>
