<svg width="173" height="173" viewBox="0 0 173 173" fill="none" xmlns="http://www.w3.org/2000/svg">
<circle cx="86.5" cy="86.5" r="86.5" fill="#545BFE"/>
<mask id="mask0_54_4" style="mask-type:luminance" maskUnits="userSpaceOnUse" x="0" y="0" width="173" height="173">
<circle cx="86.5" cy="86.5" r="86.5" fill="white"/>
</mask>
<g mask="url(#mask0_54_4)">
<path fill-rule="evenodd" clip-rule="evenodd" d="M72.2756 10.3801C72.2756 7.83218 70.2101 5.76672 67.6622 5.76672H-11.1489C-13.6967 5.76672 -15.7622 7.83218 -15.7622 10.3801C-15.7622 12.9279 -13.6967 14.9934 -11.1489 14.9934H7.30446C9.85233 14.9934 11.9178 17.0589 11.9178 19.6067C11.9178 22.1546 9.85233 24.2201 7.30446 24.2201H4.99779C2.44992 24.2201 0.38446 26.2855 0.38446 28.8334C0.38446 31.3813 2.44992 33.4467 4.99779 33.4467H3.46001C6.00789 33.4467 8.07335 35.5122 8.07335 38.0601C8.07335 40.6079 6.00789 42.6734 3.46001 42.6734H-0.384429C-2.9323 42.6734 -4.99776 44.7388 -4.99776 47.2867C-4.99776 49.8346 -2.9323 51.9001 -0.384429 51.9001H45.3645C47.9123 51.9001 49.9778 49.8346 49.9778 47.2867C49.9778 44.7388 47.9123 42.6734 45.3645 42.6734H43.4422L43.4422 42.6695C40.9836 42.5686 39.0212 40.5435 39.0212 38.0601C39.0212 35.5766 40.9836 33.5515 43.4422 33.4507L43.4422 33.4467H69.9689C72.5168 33.4467 74.5822 31.3813 74.5822 28.8334C74.5822 26.2855 72.5168 24.2201 69.9689 24.2201H67.2778L67.2778 24.2161C64.8191 24.1153 62.8568 22.0902 62.8568 19.6067C62.8568 17.1233 64.8191 15.0982 67.2778 14.9973L67.2778 14.9934H67.6622C70.2101 14.9934 72.2756 12.9279 72.2756 10.3801ZM37.6756 61.1267C40.2234 61.1267 42.2889 63.1921 42.2889 65.74C42.2889 68.2879 40.2234 70.3533 37.6756 70.3533C35.1277 70.3533 33.0622 68.2879 33.0622 65.74C33.0622 63.1921 35.1277 61.1267 37.6756 61.1267ZM23.4511 74.9667C23.4511 72.4188 21.3857 70.3533 18.8378 70.3533H5.38222C2.83435 70.3533 0.768888 72.4188 0.768888 74.9667C0.768888 77.5145 2.83435 79.58 5.38222 79.58H18.8378C21.3857 79.58 23.4511 77.5145 23.4511 74.9667ZM56.1289 130.327C56.1289 132.875 54.0634 134.94 51.5156 134.94H53.4378C50.8899 134.94 48.8244 137.005 48.8244 139.553C48.8244 142.101 50.8899 144.167 53.4378 144.167H64.5867C67.1345 144.167 69.2 142.101 69.2 139.553C69.2 137.005 67.1345 134.94 64.5867 134.94H66.1244V134.936C63.6658 134.835 61.7034 132.81 61.7034 130.327C61.7034 127.843 63.6658 125.818 66.1244 125.717V125.713H76.5044C79.0523 125.713 81.1178 123.648 81.1178 121.1C81.1178 118.552 79.0523 116.487 76.5044 116.487L76.5044 116.483C74.0458 116.382 72.0834 114.357 72.0834 111.873C72.0834 109.39 74.0458 107.365 76.5044 107.264L76.5044 107.26H78.8111C81.359 107.26 83.4244 105.195 83.4244 102.647C83.4244 100.099 81.359 98.0333 78.8111 98.0333H59.2044V98.0294C56.7458 97.9286 54.7834 95.9035 54.7834 93.42C54.7834 90.9366 56.7458 88.9114 59.2044 88.8106V88.8067H58.4356C60.9834 88.8067 63.0489 86.7412 63.0489 84.1933C63.0489 81.6455 60.9834 79.58 58.4356 79.58H39.5978C37.0499 79.58 34.9844 81.6455 34.9844 84.1933C34.9844 86.7412 37.0499 88.8067 39.5978 88.8067C42.1456 88.8067 44.2111 90.8721 44.2111 93.42C44.2111 95.9679 42.1456 98.0333 39.5978 98.0333C37.0499 98.0333 34.9844 100.099 34.9844 102.647C34.9844 105.195 37.0499 107.26 39.5978 107.26H43.4422C45.9901 107.26 48.0556 109.325 48.0556 111.873C48.0556 114.421 45.9901 116.487 43.4422 116.487H44.2111C41.6632 116.487 39.5978 118.552 39.5978 121.1C39.5978 123.648 41.6632 125.713 44.2111 125.713H51.5156C54.0634 125.713 56.1289 127.779 56.1289 130.327Z" fill="#4FCDF9"/>
</g>
<mask id="mask1_54_4" style="mask-type:luminance" maskUnits="userSpaceOnUse" x="0" y="0" width="173" height="173">
<circle cx="86.5" cy="86.5" r="86.5" fill="white"/>
</mask>
<g mask="url(#mask1_54_4)">
<path fill-rule="evenodd" clip-rule="evenodd" d="M162.236 19.6066C162.236 17.0587 160.17 14.9933 157.622 14.9933H148.396C145.848 14.9933 143.782 17.0587 143.782 19.6066C143.782 22.1545 145.848 24.22 148.396 24.22H157.622C160.17 24.22 162.236 22.1545 162.236 19.6066ZM253.733 24.22C256.281 24.22 258.347 26.2854 258.347 28.8333C258.347 31.3812 256.281 33.4466 253.733 33.4466H251.042L251.042 33.4506C248.584 33.5514 246.621 35.5765 246.621 38.06C246.621 40.5434 248.584 42.5685 251.042 42.6694L251.042 42.6733H257.193C259.741 42.6733 261.807 44.7387 261.807 47.2866C261.807 49.8345 259.741 51.9 257.193 51.9H190.3C187.752 51.9 185.687 49.8345 185.687 47.2866C185.687 44.7387 187.752 42.6733 190.3 42.6733H188.378C190.926 42.6733 192.991 40.6078 192.991 38.06C192.991 35.5121 190.926 33.4466 188.378 33.4466H172.616C170.068 33.4466 168.002 31.3812 168.002 28.8333C168.002 26.2854 170.068 24.22 172.616 24.22H253.733ZM149.933 125.713C152.481 125.713 154.547 123.648 154.547 121.1C154.547 118.552 152.481 116.487 149.933 116.487C147.385 116.487 145.32 114.421 145.32 111.873C145.32 109.325 147.385 107.26 149.933 107.26H148.78C151.328 107.26 153.393 105.194 153.393 102.647C153.393 100.099 151.328 98.0333 148.78 98.0333H131.48C128.932 98.0333 126.867 95.9678 126.867 93.42C126.867 90.8721 128.932 88.8066 131.48 88.8066C134.028 88.8066 136.093 86.7412 136.093 84.1933C136.093 81.6454 134.028 79.58 131.48 79.58H118.409C115.861 79.58 113.796 77.5145 113.796 74.9666C113.796 72.4187 115.861 70.3533 118.409 70.3533H128.404C130.952 70.3533 133.018 68.2878 133.018 65.74C133.018 63.1921 130.952 61.1266 128.404 61.1266C125.857 61.1266 123.791 59.0612 123.791 56.5133C123.791 53.9654 125.857 51.9 128.404 51.9H149.933C152.481 51.9 154.547 53.9654 154.547 56.5133C154.547 59.0612 152.481 61.1266 149.933 61.1266L149.933 61.1306C147.474 61.2316 145.512 63.2566 145.512 65.74C145.512 68.2233 147.474 70.2483 149.933 70.3493L149.933 70.3533H184.918C187.466 70.3533 189.531 72.4187 189.531 74.9666C189.531 77.5145 187.466 79.58 184.918 79.58H177.229L177.229 79.5839C174.77 79.6847 172.808 81.7098 172.808 84.1933C172.808 86.6767 174.77 88.7019 177.229 88.8027L177.229 88.8066H181.073C183.621 88.8066 185.687 90.8721 185.687 93.42C185.687 95.9678 183.621 98.0333 181.073 98.0333H175.307L175.306 98.0372C172.848 98.1383 170.886 100.163 170.886 102.647C170.886 105.13 172.848 107.155 175.306 107.256L175.307 107.26H174.538C177.086 107.26 179.151 109.325 179.151 111.873C179.151 114.421 177.086 116.487 174.538 116.487H166.849L166.849 116.491C164.39 116.591 162.428 118.617 162.428 121.1C162.428 123.583 164.39 125.609 166.849 125.709L166.849 125.713H165.311C167.859 125.713 169.924 127.779 169.924 130.327C169.924 132.874 167.859 134.94 165.311 134.94H151.471C148.923 134.94 146.858 132.874 146.858 130.327C146.858 127.779 148.923 125.713 151.471 125.713H149.933ZM184.533 116.487C187.081 116.487 189.147 118.552 189.147 121.1C189.147 123.648 187.081 125.713 184.533 125.713C181.985 125.713 179.92 123.648 179.92 121.1C179.92 118.552 181.985 116.487 184.533 116.487ZM182.227 56.5133C182.227 53.9654 180.161 51.9 177.613 51.9H172.231C169.683 51.9 167.618 53.9654 167.618 56.5133C167.618 59.0612 169.683 61.1266 172.231 61.1266H177.613C180.161 61.1266 182.227 59.0612 182.227 56.5133ZM142.629 38.06C142.629 35.5121 140.563 33.4466 138.016 33.4466H128.789C126.241 33.4466 124.176 35.5121 124.176 38.06C124.176 40.6078 126.241 42.6733 128.789 42.6733H138.016C140.563 42.6733 142.629 40.6078 142.629 38.06ZM152.624 33.4466C155.172 33.4466 157.238 35.5121 157.238 38.06C157.238 40.6078 155.172 42.6733 152.624 42.6733H151.471C148.923 42.6733 146.858 40.6078 146.858 38.06C146.858 35.5121 148.923 33.4466 151.471 33.4466H152.624Z" fill="#4FCDF9"/>
</g>
<mask id="mask2_54_4" style="mask-type:luminance" maskUnits="userSpaceOnUse" x="0" y="0" width="173" height="173">
<circle cx="86.5" cy="86.5" r="86.5" fill="white"/>
</mask>
<g mask="url(#mask2_54_4)">
<path fill-rule="evenodd" clip-rule="evenodd" d="M186.84 -8.07331C186.84 -10.6212 184.775 -12.6866 182.227 -12.6866H122.253C119.705 -12.6866 117.64 -10.6212 117.64 -8.07331C117.64 -5.52544 119.705 -3.45998 122.253 -3.45998H182.227C184.775 -3.45998 186.84 -5.52544 186.84 -8.07331ZM118.024 19.6067C118.024 17.0588 115.959 14.9934 113.411 14.9934H67.2778C64.7299 14.9934 62.6644 12.9279 62.6644 10.38C62.6644 7.83217 64.7299 5.76671 67.2778 5.76671H86.1155C88.6634 5.76671 90.7289 3.70125 90.7289 1.15338C90.7289 -1.3945 88.6634 -3.45996 86.1155 -3.45996H79.9644C77.4166 -3.45996 75.3511 -5.52542 75.3511 -8.07329C75.3511 -10.6212 77.4166 -12.6866 79.9644 -12.6866H103.8C106.348 -12.6866 108.413 -10.6212 108.413 -8.07329C108.413 -5.52542 106.348 -3.45996 103.8 -3.45996H104.569L104.569 -3.45603C102.11 -3.35533 100.148 -1.33016 100.148 1.15338C100.148 3.63691 102.11 5.66208 104.569 5.76278L104.569 5.76671H166.08C168.628 5.76671 170.693 7.83217 170.693 10.38C170.693 12.9279 168.628 14.9934 166.08 14.9934H139.938L139.937 14.9973C137.479 15.0983 135.517 17.1234 135.517 19.6067C135.517 22.09 137.479 24.1151 139.937 24.2161L139.938 24.22H141.091C143.639 24.22 145.704 26.2855 145.704 28.8334C145.704 31.3813 143.639 33.4467 141.091 33.4467H111.873C109.325 33.4467 107.26 31.3813 107.26 28.8334C107.26 26.2855 109.325 24.22 111.873 24.22H113.411C115.959 24.22 118.024 22.1546 118.024 19.6067ZM158.776 42.6734C161.323 42.6734 163.389 44.7388 163.389 47.2867C163.389 49.8346 161.323 51.9 158.776 51.9H134.94C132.392 51.9 130.327 49.8346 130.327 47.2867C130.327 44.7388 132.392 42.6734 134.94 42.6734H158.776ZM171.847 28.8334C171.847 26.2855 169.781 24.22 167.233 24.22H159.544C156.997 24.22 154.931 26.2855 154.931 28.8334C154.931 31.3812 156.997 33.4467 159.544 33.4467H167.233C169.781 33.4467 171.847 31.3812 171.847 28.8334ZM93.42 24.22C95.9679 24.22 98.0333 26.2855 98.0333 28.8334C98.0333 31.3812 95.9679 33.4467 93.42 33.4467H85.7311C83.1832 33.4467 81.1178 31.3812 81.1178 28.8334C81.1178 26.2855 83.1832 24.22 85.7311 24.22H93.42Z" fill="white"/>
</g>
<mask id="mask3_54_4" style="mask-type:luminance" maskUnits="userSpaceOnUse" x="0" y="0" width="173" height="173">
<circle cx="86.5" cy="86.5" r="86.5" fill="white"/>
</mask>
<g mask="url(#mask3_54_4)">
<path fill-rule="evenodd" clip-rule="evenodd" d="M32.6778 134.94C35.2257 134.94 37.2911 137.005 37.2911 139.553C37.2911 142.101 35.2257 144.167 32.6778 144.167H31.14C28.5921 144.167 26.5267 146.232 26.5267 148.78C26.5267 151.328 28.5921 153.393 31.14 153.393H60.3578C62.9057 153.393 64.9711 151.328 64.9711 148.78C64.9711 146.232 62.9057 144.167 60.3578 144.167H59.2045L59.2041 144.163C56.7456 144.062 54.7834 142.037 54.7834 139.553C54.7834 137.07 56.7456 135.045 59.2041 134.944L59.2045 134.94H69.2C71.7479 134.94 73.8133 132.875 73.8133 130.327C73.8133 127.779 71.7479 125.713 69.2 125.713H63.8178L63.8179 125.709C61.3591 125.609 59.3967 123.584 59.3967 121.1C59.3967 118.616 61.3591 116.591 63.8179 116.491L63.8178 116.487H81.8867C84.4346 116.487 86.5 114.421 86.5 111.873C86.5 109.325 84.4346 107.26 81.8867 107.26H36.5222C33.9744 107.26 31.9089 109.325 31.9089 111.873C31.9089 114.421 33.9744 116.487 36.5222 116.487H45.3645C47.9123 116.487 49.9778 118.552 49.9778 121.1C49.9778 123.648 47.9123 125.713 45.3645 125.713H6.53557C3.9877 125.713 1.92224 127.779 1.92224 130.327C1.92224 132.875 3.9877 134.94 6.53557 134.94H32.6778ZM99.9556 130.327C99.9556 127.779 97.8901 125.713 95.3422 125.713H87.6533C85.1055 125.713 83.04 127.779 83.04 130.327C83.04 132.875 85.1055 134.94 87.6533 134.94H95.3422C97.8901 134.94 99.9556 132.875 99.9556 130.327Z" fill="white"/>
</g>
<mask id="mask4_54_4" style="mask-type:luminance" maskUnits="userSpaceOnUse" x="0" y="0" width="173" height="173">
<circle cx="86.5" cy="86.5" r="86.5" fill="white"/>
</mask>
<g mask="url(#mask4_54_4)">
<path fill-rule="evenodd" clip-rule="evenodd" d="M129.558 171.847C132.106 171.847 134.171 173.912 134.171 176.46C134.171 179.008 132.106 181.073 129.558 181.073H128.02C125.472 181.073 123.407 183.139 123.407 185.687C123.407 188.235 125.472 190.3 128.02 190.3H157.238C159.786 190.3 161.851 188.235 161.851 185.687C161.851 183.139 159.786 181.073 157.238 181.073H156.084L156.084 181.069C153.626 180.968 151.663 178.943 151.663 176.46C151.663 173.977 153.626 171.952 156.084 171.851L156.084 171.847H166.08C168.628 171.847 170.693 169.781 170.693 167.233C170.693 164.685 168.628 162.62 166.08 162.62H160.698L160.698 162.616C158.239 162.515 156.277 160.49 156.277 158.007C156.277 155.523 158.239 153.498 160.698 153.397L160.698 153.393H178.767C181.315 153.393 183.38 151.328 183.38 148.78C183.38 146.232 181.315 144.167 178.767 144.167H133.402C130.854 144.167 128.789 146.232 128.789 148.78C128.789 151.328 130.854 153.393 133.402 153.393H142.244C144.792 153.393 146.858 155.459 146.858 158.007C146.858 160.555 144.792 162.62 142.244 162.62H103.416C100.868 162.62 98.8022 164.685 98.8022 167.233C98.8022 169.781 100.868 171.847 103.416 171.847H129.558ZM196.836 167.233C196.836 164.685 194.77 162.62 192.222 162.62H184.533C181.985 162.62 179.92 164.685 179.92 167.233C179.92 169.781 181.985 171.847 184.533 171.847H192.222C194.77 171.847 196.836 169.781 196.836 167.233Z" fill="white"/>
</g>
<mask id="mask5_54_4" style="mask-type:luminance" maskUnits="userSpaceOnUse" x="0" y="0" width="173" height="173">
<circle cx="86.5" cy="86.5" r="86.5" fill="white"/>
</mask>
<g mask="url(#mask5_54_4)">
<rect opacity="0.0775757" x="86.6859" y="-9.61108" width="96.297" height="192.222" fill="black"/>
</g>
<path fill-rule="evenodd" clip-rule="evenodd" d="M86.5 170.309C132.786 170.309 170.309 132.786 170.309 86.5C170.309 40.2448 132.837 2.74163 86.5935 2.69116H86.5V170.309Z" fill="#2A2D80"/>
<mask id="mask6_54_4" style="mask-type:luminance" maskUnits="userSpaceOnUse" x="86" y="2" width="85" height="169">
<path fill-rule="evenodd" clip-rule="evenodd" d="M86.5 170.309C132.786 170.309 170.309 132.786 170.309 86.5C170.309 40.2448 132.837 2.74163 86.5935 2.69116H86.5V170.309Z" fill="white"/>
</mask>
<g mask="url(#mask6_54_4)">
<circle cx="87.0767" cy="87.0767" r="80.1567" fill="#952525"/>
<circle cx="87.2689" cy="86.5" r="68.4311" fill="#E0592F"/>
<circle cx="87.2689" cy="86.5001" r="41.1356" fill="#F89035"/>
<circle cx="86.8845" cy="86.8845" r="19.6067" fill="#FFF1AA"/>
</g>
</svg>
