<svg width="224" height="224" viewBox="0 0 224 224" fill="none" xmlns="http://www.w3.org/2000/svg">
<circle cx="112" cy="112" r="112" fill="#ECAD7A"/>
<mask id="mask0_54_6" style="mask-type:luminance" maskUnits="userSpaceOnUse" x="0" y="0" width="224" height="224">
<circle cx="112" cy="112" r="112" fill="white"/>
</mask>
<g mask="url(#mask0_54_6)">
<path fill-rule="evenodd" clip-rule="evenodd" d="M14.6254 113.155C17.1761 113.155 19.2439 115.222 19.2439 117.773C19.2439 120.324 17.1761 122.392 14.6254 122.392H-45.4159C-47.9666 122.392 -50.0344 120.324 -50.0344 117.773C-50.0344 115.222 -47.9666 113.155 -45.4159 113.155H14.6254ZM99.299 113.155C101.85 113.155 103.918 115.222 103.918 117.773C103.918 120.324 101.85 122.392 99.299 122.392H69.2784L69.2785 122.396C66.8169 122.497 64.8522 124.524 64.8522 127.01C64.8522 129.497 66.8169 131.524 69.2785 131.625L69.2784 131.629H130.859C133.41 131.629 135.478 133.697 135.478 136.247C135.478 138.798 133.41 140.866 130.859 140.866H31.945C29.3943 140.866 27.3265 138.798 27.3265 136.247C27.3265 133.697 29.3943 131.629 31.945 131.629H50.8041C53.3549 131.629 55.4227 129.561 55.4227 127.01C55.4227 124.46 53.3549 122.392 50.8041 122.392H39.2577C36.707 122.392 34.6392 120.324 34.6392 117.773C34.6392 115.222 36.707 113.155 39.2577 113.155H99.299ZM20.3986 150.103C22.9494 150.103 25.0172 152.171 25.0172 154.722C25.0172 157.272 22.9494 159.34 20.3986 159.34H-7.69761C-10.2484 159.34 -12.3162 157.272 -12.3162 154.722C-12.3162 152.171 -10.2484 150.103 -7.69761 150.103H20.3986ZM130.859 150.103C133.41 150.103 135.478 152.171 135.478 154.722C135.478 157.272 133.41 159.34 130.859 159.34H102.763C100.212 159.34 98.1443 157.272 98.1443 154.722C98.1443 152.171 100.212 150.103 102.763 150.103H130.859ZM232.467 154.722C232.467 152.171 230.4 150.103 227.849 150.103H163.959C161.408 150.103 159.34 152.171 159.34 154.722C159.34 157.272 161.408 159.34 163.959 159.34H227.849C230.4 159.34 232.467 157.272 232.467 154.722ZM159.34 122.392C161.891 122.392 163.959 124.46 163.959 127.01C163.959 129.561 161.891 131.629 159.34 131.629H155.876C153.326 131.629 151.258 133.697 151.258 136.247C151.258 138.798 153.326 140.866 155.876 140.866H254.79C257.341 140.866 259.409 138.798 259.409 136.247C259.409 133.697 257.341 131.629 254.79 131.629H177.814L177.815 131.625C175.353 131.524 173.388 129.497 173.388 127.01C173.388 124.524 175.353 122.497 177.815 122.396L177.814 122.392H187.052C189.602 122.392 191.67 120.324 191.67 117.773C191.67 115.222 189.602 113.155 187.052 113.155H127.01C124.46 113.155 122.392 115.222 122.392 117.773C122.392 120.324 124.46 122.392 127.01 122.392H159.34ZM274.034 117.773C274.034 115.222 271.967 113.155 269.416 113.155H209.375C206.824 113.155 204.756 115.222 204.756 117.773C204.756 120.324 206.824 122.392 209.375 122.392H269.416C271.967 122.392 274.034 120.324 274.034 117.773Z" fill="#F0D29F"/>
</g>
<mask id="mask1_54_6" style="mask-type:luminance" maskUnits="userSpaceOnUse" x="0" y="0" width="224" height="224">
<circle cx="112" cy="112" r="112" fill="white"/>
</mask>
<g mask="url(#mask1_54_6)">
<path d="M61.1959 154.722C61.1959 152.171 59.1281 150.103 56.5773 150.103H45.4158C42.865 150.103 40.7972 148.035 40.7972 145.485C40.7972 142.934 42.865 140.866 45.4158 140.866H84.2887C86.8394 140.866 88.9072 142.934 88.9072 145.485C88.9072 148.035 86.8394 150.103 84.2887 150.103H83.134L83.1336 150.107C80.6723 150.208 78.708 152.236 78.708 154.722C78.708 157.208 80.6723 159.235 83.1336 159.336L83.134 159.34H84.2887C86.8394 159.34 88.9072 161.408 88.9072 163.959C88.9072 166.51 86.8394 168.577 84.2887 168.577H55.0378C52.487 168.577 50.4192 166.51 50.4192 163.959C50.4192 161.408 52.487 159.34 55.0378 159.34H56.5773C59.1281 159.34 61.1959 157.272 61.1959 154.722Z" fill="#D86534"/>
</g>
<mask id="mask2_54_6" style="mask-type:luminance" maskUnits="userSpaceOnUse" x="0" y="0" width="224" height="224">
<circle cx="112" cy="112" r="112" fill="white"/>
</mask>
<g mask="url(#mask2_54_6)">
<path fill-rule="evenodd" clip-rule="evenodd" d="M179.354 20.7834C176.803 20.7834 174.735 22.8512 174.735 25.402C174.735 27.9528 176.803 30.0206 179.354 30.0206H239.395C241.946 30.0206 244.014 27.9528 244.014 25.402C244.014 22.8512 241.946 20.7834 239.395 20.7834H179.354ZM94.6804 20.7834C92.1297 20.7834 90.0619 22.8512 90.0619 25.402C90.0619 27.9528 92.1297 30.0206 94.6804 30.0206H124.701L124.701 30.0245C127.162 30.1253 129.127 32.1528 129.127 34.6391C129.127 37.1255 127.162 39.1529 124.701 39.2537L124.701 39.2577H63.1203C60.5695 39.2577 58.5017 41.3255 58.5017 43.8762C58.5017 46.427 60.5695 48.4948 63.1203 48.4948H162.034C164.585 48.4948 166.653 46.427 166.653 43.8762C166.653 41.3255 164.585 39.2577 162.034 39.2577H143.175C140.625 39.2577 138.557 37.1899 138.557 34.6391C138.557 32.0884 140.625 30.0206 143.175 30.0206H154.722C157.272 30.0206 159.34 27.9528 159.34 25.402C159.34 22.8512 157.272 20.7834 154.722 20.7834H94.6804ZM173.581 57.732C171.03 57.732 168.962 59.7998 168.962 62.3505C168.962 64.9013 171.03 66.9691 173.581 66.9691H201.677C204.228 66.9691 206.295 64.9013 206.295 62.3505C206.295 59.7998 204.228 57.732 201.677 57.732H173.581ZM63.1202 57.732C60.5694 57.732 58.5016 59.7998 58.5016 62.3505C58.5016 64.9013 60.5694 66.9691 63.1202 66.9691H91.2164C93.7672 66.9691 95.835 64.9013 95.835 62.3505C95.835 59.7998 93.7672 57.732 91.2164 57.732H63.1202ZM-38.488 62.3505C-38.488 59.7998 -36.4202 57.732 -33.8694 57.732H30.0206C32.5714 57.732 34.6392 59.7998 34.6392 62.3505C34.6392 64.9013 32.5714 66.9691 30.0206 66.9691H-33.8694C-36.4202 66.9691 -38.488 64.9013 -38.488 62.3505ZM34.6392 30.0206C32.0884 30.0206 30.0206 32.0884 30.0206 34.6391C30.0206 37.1899 32.0884 39.2577 34.6392 39.2577H38.1031C40.6539 39.2577 42.7216 41.3255 42.7216 43.8762C42.7216 46.427 40.6539 48.4948 38.1031 48.4948H-60.811C-63.3618 48.4948 -65.4295 46.427 -65.4295 43.8762C-65.4295 41.3255 -63.3618 39.2577 -60.811 39.2577H16.1649L16.1648 39.2537C18.6264 39.1529 20.5911 37.1255 20.5911 34.6391C20.5911 32.1528 18.6264 30.1253 16.1648 30.0245L16.1649 30.0206H6.92784C4.37708 30.0206 2.30928 27.9528 2.30928 25.402C2.30928 22.8512 4.37708 20.7834 6.92784 20.7834H66.9691C69.5198 20.7834 71.5876 22.8512 71.5876 25.402C71.5876 27.9528 69.5198 30.0206 66.9691 30.0206H34.6392ZM-80.055 25.402C-80.055 22.8512 -77.9872 20.7834 -75.4364 20.7834H-15.3952C-12.8444 20.7834 -10.7766 22.8512 -10.7766 25.402C-10.7766 27.9528 -12.8444 30.0206 -15.3952 30.0206H-75.4364C-77.9872 30.0206 -80.055 27.9528 -80.055 25.402Z" fill="#DC8E61"/>
</g>
<mask id="mask3_54_6" style="mask-type:luminance" maskUnits="userSpaceOnUse" x="0" y="0" width="224" height="224">
<circle cx="112" cy="112" r="112" fill="white"/>
</mask>
<g mask="url(#mask3_54_6)">
<path fill-rule="evenodd" clip-rule="evenodd" d="M240.165 168.577C237.614 168.577 235.546 170.645 235.546 173.196C235.546 175.747 237.614 177.814 240.165 177.814H300.206C302.757 177.814 304.825 175.747 304.825 173.196C304.825 170.645 302.757 168.577 300.206 168.577H240.165ZM155.491 168.577C152.941 168.577 150.873 170.645 150.873 173.196C150.873 175.747 152.941 177.814 155.491 177.814H185.512L185.512 177.818C187.973 177.919 189.938 179.947 189.938 182.433C189.938 184.919 187.973 186.947 185.512 187.048L185.512 187.051H123.931C121.381 187.051 119.313 189.119 119.313 191.67C119.313 194.221 121.381 196.289 123.931 196.289H222.845C225.396 196.289 227.464 194.221 227.464 191.67C227.464 189.119 225.396 187.051 222.845 187.051H203.986C201.436 187.051 199.368 184.984 199.368 182.433C199.368 179.882 201.436 177.814 203.986 177.814H215.533C218.083 177.814 220.151 175.747 220.151 173.196C220.151 170.645 218.083 168.577 215.533 168.577H155.491ZM234.392 205.526C231.841 205.526 229.773 207.594 229.773 210.144C229.773 212.695 231.841 214.763 234.392 214.763H262.488C265.039 214.763 267.106 212.695 267.106 210.144C267.106 207.594 265.039 205.526 262.488 205.526H234.392ZM123.931 205.526C121.38 205.526 119.313 207.594 119.313 210.144C119.313 212.695 121.38 214.763 123.931 214.763H152.027C154.578 214.763 156.646 212.695 156.646 210.144C156.646 207.594 154.578 205.526 152.027 205.526H123.931ZM22.3231 210.144C22.3231 207.594 24.3908 205.526 26.9416 205.526H90.8316C93.3824 205.526 95.4502 207.594 95.4502 210.144C95.4502 212.695 93.3824 214.763 90.8316 214.763H26.9416C24.3908 214.763 22.3231 212.695 22.3231 210.144ZM95.4502 177.814C92.8994 177.814 90.8316 179.882 90.8316 182.433C90.8316 184.984 92.8994 187.051 95.4502 187.051H98.9141C101.465 187.051 103.533 189.119 103.533 191.67C103.533 194.221 101.465 196.289 98.9141 196.289H0C-2.55075 196.289 -4.61856 194.221 -4.61856 191.67C-4.61856 189.119 -2.55075 187.051 0 187.051H76.9759L76.9758 187.048C79.4374 186.947 81.4021 184.919 81.4021 182.433C81.4021 179.947 79.4374 177.919 76.9758 177.818L76.9759 177.814H67.7388C65.1881 177.814 63.1203 175.747 63.1203 173.196C63.1203 170.645 65.1881 168.577 67.7388 168.577H127.78C130.331 168.577 132.399 170.645 132.399 173.196C132.399 175.747 130.331 177.814 127.78 177.814H95.4502ZM-19.244 173.196C-19.244 170.645 -17.1762 168.577 -14.6254 168.577H45.4158C47.9666 168.577 50.0344 170.645 50.0344 173.196C50.0344 175.747 47.9666 177.814 45.4158 177.814H-14.6254C-17.1762 177.814 -19.244 175.747 -19.244 173.196Z" fill="#D89D6D"/>
</g>
<mask id="mask4_54_6" style="mask-type:luminance" maskUnits="userSpaceOnUse" x="0" y="0" width="224" height="224">
<circle cx="112" cy="112" r="112" fill="white"/>
</mask>
<g mask="url(#mask4_54_6)">
<path fill-rule="evenodd" clip-rule="evenodd" d="M68.1237 85.4433C70.6745 85.4433 72.7423 87.5111 72.7423 90.0618C72.7423 92.6126 70.6745 94.6804 68.1237 94.6804H64.2749C61.7242 94.6804 59.6564 96.7482 59.6564 99.299C59.6564 101.85 61.7242 103.918 64.2749 103.918H98.5292C101.08 103.918 103.148 101.85 103.148 99.299C103.148 96.7482 101.08 94.6804 98.5292 94.6804H94.6804L94.68 94.6764C92.2187 94.5753 90.2544 92.548 90.2544 90.0618C90.2544 87.5757 92.2187 85.5484 94.68 85.4472L94.6804 85.4433H119.698C122.248 85.4433 124.316 83.3755 124.316 80.8247C124.316 78.274 122.248 76.2062 119.698 76.2062H43.1065C40.5558 76.2062 38.488 78.274 38.488 80.8247C38.488 83.3755 40.5558 85.4433 43.1065 85.4433H68.1237ZM50.4192 99.299C50.4192 96.7482 48.3514 94.6804 45.8007 94.6804H21.9381C19.3874 94.6804 17.3196 96.7482 17.3196 99.299C17.3196 101.85 19.3874 103.918 21.9381 103.918H45.8007C48.3514 103.918 50.4192 101.85 50.4192 99.299ZM3.46391 94.6804C6.01467 94.6804 8.08247 96.7482 8.08247 99.299C8.08247 101.85 6.01467 103.918 3.46391 103.918H-7.31272C-9.86348 103.918 -11.9313 101.85 -11.9313 99.299C-11.9313 96.7482 -9.86348 94.6804 -7.31272 94.6804H3.46391ZM186.282 99.299C186.282 96.7482 184.214 94.6804 181.663 94.6804H117.003C114.453 94.6804 112.385 96.7482 112.385 99.299C112.385 101.85 114.453 103.918 117.003 103.918H181.663C184.214 103.918 186.282 101.85 186.282 99.299ZM210.914 94.6804C213.465 94.6804 215.533 96.7482 215.533 99.299C215.533 101.85 213.465 103.918 210.914 103.918H200.137C197.587 103.918 195.519 101.85 195.519 99.299C195.519 96.7482 197.587 94.6804 200.137 94.6804H210.914ZM197.443 80.8247C197.443 78.274 195.376 76.2062 192.825 76.2062H138.172C135.621 76.2062 133.553 78.274 133.553 80.8247C133.553 83.3755 135.621 85.4433 138.172 85.4433H192.825C195.376 85.4433 197.443 83.3755 197.443 80.8247ZM230.543 76.2062C233.094 76.2062 235.162 78.274 235.162 80.8247C235.162 83.3755 233.094 85.4433 230.543 85.4433H211.299C208.748 85.4433 206.68 83.3755 206.68 80.8247C206.68 78.274 208.748 76.2062 211.299 76.2062H230.543ZM20.0137 80.8247C20.0137 78.274 17.9459 76.2062 15.3952 76.2062H4.61856C2.0678 76.2062 0 78.274 0 80.8247C0 83.3755 2.0678 85.4433 4.61856 85.4433H15.3952C17.9459 85.4433 20.0137 83.3755 20.0137 80.8247Z" fill="#D89D6D"/>
</g>
<mask id="mask5_54_6" style="mask-type:luminance" maskUnits="userSpaceOnUse" x="0" y="0" width="224" height="224">
<circle cx="112" cy="112" r="112" fill="white"/>
</mask>
<g mask="url(#mask5_54_6)">
<rect opacity="0.0775757" x="112" width="112.385" height="224" fill="black"/>
</g>
<path fill-rule="evenodd" clip-rule="evenodd" d="M112 222.076C172.793 222.076 222.076 172.793 222.076 112C222.076 51.207 172.793 1.92444 112 1.92444V222.076Z" fill="#A15C3E"/>
<mask id="mask6_54_6" style="mask-type:luminance" maskUnits="userSpaceOnUse" x="112" y="1" width="111" height="222">
<path fill-rule="evenodd" clip-rule="evenodd" d="M112 222.076C172.793 222.076 222.076 172.793 222.076 112C222.076 51.207 172.793 1.92444 112 1.92444V222.076Z" fill="white"/>
</mask>
<g mask="url(#mask6_54_6)">
<circle cx="112.192" cy="112.192" r="103.725" fill="#F0D29F"/>
<circle cx="112.577" cy="112.192" r="81.7869" fill="#E2BE81"/>
<circle cx="112.577" cy="112.192" r="72.1649" fill="#D27140"/>
<circle cx="112" cy="112" r="16.1649" fill="#565658"/>
</g>
</svg>
