<svg width="213" height="213" viewBox="0 0 213 213" fill="none" xmlns="http://www.w3.org/2000/svg">
<circle cx="106.5" cy="106.5" r="106.5" fill="#FF6A45"/>
<mask id="mask0_54_5" style="mask-type:luminance" maskUnits="userSpaceOnUse" x="0" y="0" width="213" height="213">
<circle cx="106.5" cy="106.5" r="106.5" fill="white"/>
</mask>
<g mask="url(#mask0_54_5)">
<path fill-rule="evenodd" clip-rule="evenodd" d="M57.0536 15.2143C61.2549 15.2143 64.6607 18.6201 64.6607 22.8214C64.6607 27.0227 61.2549 30.4286 57.0536 30.4286H25.9911C21.7898 30.4286 18.3839 33.8344 18.3839 38.0357C18.3839 42.237 21.7898 45.6429 25.9911 45.6429H106.5C110.701 45.6429 114.107 42.237 114.107 38.0357C114.107 33.8344 110.701 30.4286 106.5 30.4286H98.2588L98.2583 30.4221C94.2044 30.2555 90.9689 26.9163 90.9689 22.8214C90.9689 18.7266 94.2044 15.3874 98.2583 15.2208L98.2588 15.2143H133.759C137.96 15.2143 141.366 11.8085 141.366 7.60714C141.366 3.40583 137.96 0 133.759 0H34.8661C30.6648 0 27.2589 3.40583 27.2589 7.60714C27.2589 11.8085 30.6648 15.2143 34.8661 15.2143H57.0536ZM181.304 38.0357C181.304 33.8344 177.898 30.4286 173.696 30.4286H170.527C166.325 30.4286 162.92 33.8344 162.92 38.0357C162.92 42.2371 166.325 45.6429 170.527 45.6429H173.696C177.898 45.6429 181.304 42.2371 181.304 38.0357Z" fill="#FF9B6B"/>
</g>
<mask id="mask1_54_5" style="mask-type:luminance" maskUnits="userSpaceOnUse" x="0" y="0" width="213" height="213">
<circle cx="106.5" cy="106.5" r="106.5" fill="white"/>
</mask>
<g mask="url(#mask1_54_5)">
<path fill-rule="evenodd" clip-rule="evenodd" d="M124.884 197.786C129.085 197.786 132.491 201.192 132.491 205.393C132.491 209.594 129.085 213 124.884 213H93.8214C89.6201 213 86.2143 216.406 86.2143 220.607C86.2143 224.808 89.6201 228.214 93.8214 228.214H174.33C178.532 228.214 181.938 224.808 181.938 220.607C181.938 216.406 178.532 213 174.33 213H166.089L166.089 212.993C162.035 212.827 158.799 209.488 158.799 205.393C158.799 201.298 162.035 197.959 166.089 197.792L166.089 197.786H201.589C205.791 197.786 209.196 194.38 209.196 190.179C209.196 185.977 205.791 182.571 201.589 182.571H102.696C98.4951 182.571 95.0893 185.977 95.0893 190.179C95.0893 194.38 98.4951 197.786 102.696 197.786H124.884ZM249.134 220.607C249.134 216.406 245.728 213 241.527 213H238.357C234.156 213 230.75 216.406 230.75 220.607C230.75 224.808 234.156 228.214 238.357 228.214H241.527C245.728 228.214 249.134 224.808 249.134 220.607Z" fill="#FF9B6B"/>
</g>
<mask id="mask2_54_5" style="mask-type:luminance" maskUnits="userSpaceOnUse" x="0" y="0" width="213" height="213">
<circle cx="106.5" cy="106.5" r="106.5" fill="white"/>
</mask>
<g mask="url(#mask2_54_5)">
<path fill-rule="evenodd" clip-rule="evenodd" d="M88.1161 45.6428C92.3174 45.6428 95.7232 49.0487 95.7232 53.25C95.7232 57.4513 92.3174 60.8571 88.1161 60.8571H62.7589C58.5576 60.8571 55.1518 57.4513 55.1518 53.25C55.1518 49.0487 58.5576 45.6428 62.7589 45.6428H88.1161ZM166.723 106.5C170.925 106.5 174.33 109.906 174.33 114.107C174.33 118.308 170.925 121.714 166.723 121.714H71L70.9994 121.721C66.9454 121.887 63.71 125.227 63.71 129.321C63.71 133.416 66.9454 136.755 70.9994 136.922L71 136.929H83.0446C87.2459 136.929 90.6518 140.334 90.6518 144.536C90.6518 148.737 87.2459 152.143 83.0446 152.143H6.97321C2.7719 152.143 -0.633932 148.737 -0.633932 144.536C-0.633932 140.334 2.7719 136.929 6.97321 136.929H27.2589C31.4602 136.929 34.8661 133.523 34.8661 129.321C34.8661 125.12 31.4602 121.714 27.2589 121.714H-13.3125C-17.5138 121.714 -20.9196 118.308 -20.9196 114.107C-20.9196 109.906 -17.5138 106.5 -13.3125 106.5H166.723ZM71 174.964C71 170.763 67.5942 167.357 63.3929 167.357H50.7143C46.513 167.357 43.1071 170.763 43.1071 174.964C43.1071 179.166 46.513 182.571 50.7143 182.571H63.3929C67.5942 182.571 71 179.166 71 174.964ZM145.17 174.964C145.17 170.763 141.764 167.357 137.562 167.357H98.2589C94.0576 167.357 90.6518 170.763 90.6518 174.964C90.6518 179.166 94.0576 182.571 98.2589 182.571H137.562C141.764 182.571 145.17 179.166 145.17 174.964ZM141.366 144.536C141.366 140.334 137.96 136.929 133.759 136.929H121.08C116.879 136.929 113.473 140.334 113.473 144.536C113.473 148.737 116.879 152.143 121.08 152.143H133.759C137.96 152.143 141.366 148.737 141.366 144.536ZM228.214 53.25C228.214 49.0487 224.808 45.6428 220.607 45.6428H195.25C191.049 45.6428 187.643 49.0487 187.643 53.25C187.643 57.4513 191.049 60.8571 195.25 60.8571H220.607C224.808 60.8571 228.214 57.4513 228.214 53.25Z" fill="#D04237"/>
</g>
<mask id="mask3_54_5" style="mask-type:luminance" maskUnits="userSpaceOnUse" x="0" y="0" width="213" height="213">
<circle cx="106.5" cy="106.5" r="106.5" fill="white"/>
</mask>
<g mask="url(#mask3_54_5)">
<rect opacity="0.0775757" x="107.134" y="-10.1428" width="116.643" height="233.286" fill="black"/>
</g>
<path fill-rule="evenodd" clip-rule="evenodd" d="M107.134 208.562C163.472 208.562 209.148 162.916 209.196 106.589V106.411C209.148 50.0842 163.472 4.4375 107.134 4.4375C107.134 4.4375 107.134 4.4375 107.134 4.4375L107.134 208.562Z" fill="#97271E"/>
<mask id="mask4_54_5" style="mask-type:luminance" maskUnits="userSpaceOnUse" x="107" y="4" width="103" height="205">
<path fill-rule="evenodd" clip-rule="evenodd" d="M107.134 208.562C163.472 208.562 209.148 162.916 209.196 106.589V106.411C209.148 50.0842 163.472 4.4375 107.134 4.4375C107.134 4.4375 107.134 4.4375 107.134 4.4375L107.134 208.562Z" fill="white"/>
</mask>
<g mask="url(#mask4_54_5)">
<circle cx="107.768" cy="106.5" r="97.625" fill="#DC5D1C"/>
<circle cx="107.768" cy="106.5" r="50.0804" fill="#F8A053"/>
<circle cx="107.768" cy="106.5" r="34.2321" fill="#FFCA79"/>
<circle cx="107.768" cy="107.134" r="25.3571" fill="#FFF5C6"/>
</g>
</svg>
