<svg width="129" height="129" viewBox="0 0 129 129" fill="none" xmlns="http://www.w3.org/2000/svg">
<circle cx="64.5" cy="64.5" r="64.5" fill="#FF6A45"/>
<mask id="mask0_54_5" style="mask-type:luminance" maskUnits="userSpaceOnUse" x="0" y="0" width="129" height="129">
<circle cx="64.5" cy="64.5" r="64.5" fill="white"/>
</mask>
<g mask="url(#mask0_54_5)">
<path fill-rule="evenodd" clip-rule="evenodd" d="M34.5536 9.21429C37.098 9.21429 39.1607 11.277 39.1607 13.8214C39.1607 16.3659 37.098 18.4286 34.5536 18.4286H15.7411C13.1966 18.4286 11.1339 20.4913 11.1339 23.0357C11.1339 25.5802 13.1966 27.6429 15.7411 27.6429H64.5C67.0445 27.6429 69.1072 25.5802 69.1072 23.0357C69.1072 20.4913 67.0445 18.4286 64.5 18.4286H59.5089L59.5086 18.4246C57.0534 18.3237 55.0939 16.3014 55.0939 13.8214C55.0939 11.3414 57.0534 9.31912 59.5086 9.21823L59.5089 9.21429H81.0089C83.5534 9.21429 85.6161 7.1516 85.6161 4.60714C85.6161 2.06269 83.5534 0 81.0089 0H21.1161C18.5716 0 16.5089 2.06269 16.5089 4.60714C16.5089 7.1516 18.5716 9.21429 21.1161 9.21429H34.5536ZM109.804 23.0357C109.804 20.4913 107.741 18.4286 105.196 18.4286H103.277C100.732 18.4286 98.6696 20.4913 98.6696 23.0357C98.6696 25.5802 100.732 27.6429 103.277 27.6429H105.196C107.741 27.6429 109.804 25.5802 109.804 23.0357Z" fill="#FF9B6B"/>
</g>
<mask id="mask1_54_5" style="mask-type:luminance" maskUnits="userSpaceOnUse" x="0" y="0" width="129" height="129">
<circle cx="64.5" cy="64.5" r="64.5" fill="white"/>
</mask>
<g mask="url(#mask1_54_5)">
<path fill-rule="evenodd" clip-rule="evenodd" d="M75.6339 119.786C78.1784 119.786 80.2411 121.848 80.2411 124.393C80.2411 126.937 78.1784 129 75.6339 129H56.8214C54.277 129 52.2143 131.063 52.2143 133.607C52.2143 136.152 54.277 138.214 56.8214 138.214H105.58C108.125 138.214 110.188 136.152 110.188 133.607C110.188 131.063 108.125 129 105.58 129H100.589L100.589 128.996C98.1337 128.895 96.1742 126.873 96.1742 124.393C96.1742 121.913 98.1337 119.891 100.589 119.79L100.589 119.786H122.089C124.634 119.786 126.696 117.723 126.696 115.179C126.696 112.634 124.634 110.571 122.089 110.571H62.1964C59.652 110.571 57.5893 112.634 57.5893 115.179C57.5893 117.723 59.652 119.786 62.1964 119.786H75.6339ZM150.884 133.607C150.884 131.063 148.821 129 146.277 129H144.357C141.813 129 139.75 131.063 139.75 133.607C139.75 136.152 141.813 138.214 144.357 138.214H146.277C148.821 138.214 150.884 136.152 150.884 133.607Z" fill="#FF9B6B"/>
</g>
<mask id="mask2_54_5" style="mask-type:luminance" maskUnits="userSpaceOnUse" x="0" y="0" width="129" height="129">
<circle cx="64.5" cy="64.5" r="64.5" fill="white"/>
</mask>
<g mask="url(#mask2_54_5)">
<path fill-rule="evenodd" clip-rule="evenodd" d="M53.3661 27.6428C55.9105 27.6428 57.9732 29.7055 57.9732 32.25C57.9732 34.7944 55.9105 36.8571 53.3661 36.8571H38.0089C35.4645 36.8571 33.4018 34.7944 33.4018 32.25C33.4018 29.7055 35.4645 27.6428 38.0089 27.6428H53.3661ZM100.973 64.5C103.518 64.5 105.58 66.5627 105.58 69.1071C105.58 71.6516 103.518 73.7143 100.973 73.7143H43L42.9996 73.7182C40.5444 73.8191 38.5849 75.8414 38.5849 78.3214C38.5849 80.8014 40.5444 82.8237 42.9996 82.9246L43 82.9286H50.2946C52.8391 82.9286 54.9018 84.9913 54.9018 87.5357C54.9018 90.0802 52.8391 92.1429 50.2946 92.1429H4.22321C1.67875 92.1429 -0.383933 90.0802 -0.383933 87.5357C-0.383933 84.9913 1.67875 82.9286 4.22321 82.9286H16.5089C19.0534 82.9286 21.1161 80.8659 21.1161 78.3214C21.1161 75.777 19.0534 73.7143 16.5089 73.7143H-8.0625C-10.607 73.7143 -12.6696 71.6516 -12.6696 69.1071C-12.6696 66.5627 -10.607 64.5 -8.0625 64.5H100.973ZM43 105.964C43 103.42 40.9373 101.357 38.3929 101.357H30.7143C28.1698 101.357 26.1071 103.42 26.1071 105.964C26.1071 108.509 28.1698 110.571 30.7143 110.571H38.3929C40.9373 110.571 43 108.509 43 105.964ZM87.9197 105.964C87.9197 103.42 85.857 101.357 83.3125 101.357H59.5089C56.9645 101.357 54.9018 103.42 54.9018 105.964C54.9018 108.509 56.9645 110.571 59.5089 110.571H83.3125C85.857 110.571 87.9197 108.509 87.9197 105.964ZM85.6161 87.5357C85.6161 84.9913 83.5534 82.9286 81.0089 82.9286H73.3303C70.7859 82.9286 68.7232 84.9913 68.7232 87.5357C68.7232 90.0802 70.7859 92.1429 73.3303 92.1429H81.0089C83.5534 92.1429 85.6161 90.0802 85.6161 87.5357ZM138.214 32.25C138.214 29.7055 136.152 27.6428 133.607 27.6428H118.25C115.706 27.6428 113.643 29.7055 113.643 32.25C113.643 34.7944 115.706 36.8571 118.25 36.8571H133.607C136.152 36.8571 138.214 34.7944 138.214 32.25Z" fill="#D04237"/>
</g>
<mask id="mask3_54_5" style="mask-type:luminance" maskUnits="userSpaceOnUse" x="0" y="0" width="129" height="129">
<circle cx="64.5" cy="64.5" r="64.5" fill="white"/>
</mask>
<g mask="url(#mask3_54_5)">
<rect opacity="0.0775757" x="64.8839" y="-6.14282" width="70.6429" height="141.286" fill="black"/>
</g>
<path fill-rule="evenodd" clip-rule="evenodd" d="M64.8839 126.312C99.0057 126.312 126.67 98.6646 126.696 64.5491V64.4509C126.67 30.3354 99.0057 2.6875 64.8839 2.6875C64.8839 2.6875 64.8839 2.6875 64.8839 2.6875L64.8839 126.312Z" fill="#97271E"/>
<mask id="mask4_54_5" style="mask-type:luminance" maskUnits="userSpaceOnUse" x="64" y="2" width="63" height="125">
<path fill-rule="evenodd" clip-rule="evenodd" d="M64.8839 126.312C99.0057 126.312 126.67 98.6646 126.696 64.5491V64.4509C126.67 30.3354 99.0057 2.6875 64.8839 2.6875C64.8839 2.6875 64.8839 2.6875 64.8839 2.6875L64.8839 126.312Z" fill="white"/>
</mask>
<g mask="url(#mask4_54_5)">
<circle cx="65.2679" cy="64.5" r="59.125" fill="#DC5D1C"/>
<circle cx="65.2679" cy="64.5" r="30.3304" fill="#F8A053"/>
<circle cx="65.2679" cy="64.5" r="20.7321" fill="#FFCA79"/>
<circle cx="65.2678" cy="64.8839" r="15.3571" fill="#FFF5C6"/>
</g>
</svg>
