<svg width="213" height="213" viewBox="0 0 213 213" fill="none" xmlns="http://www.w3.org/2000/svg">
<circle cx="106.5" cy="106.5" r="106.5" fill="#FF6A45"/>
<mask id="mask0_0_3489" style="mask-type:luminance" maskUnits="userSpaceOnUse" x="0" y="0" width="213" height="213">
<circle cx="106.5" cy="106.5" r="106.5" fill="white"/>
</mask>
<g mask="url(#mask0_0_3489)">
<path fill-rule="evenodd" clip-rule="evenodd" d="M57.0536 15.2143C61.2549 15.2143 64.6607 18.6201 64.6607 22.8214C64.6607 27.0227 61.2549 30.4286 57.0536 30.4286H25.9911C21.7897 30.4286 18.3839 33.8344 18.3839 38.0357C18.3839 42.237 21.7897 45.6429 25.9911 45.6429H106.5C110.701 45.6429 114.107 42.237 114.107 38.0357C114.107 33.8344 110.701 30.4286 106.5 30.4286H98.2588L98.2583 30.4221C94.2043 30.2555 90.9689 26.9163 90.9689 22.8214C90.9689 18.7266 94.2043 15.3874 98.2583 15.2208L98.2588 15.2143H133.759C137.96 15.2143 141.366 11.8085 141.366 7.60714C141.366 3.40583 137.96 0 133.759 0H34.8661C30.6647 0 27.2589 3.40583 27.2589 7.60714C27.2589 11.8085 30.6647 15.2143 34.8661 15.2143H57.0536ZM181.304 38.0357C181.304 33.8344 177.898 30.4286 173.696 30.4286H170.527C166.325 30.4286 162.92 33.8344 162.92 38.0357C162.92 42.237 166.325 45.6429 170.527 45.6429H173.696C177.898 45.6429 181.304 42.237 181.304 38.0357Z" fill="#FF9B6B"/>
</g>
<mask id="mask1_0_3489" style="mask-type:luminance" maskUnits="userSpaceOnUse" x="0" y="0" width="213" height="213">
<circle cx="106.5" cy="106.5" r="106.5" fill="white"/>
</mask>
<g mask="url(#mask1_0_3489)">
<path fill-rule="evenodd" clip-rule="evenodd" d="M124.884 197.786C129.085 197.786 132.491 201.191 132.491 205.393C132.491 209.594 129.085 213 124.884 213H93.8214C89.6201 213 86.2142 216.406 86.2142 220.607C86.2142 224.808 89.6201 228.214 93.8214 228.214H174.33C178.532 228.214 181.937 224.808 181.937 220.607C181.937 216.406 178.532 213 174.33 213H166.089L166.089 212.993C162.035 212.827 158.799 209.488 158.799 205.393C158.799 201.298 162.035 197.959 166.089 197.792L166.089 197.786H201.589C205.791 197.786 209.196 194.38 209.196 190.178C209.196 185.977 205.791 182.571 201.589 182.571H102.696C98.4951 182.571 95.0892 185.977 95.0892 190.178C95.0892 194.38 98.4951 197.786 102.696 197.786H124.884ZM249.134 220.607C249.134 216.406 245.728 213 241.527 213H238.357C234.156 213 230.75 216.406 230.75 220.607C230.75 224.808 234.156 228.214 238.357 228.214H241.527C245.728 228.214 249.134 224.808 249.134 220.607Z" fill="#FF9B6B"/>
</g>
<mask id="mask2_0_3489" style="mask-type:luminance" maskUnits="userSpaceOnUse" x="0" y="0" width="213" height="213">
<circle cx="106.5" cy="106.5" r="106.5" fill="white"/>
</mask>
<g mask="url(#mask2_0_3489)">
<path fill-rule="evenodd" clip-rule="evenodd" d="M88.116 45.6431C92.3173 45.6431 95.7232 49.0489 95.7232 53.2502C95.7232 57.4515 92.3173 60.8574 88.116 60.8574H62.7589C58.5576 60.8574 55.1517 57.4515 55.1517 53.2502C55.1517 49.0489 58.5576 45.6431 62.7589 45.6431H88.116ZM166.723 106.5C170.924 106.5 174.33 109.906 174.33 114.107C174.33 118.309 170.924 121.714 166.723 121.714H71L70.9993 121.721C66.9454 121.888 63.71 125.227 63.71 129.322C63.71 133.417 66.9454 136.756 70.9993 136.922L71 136.929H83.0446C87.2459 136.929 90.6517 140.335 90.6517 144.536C90.6517 148.737 87.2459 152.143 83.0446 152.143H6.97318C2.77187 152.143 -0.633963 148.737 -0.633963 144.536C-0.633963 140.335 2.77187 136.929 6.97318 136.929H27.2589C31.4602 136.929 34.866 133.523 34.866 129.322C34.866 125.12 31.4602 121.714 27.2589 121.714H-13.3125C-17.5138 121.714 -20.9197 118.309 -20.9197 114.107C-20.9197 109.906 -17.5138 106.5 -13.3125 106.5H166.723ZM71 174.964C71 170.763 67.5941 167.357 63.3928 167.357H50.7142C46.5129 167.357 43.1071 170.763 43.1071 174.964C43.1071 179.166 46.5129 182.572 50.7142 182.572H63.3928C67.5941 182.572 71 179.166 71 174.964ZM145.17 174.964C145.17 170.763 141.764 167.357 137.562 167.357H98.2589C94.0576 167.357 90.6517 170.763 90.6517 174.964C90.6517 179.166 94.0576 182.572 98.2589 182.572H137.562C141.764 182.572 145.17 179.166 145.17 174.964ZM141.366 144.536C141.366 140.335 137.96 136.929 133.759 136.929H121.08C116.879 136.929 113.473 140.335 113.473 144.536C113.473 148.737 116.879 152.143 121.08 152.143H133.759C137.96 152.143 141.366 148.737 141.366 144.536ZM228.214 53.2502C228.214 49.0489 224.808 45.6431 220.607 45.6431H195.25C191.049 45.6431 187.643 49.0489 187.643 53.2502C187.643 57.4515 191.049 60.8574 195.25 60.8574H220.607C224.808 60.8574 228.214 57.4515 228.214 53.2502Z" fill="#D04237"/>
</g>
<mask id="mask3_0_3489" style="mask-type:luminance" maskUnits="userSpaceOnUse" x="0" y="0" width="213" height="213">
<circle cx="106.5" cy="106.5" r="106.5" fill="white"/>
</mask>
<g mask="url(#mask3_0_3489)">
<rect opacity="0.0775757" x="107.134" y="-10.1431" width="116.643" height="233.286" fill="black"/>
</g>
</svg>
