<svg width="111" height="111" viewBox="0 0 111 111" fill="none" xmlns="http://www.w3.org/2000/svg">
<circle cx="55.5" cy="55.5" r="55.5" fill="#DEF4FC"/>
<mask id="mask0_54_2" style="mask-type:luminance" maskUnits="userSpaceOnUse" x="0" y="0" width="111" height="111">
<circle cx="55.5" cy="55.5" r="55.5" fill="white"/>
</mask>
<g mask="url(#mask0_54_2)">
<path fill-rule="evenodd" clip-rule="evenodd" d="M98.369 9.56893C98.369 7.03223 96.3126 4.97583 93.7759 4.97583H71.5759C69.0392 4.97583 66.9828 7.03223 66.9828 9.56893C66.9828 12.1056 69.0392 14.162 71.5759 14.162H93.7759C96.3126 14.162 98.369 12.1056 98.369 9.56893ZM27.9413 50.9069C30.478 50.9069 32.5344 52.9633 32.5344 55.5C32.5344 58.0367 30.478 60.0931 27.9413 60.0931H26.7931C24.2564 60.0931 22.2 62.1495 22.2 64.6862C22.2 67.2229 24.2564 69.2793 26.7931 69.2793H74.2551C76.7918 69.2793 78.8482 67.2229 78.8482 64.6862C78.8482 62.1495 76.7918 60.0931 74.2551 60.0931H54.3517L54.3513 60.0892C51.9036 59.9886 49.9501 57.9724 49.9501 55.5C49.9501 53.0276 51.9036 51.0114 54.3513 50.9108L54.3517 50.9069H55.1172C57.6539 50.9069 59.7103 48.8505 59.7103 46.3138C59.7103 43.7771 57.6539 41.7207 55.1172 41.7207H37.8931L37.8932 41.7168C35.4452 41.6165 33.4913 39.6002 33.4913 37.1276C33.4913 34.6549 35.4452 32.6387 37.8932 32.5384L37.8931 32.5345H45.5482C48.0849 32.5345 50.1413 30.4781 50.1413 27.9414C50.1413 25.4047 48.0849 23.3483 45.5482 23.3483H17.6068C15.0701 23.3483 13.0137 25.4047 13.0137 27.9414C13.0137 30.4781 15.0701 32.5345 17.6068 32.5345H19.5206C22.0573 32.5345 24.1137 34.5909 24.1137 37.1276C24.1137 39.6643 22.0573 41.7207 19.5206 41.7207H0.765467C-1.77123 41.7207 -3.82764 43.7771 -3.82764 46.3138C-3.82764 48.8505 -1.77123 50.9069 0.765467 50.9069H27.9413ZM49.7586 78.4655C52.2953 78.4655 54.3517 80.5219 54.3517 83.0586C54.3517 85.5953 52.2953 87.6517 49.7586 87.6517C47.2219 87.6517 45.1655 85.5953 45.1655 83.0586C45.1655 80.5219 47.2219 78.4655 49.7586 78.4655ZM96.4553 83.0586C96.4553 80.5219 94.3989 78.4655 91.8622 78.4655H68.1312C65.5945 78.4655 63.5381 80.5219 63.5381 83.0586C63.5381 85.5953 65.5945 87.6517 68.1312 87.6517H91.8622C94.3989 87.6517 96.4553 85.5953 96.4553 83.0586ZM63.5382 101.431C63.5382 98.8943 61.4818 96.8379 58.9451 96.8379H51.2899C48.7532 96.8379 46.6968 98.8943 46.6968 101.431C46.6968 103.968 48.7532 106.024 51.2899 106.024H58.9451C61.4818 106.024 63.5382 103.968 63.5382 101.431ZM93.7757 60.0931C96.3124 60.0931 98.3688 62.1495 98.3688 64.6862C98.3688 67.2229 96.3124 69.2793 93.7757 69.2793C91.239 69.2793 89.1826 67.2229 89.1826 64.6862C89.1826 62.1495 91.239 60.0931 93.7757 60.0931ZM13.0137 64.6862C13.0137 62.1495 10.9573 60.0931 8.42064 60.0931H0.765467C-1.77123 60.0931 -3.82764 62.1495 -3.82764 64.6862C-3.82764 67.2229 -1.77123 69.2793 0.765467 69.2793H8.42064C10.9573 69.2793 13.0137 67.2229 13.0137 64.6862ZM84.5896 23.3483C87.1263 23.3483 89.1827 25.4047 89.1827 27.9414C89.1827 30.4781 87.1263 32.5345 84.5896 32.5345H76.9344C74.3977 32.5345 72.3413 30.4781 72.3413 27.9414C72.3413 25.4047 74.3977 23.3483 76.9344 23.3483H84.5896Z" fill="#B1D5E2"/>
</g>
<mask id="mask1_54_2" style="mask-type:luminance" maskUnits="userSpaceOnUse" x="0" y="0" width="111" height="111">
<circle cx="55.5" cy="55.5" r="55.5" fill="white"/>
</mask>
<g mask="url(#mask1_54_2)">
<rect opacity="0.0775757" x="55.8828" width="55.5" height="111" fill="black"/>
</g>
<path fill-rule="evenodd" clip-rule="evenodd" d="M55.8828 108.703C85.2663 108.703 109.086 84.8834 109.086 55.5C109.086 26.1165 85.2663 2.29654 55.8829 2.29651L55.8828 108.703Z" fill="#7A939C"/>
<mask id="mask2_54_2" style="mask-type:luminance" maskUnits="userSpaceOnUse" x="55" y="2" width="55" height="107">
<path fill-rule="evenodd" clip-rule="evenodd" d="M55.8828 108.703C85.2663 108.703 109.086 84.8834 109.086 55.5C109.086 26.1165 85.2663 2.29654 55.8829 2.29651L55.8828 108.703Z" fill="white"/>
</mask>
<g mask="url(#mask2_54_2)">
<circle cx="56.2654" cy="55.8827" r="50.1414" fill="#9AB2BB"/>
<circle cx="56.2654" cy="55.5" r="36.3621" fill="#E8903F"/>
<circle cx="56.0739" cy="55.6914" r="15.8845" fill="#FFEA87"/>
</g>
</svg>
