<svg width="285" height="285" viewBox="0 0 285 285" fill="none" xmlns="http://www.w3.org/2000/svg">
<circle cx="142.5" cy="142.5" r="142.5" fill="#497EFA"/>
<mask id="mask0_0_2437" style="mask-type:luminance" maskUnits="userSpaceOnUse" x="0" y="0" width="285" height="285">
<circle cx="142.5" cy="142.5" r="142.5" fill="white"/>
</mask>
<g mask="url(#mask0_0_2437)">
<path fill-rule="evenodd" clip-rule="evenodd" d="M9.61216 105.133C13.8095 105.133 17.2122 108.536 17.2122 112.733C17.2122 116.931 13.8095 120.333 9.61216 120.333H-89.1878C-93.3852 120.333 -96.7878 116.931 -96.7878 112.733C-96.7878 108.536 -93.3852 105.133 -89.1878 105.133H9.61216ZM148.945 105.133C153.143 105.133 156.546 108.536 156.546 112.733C156.546 116.931 153.143 120.333 148.945 120.333H99.5455L99.5457 120.34C95.4951 120.506 92.2622 123.842 92.2622 127.933C92.2622 132.025 95.4951 135.361 99.5457 135.527L99.5455 135.533H200.879C205.076 135.533 208.479 138.936 208.479 143.133C208.479 147.331 205.076 150.733 200.879 150.733H38.1122C33.9148 150.733 30.5122 147.331 30.5122 143.133C30.5122 138.936 33.9148 135.533 38.1122 135.533H69.1455C73.3429 135.533 76.7455 132.131 76.7455 127.933C76.7455 123.736 73.3429 120.333 69.1455 120.333H50.1455C45.9481 120.333 42.5455 116.931 42.5455 112.733C42.5455 108.536 45.9481 105.133 50.1455 105.133H148.945ZM19.1122 165.933C23.3095 165.933 26.7122 169.336 26.7122 173.533C26.7122 177.731 23.3095 181.133 19.1122 181.133H-27.1212C-31.3185 181.133 -34.7212 177.731 -34.7212 173.533C-34.7212 169.336 -31.3185 165.933 -27.1212 165.933H19.1122ZM200.879 165.933C205.076 165.933 208.479 169.336 208.479 173.533C208.479 177.731 205.076 181.133 200.879 181.133H154.645C150.448 181.133 147.045 177.731 147.045 173.533C147.045 169.336 150.448 165.933 154.645 165.933H200.879ZM368.079 173.533C368.079 169.336 364.676 165.933 360.479 165.933H255.345C251.148 165.933 247.745 169.336 247.745 173.533C247.745 177.731 251.148 181.133 255.345 181.133H360.479C364.676 181.133 368.079 177.731 368.079 173.533ZM247.745 120.333C251.943 120.333 255.345 123.736 255.345 127.933C255.345 132.131 251.943 135.533 247.745 135.533H242.046C237.848 135.533 234.445 138.936 234.445 143.133C234.445 147.331 237.848 150.733 242.046 150.733H404.812C409.01 150.733 412.412 147.331 412.412 143.133C412.412 138.936 409.01 135.533 404.812 135.533H278.146L278.146 135.527C274.095 135.361 270.862 132.025 270.862 127.933C270.862 123.842 274.095 120.506 278.146 120.34L278.146 120.333H293.345C297.543 120.333 300.945 116.931 300.945 112.733C300.945 108.536 297.543 105.133 293.345 105.133H194.546C190.348 105.133 186.945 108.536 186.945 112.733C186.945 116.931 190.348 120.333 194.546 120.333H247.745ZM436.479 112.733C436.479 108.536 433.076 105.133 428.879 105.133H330.079C325.881 105.133 322.479 108.536 322.479 112.733C322.479 116.931 325.881 120.333 330.079 120.333H428.879C433.076 120.333 436.479 116.931 436.479 112.733Z" fill="#356CEE"/>
</g>
<mask id="mask1_0_2437" style="mask-type:luminance" maskUnits="userSpaceOnUse" x="0" y="0" width="285" height="285">
<circle cx="142.5" cy="142.5" r="142.5" fill="white"/>
</mask>
<g mask="url(#mask1_0_2437)">
<path opacity="0.4" fill-rule="evenodd" clip-rule="evenodd" d="M9.61216 13.9331C13.8095 13.9331 17.2122 17.3357 17.2122 21.5331C17.2122 25.7305 13.8095 29.1331 9.61216 29.1331H-89.1878C-93.3852 29.1331 -96.7878 25.7305 -96.7878 21.5331C-96.7878 17.3357 -93.3852 13.9331 -89.1878 13.9331H9.61216ZM148.945 13.9331C153.143 13.9331 156.546 17.3357 156.546 21.5331C156.546 25.7305 153.143 29.1331 148.945 29.1331H99.5455L99.5457 29.1396C95.4951 29.3055 92.2622 32.6417 92.2622 36.7331C92.2622 40.8245 95.4951 44.1607 99.5457 44.3266L99.5455 44.3331H200.879C205.076 44.3331 208.479 47.7357 208.479 51.9331C208.479 56.1305 205.076 59.5331 200.879 59.5331H38.1122C33.9148 59.5331 30.5122 56.1305 30.5122 51.9331C30.5122 47.7357 33.9148 44.3331 38.1122 44.3331H69.1455C73.3429 44.3331 76.7455 40.9305 76.7455 36.7331C76.7455 32.5357 73.3429 29.1331 69.1455 29.1331H50.1455C45.9481 29.1331 42.5455 25.7305 42.5455 21.5331C42.5455 17.3357 45.9481 13.9331 50.1455 13.9331H148.945ZM19.1122 74.7331C23.3095 74.7331 26.7122 78.1357 26.7122 82.3331C26.7122 86.5305 23.3095 89.9331 19.1122 89.9331H-27.1212C-31.3185 89.9331 -34.7212 86.5305 -34.7212 82.3331C-34.7212 78.1357 -31.3185 74.7331 -27.1212 74.7331H19.1122ZM200.879 74.7331C205.076 74.7331 208.479 78.1357 208.479 82.3331C208.479 86.5305 205.076 89.9331 200.879 89.9331H154.645C150.448 89.9331 147.045 86.5305 147.045 82.3331C147.045 78.1357 150.448 74.7331 154.645 74.7331H200.879ZM368.079 82.3331C368.079 78.1357 364.676 74.7331 360.479 74.7331H255.345C251.148 74.7331 247.745 78.1357 247.745 82.3331C247.745 86.5305 251.148 89.9331 255.345 89.9331H360.479C364.676 89.9331 368.079 86.5305 368.079 82.3331ZM247.745 29.1331C251.943 29.1331 255.345 32.5357 255.345 36.7331C255.345 40.9305 251.943 44.3331 247.745 44.3331H242.046C237.848 44.3331 234.445 47.7357 234.445 51.9331C234.445 56.1305 237.848 59.5331 242.046 59.5331H404.812C409.01 59.5331 412.412 56.1305 412.412 51.9331C412.412 47.7357 409.01 44.3331 404.812 44.3331H278.146L278.146 44.3266C274.095 44.1607 270.862 40.8245 270.862 36.7331C270.862 32.6417 274.095 29.3055 278.146 29.1396L278.146 29.1331H293.345C297.543 29.1331 300.945 25.7305 300.945 21.5331C300.945 17.3357 297.543 13.9331 293.345 13.9331H194.546C190.348 13.9331 186.945 17.3357 186.945 21.5331C186.945 25.7305 190.348 29.1331 194.546 29.1331H247.745ZM436.479 21.5331C436.479 17.3357 433.076 13.9331 428.879 13.9331H330.079C325.881 13.9331 322.479 17.3357 322.479 21.5331C322.479 25.7305 325.881 29.1331 330.079 29.1331H428.879C433.076 29.1331 436.479 25.7305 436.479 21.5331Z" fill="#356CEE"/>
</g>
<mask id="mask2_0_2437" style="mask-type:luminance" maskUnits="userSpaceOnUse" x="0" y="0" width="285" height="285">
<circle cx="142.5" cy="142.5" r="142.5" fill="white"/>
</mask>
<g mask="url(#mask2_0_2437)">
<path opacity="0.4" fill-rule="evenodd" clip-rule="evenodd" d="M9.61216 211.533C13.8095 211.533 17.2122 214.936 17.2122 219.133C17.2122 223.331 13.8095 226.733 9.61216 226.733H-89.1878C-93.3852 226.733 -96.7878 223.331 -96.7878 219.133C-96.7878 214.936 -93.3852 211.533 -89.1878 211.533H9.61216ZM148.945 211.533C153.143 211.533 156.546 214.936 156.546 219.133C156.546 223.331 153.143 226.733 148.945 226.733H99.5455L99.5457 226.74C95.4951 226.906 92.2622 230.242 92.2622 234.333C92.2622 238.425 95.4951 241.761 99.5457 241.927L99.5455 241.933H200.879C205.076 241.933 208.479 245.336 208.479 249.533C208.479 253.731 205.076 257.133 200.879 257.133H38.1122C33.9148 257.133 30.5122 253.731 30.5122 249.533C30.5122 245.336 33.9148 241.933 38.1122 241.933H69.1455C73.3429 241.933 76.7455 238.531 76.7455 234.333C76.7455 230.136 73.3429 226.733 69.1455 226.733H50.1455C45.9481 226.733 42.5455 223.331 42.5455 219.133C42.5455 214.936 45.9481 211.533 50.1455 211.533H148.945ZM19.1122 272.333C23.3095 272.333 26.7122 275.736 26.7122 279.933C26.7122 284.131 23.3095 287.533 19.1122 287.533H-27.1212C-31.3185 287.533 -34.7212 284.131 -34.7212 279.933C-34.7212 275.736 -31.3185 272.333 -27.1212 272.333H19.1122ZM200.879 272.333C205.076 272.333 208.479 275.736 208.479 279.933C208.479 284.131 205.076 287.533 200.879 287.533H154.645C150.448 287.533 147.045 284.131 147.045 279.933C147.045 275.736 150.448 272.333 154.645 272.333H200.879ZM368.079 279.933C368.079 275.736 364.676 272.333 360.479 272.333H255.345C251.148 272.333 247.745 275.736 247.745 279.933C247.745 284.131 251.148 287.533 255.345 287.533H360.479C364.676 287.533 368.079 284.131 368.079 279.933ZM247.745 226.733C251.943 226.733 255.345 230.136 255.345 234.333C255.345 238.531 251.943 241.933 247.745 241.933H242.046C237.848 241.933 234.445 245.336 234.445 249.533C234.445 253.731 237.848 257.133 242.046 257.133H404.812C409.01 257.133 412.412 253.731 412.412 249.533C412.412 245.336 409.01 241.933 404.812 241.933H278.146L278.146 241.927C274.095 241.761 270.862 238.425 270.862 234.333C270.862 230.242 274.095 226.906 278.146 226.74L278.146 226.733H293.345C297.543 226.733 300.945 223.331 300.945 219.133C300.945 214.936 297.543 211.533 293.345 211.533H194.546C190.348 211.533 186.945 214.936 186.945 219.133C186.945 223.331 190.348 226.733 194.546 226.733H247.745ZM436.479 219.133C436.479 214.936 433.076 211.533 428.879 211.533H330.079C325.881 211.533 322.479 214.936 322.479 219.133C322.479 223.331 325.881 226.733 330.079 226.733H428.879C433.076 226.733 436.479 223.331 436.479 219.133Z" fill="#356CEE"/>
</g>
<mask id="mask3_0_2437" style="mask-type:luminance" maskUnits="userSpaceOnUse" x="0" y="0" width="285" height="285">
<circle cx="142.5" cy="142.5" r="142.5" fill="white"/>
</mask>
<g mask="url(#mask3_0_2437)">
<path d="M93.8456 173.533C93.8456 169.336 90.443 165.933 86.2456 165.933H74.2123C70.0149 165.933 66.6123 162.531 66.6123 158.333C66.6123 154.136 70.0149 150.733 74.2123 150.733H124.246C128.443 150.733 131.846 154.136 131.846 158.333C131.846 162.531 128.443 165.933 124.246 165.933H122.346L122.346 165.94C118.295 166.106 115.062 169.442 115.062 173.533C115.062 177.625 118.295 180.961 122.346 181.127L122.346 181.133H124.246C128.443 181.133 131.846 184.536 131.846 188.733C131.846 192.931 128.443 196.333 124.246 196.333H85.6123C81.4149 196.333 78.0123 192.931 78.0123 188.733C78.0123 184.536 81.4149 181.133 85.6123 181.133H86.2456C90.443 181.133 93.8456 177.731 93.8456 173.533Z" fill="#2255CA"/>
</g>
<mask id="mask4_0_2437" style="mask-type:luminance" maskUnits="userSpaceOnUse" x="0" y="0" width="285" height="285">
<circle cx="142.5" cy="142.5" r="142.5" fill="white"/>
</mask>
<g mask="url(#mask4_0_2437)">
<rect opacity="0.0775757" x="142.5" y="6.9668" width="136.391" height="271.067" fill="black"/>
</g>
</svg>
