<svg width="176" height="176" viewBox="0 0 176 176" fill="none" xmlns="http://www.w3.org/2000/svg">
<circle cx="88" cy="88" r="88" fill="#65F0D5"/>
<mask id="mask0_0_439" style="mask-type:luminance" maskUnits="userSpaceOnUse" x="0" y="0" width="176" height="176">
<circle cx="88" cy="88" r="88" fill="white"/>
</mask>
<g mask="url(#mask0_0_439)">
<path fill-rule="evenodd" clip-rule="evenodd" d="M171.051 -57.6417C171.051 -55.0949 168.986 -53.0304 166.439 -53.0304C163.892 -53.0304 161.828 -55.0949 161.828 -57.6417V-117.589C161.828 -120.136 163.892 -122.201 166.439 -122.201C168.986 -122.201 171.051 -120.136 171.051 -117.589V-57.6417ZM171.051 26.8997C171.051 29.4465 168.986 31.5111 166.439 31.5111C163.892 31.5111 161.828 29.4465 161.828 26.8997V-3.07405L161.824 -3.0739C161.723 -5.53165 159.699 -7.49326 157.217 -7.49326C154.734 -7.49326 152.71 -5.53165 152.609 -3.0739L152.605 -3.07405V58.4107C152.605 60.9574 150.541 63.022 147.994 63.022C145.447 63.022 143.382 60.9574 143.382 58.4107V-40.3492C143.382 -42.8959 145.447 -44.9605 147.994 -44.9605C150.541 -44.9605 152.605 -42.8959 152.605 -40.3492V-21.5195C152.605 -18.9727 154.67 -16.9081 157.217 -16.9081C159.763 -16.9081 161.828 -18.9727 161.828 -21.5195V-33.0478C161.828 -35.5946 163.892 -37.6592 166.439 -37.6592C168.986 -37.6592 171.051 -35.5946 171.051 -33.0478V26.8997ZM134.16 -51.8775C134.16 -49.3308 132.095 -47.2662 129.548 -47.2662C127.002 -47.2662 124.937 -49.3308 124.937 -51.8775V-79.9299C124.937 -82.4767 127.002 -84.5413 129.548 -84.5413C132.095 -84.5413 134.16 -82.4767 134.16 -79.9299V-51.8775ZM134.16 58.4107C134.16 60.9575 132.095 63.022 129.548 63.022C127.002 63.022 124.937 60.9575 124.937 58.4107L124.937 30.3583C124.937 27.8115 127.002 25.7469 129.548 25.7469C132.095 25.7469 134.16 27.8115 134.16 30.3583V58.4107ZM129.548 159.86C132.095 159.86 134.16 157.796 134.16 155.249V91.4587C134.16 88.9119 132.095 86.8474 129.548 86.8474C127.002 86.8474 124.937 88.9119 124.937 91.4587V155.249C124.937 157.796 127.002 159.86 129.548 159.86ZM161.828 86.8474C161.828 89.3941 159.763 91.4587 157.217 91.4587C154.67 91.4587 152.605 89.3941 152.605 86.8474V83.3888C152.605 80.8421 150.541 78.7775 147.994 78.7775C145.447 78.7775 143.382 80.8421 143.382 83.3888L143.382 182.149C143.382 184.695 145.447 186.76 147.994 186.76C150.541 186.76 152.605 184.695 152.605 182.149L152.605 105.293L152.609 105.293C152.71 102.835 154.734 100.874 157.217 100.874C159.699 100.874 161.723 102.835 161.824 105.293L161.828 105.293V114.515C161.828 117.062 163.892 119.127 166.439 119.127C168.986 119.127 171.051 117.062 171.051 114.515L171.051 54.5679C171.051 52.0211 168.986 49.9565 166.439 49.9565C163.892 49.9565 161.828 52.0211 161.828 54.5679V86.8474ZM166.439 201.363C168.986 201.363 171.051 199.298 171.051 196.751V136.804C171.051 134.257 168.986 132.192 166.439 132.192C163.892 132.192 161.828 134.257 161.828 136.804V196.751C161.828 199.298 163.892 201.363 166.439 201.363Z" fill="#49CBC2"/>
</g>
<mask id="mask1_0_439" style="mask-type:luminance" maskUnits="userSpaceOnUse" x="0" y="0" width="176" height="176">
<circle cx="88" cy="88" r="88" fill="white"/>
</mask>
<g mask="url(#mask1_0_439)">
<path fill-rule="evenodd" clip-rule="evenodd" d="M69.6008 -84.5416C69.6008 -81.9949 71.6654 -79.9303 74.2122 -79.9303C76.759 -79.9303 78.8235 -81.9949 78.8235 -84.5416V-144.489C78.8235 -147.036 76.759 -149.101 74.2122 -149.101C71.6654 -149.101 69.6008 -147.036 69.6008 -144.489V-84.5416ZM69.6008 -0.000152588C69.6008 2.54663 71.6654 4.61121 74.2122 4.61121C76.759 4.61121 78.8235 2.54663 78.8235 -0.000152588L78.8235 -29.974L78.8275 -29.9738C78.9281 -32.4315 80.9524 -34.3932 83.4349 -34.3932C85.9174 -34.3932 87.9417 -32.4315 88.0423 -29.9738L88.0462 -29.974L88.0462 31.5108C88.0462 34.0575 90.1108 36.1221 92.6576 36.1221C95.2044 36.1221 97.269 34.0575 97.269 31.5108L97.269 -67.2491C97.269 -69.7958 95.2044 -71.8604 92.6576 -71.8604C90.1108 -71.8604 88.0462 -69.7958 88.0462 -67.2491V-48.4194C88.0462 -45.8726 85.9817 -43.808 83.4349 -43.808C80.8881 -43.808 78.8235 -45.8726 78.8235 -48.4194V-59.9477C78.8235 -62.4945 76.759 -64.5591 74.2122 -64.5591C71.6654 -64.5591 69.6008 -62.4945 69.6008 -59.9477L69.6008 -0.000152588ZM106.492 -78.7774C106.492 -76.2307 108.556 -74.1661 111.103 -74.1661C113.65 -74.1661 115.714 -76.2307 115.714 -78.7774V-106.83C115.714 -109.377 113.65 -111.441 111.103 -111.441C108.556 -111.441 106.492 -109.377 106.492 -106.83V-78.7774ZM106.492 31.5108C106.492 34.0576 108.556 36.1221 111.103 36.1221C113.65 36.1221 115.714 34.0576 115.714 31.5108L115.714 3.45837C115.714 0.911591 113.65 -1.15298 111.103 -1.15298C108.556 -1.15298 106.492 0.911591 106.492 3.45837L106.492 31.5108ZM111.103 132.961C108.556 132.961 106.492 130.896 106.492 128.349V64.5588C106.492 62.012 108.556 59.9474 111.103 59.9474C113.65 59.9474 115.714 62.012 115.714 64.5588V128.349C115.714 130.896 113.65 132.961 111.103 132.961ZM78.8235 59.9474C78.8235 62.4942 80.8881 64.5588 83.4349 64.5588C85.9817 64.5588 88.0462 62.4942 88.0462 59.9474V56.4889C88.0462 53.9422 90.1108 51.8776 92.6576 51.8776C95.2044 51.8776 97.269 53.9422 97.269 56.4889V155.249C97.269 157.796 95.2044 159.86 92.6576 159.86C90.1108 159.86 88.0462 157.796 88.0462 155.249V78.3929L88.0423 78.393C87.9417 75.9353 85.9174 73.9737 83.4349 73.9737C80.9524 73.9737 78.9281 75.9353 78.8275 78.393L78.8235 78.3929V87.6156C78.8235 90.1624 76.759 92.2269 74.2122 92.2269C71.6654 92.2269 69.6008 90.1624 69.6008 87.6156V27.668C69.6008 25.1212 71.6654 23.0566 74.2122 23.0566C76.759 23.0566 78.8235 25.1212 78.8235 27.668V59.9474ZM74.2122 174.463C71.6654 174.463 69.6008 172.398 69.6008 169.851V109.904C69.6008 107.357 71.6654 105.292 74.2122 105.292C76.759 105.292 78.8235 107.357 78.8235 109.904V169.851C78.8235 172.398 76.759 174.463 74.2122 174.463Z" fill="#50DECD"/>
</g>
<mask id="mask2_0_439" style="mask-type:luminance" maskUnits="userSpaceOnUse" x="0" y="0" width="176" height="176">
<circle cx="88" cy="88" r="88" fill="white"/>
</mask>
<g mask="url(#mask2_0_439)">
<path fill-rule="evenodd" clip-rule="evenodd" d="M60.3781 -97.2228C60.3781 -94.676 58.3135 -92.6114 55.7668 -92.6114C53.22 -92.6114 51.1554 -94.676 51.1554 -97.2228V-157.17C51.1554 -159.717 53.22 -161.782 55.7668 -161.782C58.3135 -161.782 60.3781 -159.717 60.3781 -157.17L60.3781 -97.2228ZM60.3781 -12.6813C60.3781 -10.1345 58.3135 -8.06995 55.7668 -8.06995C53.22 -8.06995 51.1554 -10.1345 51.1554 -12.6813V-42.6551L51.1515 -42.655C51.0508 -45.1127 49.0265 -47.0743 46.5441 -47.0743C44.0616 -47.0743 42.0373 -45.1127 41.9366 -42.655L41.9327 -42.6551L41.9327 18.8296C41.9327 21.3764 39.8681 23.441 37.3213 23.441C34.7746 23.441 32.71 21.3764 32.71 18.8296L32.71 -79.9302C32.71 -82.477 34.7746 -84.5416 37.3213 -84.5416C39.8681 -84.5416 41.9327 -82.477 41.9327 -79.9302L41.9327 -61.1005C41.9327 -58.5537 43.9973 -56.4892 46.5441 -56.4892C49.0908 -56.4892 51.1554 -58.5537 51.1554 -61.1005V-72.6289C51.1554 -75.1757 53.22 -77.2403 55.7668 -77.2403C58.3135 -77.2403 60.3781 -75.1757 60.3781 -72.6289V-12.6813ZM23.4873 -91.4586C23.4873 -88.9118 21.4227 -86.8472 18.8759 -86.8472C16.3291 -86.8472 14.2646 -88.9118 14.2646 -91.4586L14.2646 -119.511C14.2646 -122.058 16.3291 -124.122 18.8759 -124.122C21.4227 -124.122 23.4873 -122.058 23.4873 -119.511L23.4873 -91.4586ZM23.4873 18.8296C23.4873 21.3764 21.4227 23.441 18.8759 23.441C16.3291 23.441 14.2646 21.3764 14.2646 18.8296L14.2646 -9.22278C14.2646 -11.7696 16.3291 -13.8341 18.8759 -13.8341C21.4227 -13.8341 23.4873 -11.7696 23.4873 -9.22278L23.4873 18.8296ZM18.8759 120.279C21.4227 120.279 23.4873 118.215 23.4873 115.668V51.8777C23.4873 49.3309 21.4227 47.2663 18.8759 47.2663C16.3291 47.2663 14.2646 49.3309 14.2646 51.8777V115.668C14.2646 118.215 16.3291 120.279 18.8759 120.279ZM51.1554 47.2663C51.1554 49.8131 49.0908 51.8777 46.5441 51.8777C43.9973 51.8777 41.9327 49.8131 41.9327 47.2663V43.8078C41.9327 41.261 39.8681 39.1964 37.3213 39.1964C34.7746 39.1964 32.71 41.261 32.71 43.8078V142.568C32.71 145.114 34.7746 147.179 37.3213 147.179C39.8681 147.179 41.9327 145.114 41.9327 142.568V65.7117L41.9366 65.7119C42.0373 63.2541 44.0616 61.2925 46.5441 61.2925C49.0265 61.2925 51.0508 63.2541 51.1515 65.7119L51.1554 65.7117V74.9344C51.1554 77.4812 53.22 79.5458 55.7668 79.5458C58.3135 79.5458 60.3781 77.4812 60.3781 74.9344V14.9868C60.3781 12.44 58.3135 10.3755 55.7668 10.3755C53.22 10.3755 51.1554 12.44 51.1554 14.9868V47.2663ZM55.7668 161.782C58.3135 161.782 60.3781 159.717 60.3781 157.17L60.3781 97.2226C60.3781 94.6758 58.3135 92.6113 55.7668 92.6113C53.22 92.6113 51.1554 94.6758 51.1554 97.2226L51.1554 157.17C51.1554 159.717 53.22 161.782 55.7668 161.782Z" fill="#77FFF5"/>
</g>
<mask id="mask3_0_439" style="mask-type:luminance" maskUnits="userSpaceOnUse" x="0" y="0" width="176" height="176">
<circle cx="88" cy="88" r="88" fill="white"/>
</mask>
<g mask="url(#mask3_0_439)">
<rect opacity="0.0775757" x="88" width="88" height="176" fill="black"/>
</g>
</svg>
