<svg width="253" height="253" viewBox="0 0 253 253" fill="none" xmlns="http://www.w3.org/2000/svg">
<circle cx="126.5" cy="126.5" r="126.5" fill="#F7CC7F"/>
<mask id="mask0_0_4007" style="mask-type:luminance" maskUnits="userSpaceOnUse" x="0" y="0" width="253" height="253">
<circle cx="126.5" cy="126.5" r="126.5" fill="white"/>
</mask>
<g mask="url(#mask0_0_4007)">
<path fill-rule="evenodd" clip-rule="evenodd" d="M195.443 22.1374C195.443 17.9455 192.044 14.5474 187.853 14.5474H25.3C21.1082 14.5474 17.71 17.9455 17.71 22.1374C17.71 26.3292 21.1082 29.7274 25.3 29.7274H101.2C105.392 29.7274 108.79 33.1255 108.79 37.3174C108.79 41.5092 105.392 44.9074 101.2 44.9074H98.67C94.4782 44.9074 91.08 48.3055 91.08 52.4974C91.08 56.6892 94.4782 60.0874 98.67 60.0874H146.74C150.932 60.0874 154.33 56.6892 154.33 52.4974C154.33 48.3055 150.932 44.9074 146.74 44.9074H144.843L144.842 44.9009C140.797 44.7347 137.569 41.403 137.569 37.3174C137.569 33.2317 140.797 29.9001 144.842 29.7339L144.843 29.7274H187.853C192.044 29.7274 195.443 26.3292 195.443 22.1374ZM183.425 82.8574C183.425 78.6655 180.027 75.2674 175.835 75.2674H136.62C132.428 75.2674 129.03 78.6655 129.03 82.8574C129.03 87.0492 132.428 90.4474 136.62 90.4474H175.835C180.027 90.4474 183.425 87.0492 183.425 82.8574ZM-6.00871 105.627C-1.81687 105.627 1.58129 109.026 1.58129 113.217C1.58129 117.409 -1.81687 120.807 -6.00871 120.807H-33.8387C-38.0306 120.807 -41.4287 117.409 -41.4287 113.217C-41.4287 109.026 -38.0306 105.627 -33.8387 105.627H-6.00871ZM191.015 113.217C191.015 109.026 187.617 105.627 183.425 105.627H37.3175C33.1257 105.627 29.7275 109.026 29.7275 113.217C29.7275 117.409 33.1257 120.807 37.3175 120.807H81.5925C85.7844 120.807 89.1825 124.206 89.1825 128.397C89.1825 132.589 85.7844 135.987 81.5925 135.987H75.9C71.7082 135.987 68.31 139.386 68.31 143.577C68.31 147.769 71.7082 151.167 75.9 151.167H165.715C169.907 151.167 173.305 154.566 173.305 158.757C173.305 162.949 169.907 166.347 165.715 166.347H161.92C157.728 166.347 154.33 169.746 154.33 173.937C154.33 178.129 157.728 181.527 161.92 181.527H209.99C214.182 181.527 217.58 178.129 217.58 173.937C217.58 169.746 214.182 166.347 209.99 166.347H209.358L209.357 166.341C205.312 166.175 202.084 162.843 202.084 158.757C202.084 154.672 205.312 151.34 209.357 151.174L209.358 151.167H222.008C226.199 151.167 229.598 147.769 229.598 143.577C229.598 139.386 226.199 135.987 222.008 135.987H171.408L171.408 135.981C167.362 135.815 164.134 132.483 164.134 128.397C164.134 124.312 167.362 120.98 171.408 120.814L171.408 120.807H183.425C187.617 120.807 191.015 117.409 191.015 113.217ZM203.665 204.297C203.665 200.106 200.267 196.707 196.075 196.707H49.9675C45.7757 196.707 42.3775 200.106 42.3775 204.297C42.3775 208.489 45.7757 211.887 49.9675 211.887H75.9C80.0919 211.887 83.49 215.286 83.49 219.477C83.49 223.669 80.0919 227.067 75.9 227.067H73.37C69.1782 227.067 65.78 230.466 65.78 234.657C65.78 238.849 69.1782 242.247 73.37 242.247H121.44C125.632 242.247 129.03 238.849 129.03 234.657C129.03 230.466 125.632 227.067 121.44 227.067H119.543L119.542 227.061C115.497 226.895 112.269 223.563 112.269 219.477C112.269 215.392 115.497 212.06 119.542 211.894L119.543 211.887H196.075C200.267 211.887 203.665 208.489 203.665 204.297ZM74.0025 166.347C78.1944 166.347 81.5925 169.746 81.5925 173.937C81.5925 178.129 78.1944 181.527 74.0025 181.527H25.9325C21.7407 181.527 18.3425 178.129 18.3425 173.937C18.3425 169.746 21.7407 166.347 25.9325 166.347H74.0025ZM287.788 143.577C287.788 139.386 284.389 135.987 280.198 135.987H254.265C250.073 135.987 246.675 139.386 246.675 143.577C246.675 147.769 250.073 151.167 254.265 151.167H280.198C284.389 151.167 287.788 147.769 287.788 143.577ZM87.9175 75.2674C92.1094 75.2674 95.5075 78.6655 95.5075 82.8574C95.5075 87.0492 92.1094 90.4474 87.9175 90.4474H75.2675C71.0757 90.4474 67.6775 87.0492 67.6775 82.8574C67.6775 78.6655 71.0757 75.2674 75.2675 75.2674H87.9175ZM189.75 44.9074C193.942 44.9074 197.34 48.3055 197.34 52.4974C197.34 56.6892 193.942 60.0874 189.75 60.0874H177.1C172.908 60.0874 169.51 56.6892 169.51 52.4974C169.51 48.3055 172.908 44.9074 177.1 44.9074H189.75ZM75.9 52.4974C75.9 48.3055 72.5019 44.9074 68.31 44.9074H55.66C51.4682 44.9074 48.07 48.3055 48.07 52.4974C48.07 56.6892 51.4682 60.0874 55.66 60.0874H68.31C72.5019 60.0874 75.9 56.6892 75.9 52.4974Z" fill="#FFE6AE"/>
</g>
<mask id="mask1_0_4007" style="mask-type:luminance" maskUnits="userSpaceOnUse" x="0" y="0" width="253" height="253">
<circle cx="126.5" cy="126.5" r="126.5" fill="white"/>
</mask>
<g mask="url(#mask1_0_4007)">
<path fill-rule="evenodd" clip-rule="evenodd" d="M55.0274 120.808C59.2193 120.808 62.6174 124.206 62.6174 128.398C62.6174 132.589 59.2193 135.988 55.0274 135.988H52.4974C48.3056 135.988 44.9074 139.386 44.9074 143.578C44.9074 147.769 48.3056 151.168 52.4974 151.168H100.567C104.759 151.168 108.157 147.769 108.157 143.578C108.157 139.386 104.759 135.988 100.567 135.988H98.6699L98.6693 135.981C94.6245 135.815 91.3963 132.483 91.3963 128.398C91.3963 124.312 94.6245 120.98 98.6693 120.814L98.6699 120.808H141.68C145.872 120.808 149.27 117.409 149.27 113.218C149.27 109.026 145.872 105.628 141.68 105.628H40.4799L40.4802 105.621C36.4349 105.455 33.2062 102.124 33.2062 98.0376C33.2062 93.9516 36.4349 90.6197 40.4802 90.454L40.4799 90.4476H89.8149C94.0068 90.4476 97.4049 87.0494 97.4049 82.8576C97.4049 78.6657 94.0068 75.2676 89.8149 75.2676H-8.85507C-13.0469 75.2676 -16.4451 78.6657 -16.4451 82.8576C-16.4451 87.0494 -13.0469 90.4476 -8.85507 90.4476H10.1199C14.3118 90.4476 17.7099 93.8457 17.7099 98.0376C17.7099 102.229 14.3118 105.628 10.1199 105.628H1.26493C-2.92691 105.628 -6.32507 109.026 -6.32507 113.218C-6.32507 117.409 -2.92691 120.808 1.26493 120.808H55.0274ZM137.252 173.938C137.252 169.746 133.854 166.348 129.662 166.348H90.4474C86.2556 166.348 82.8574 169.746 82.8574 173.938C82.8574 178.129 86.2556 181.528 90.4474 181.528H129.662C133.854 181.528 137.252 178.129 137.252 173.938ZM143.577 135.988C147.769 135.988 151.167 139.386 151.167 143.578C151.167 147.769 147.769 151.168 143.577 151.168H130.927C126.736 151.168 123.337 147.769 123.337 143.578C123.337 139.386 126.736 135.988 130.927 135.988H143.577ZM262.487 143.578C262.487 139.386 259.089 135.988 254.897 135.988H191.015C186.823 135.988 183.425 139.386 183.425 143.578C183.425 147.769 186.823 151.168 191.015 151.168H254.897C259.089 151.168 262.487 147.769 262.487 143.578ZM22.1374 135.988C26.3293 135.988 29.7274 139.386 29.7274 143.578C29.7274 147.769 26.3293 151.168 22.1374 151.168H9.48743C5.29559 151.168 1.89743 147.769 1.89743 143.578C1.89743 139.386 5.29559 135.988 9.48743 135.988H22.1374ZM227.7 113.218C227.7 109.026 224.302 105.628 220.11 105.628H207.46C203.268 105.628 199.87 109.026 199.87 113.218C199.87 117.409 203.268 120.808 207.46 120.808H220.11C224.302 120.808 227.7 117.409 227.7 113.218Z" fill="#E29F58"/>
</g>
<mask id="mask2_0_4007" style="mask-type:luminance" maskUnits="userSpaceOnUse" x="0" y="0" width="253" height="253">
<circle cx="126.5" cy="126.5" r="126.5" fill="white"/>
</mask>
<g mask="url(#mask2_0_4007)">
<rect opacity="0.0775757" x="127.133" y="-15.8125" width="142.312" height="284.625" fill="black"/>
</g>
</svg>
