<svg width="224" height="224" viewBox="0 0 224 224" fill="none" xmlns="http://www.w3.org/2000/svg">
<circle cx="112" cy="112" r="112" fill="#ECAD7A"/>
<mask id="mask0_0_926" style="mask-type:luminance" maskUnits="userSpaceOnUse" x="0" y="0" width="224" height="224">
<circle cx="112" cy="112" r="112" fill="white"/>
</mask>
<g mask="url(#mask0_0_926)">
<path fill-rule="evenodd" clip-rule="evenodd" d="M14.6254 113.155C17.1761 113.155 19.2439 115.223 19.2439 117.773C19.2439 120.324 17.1761 122.392 14.6254 122.392H-45.4159C-47.9666 122.392 -50.0344 120.324 -50.0344 117.773C-50.0344 115.223 -47.9666 113.155 -45.4159 113.155H14.6254ZM99.2989 113.155C101.85 113.155 103.917 115.223 103.917 117.773C103.917 120.324 101.85 122.392 99.2989 122.392H69.2783L69.2784 122.396C66.8169 122.497 64.8522 124.524 64.8522 127.01C64.8522 129.497 66.8169 131.524 69.2784 131.625L69.2783 131.629H130.859C133.41 131.629 135.478 133.697 135.478 136.248C135.478 138.798 133.41 140.866 130.859 140.866H31.945C29.3942 140.866 27.3264 138.798 27.3264 136.248C27.3264 133.697 29.3942 131.629 31.945 131.629H50.8041C53.3548 131.629 55.4226 129.561 55.4226 127.01C55.4226 124.46 53.3548 122.392 50.8041 122.392H39.2577C36.7069 122.392 34.6391 120.324 34.6391 117.773C34.6391 115.223 36.7069 113.155 39.2577 113.155H99.2989ZM20.3986 150.103C22.9493 150.103 25.0171 152.171 25.0171 154.722C25.0171 157.273 22.9493 159.34 20.3986 159.34H-7.69765C-10.2484 159.34 -12.3162 157.273 -12.3162 154.722C-12.3162 152.171 -10.2484 150.103 -7.69765 150.103H20.3986ZM130.859 150.103C133.41 150.103 135.478 152.171 135.478 154.722C135.478 157.273 133.41 159.34 130.859 159.34H102.763C100.212 159.34 98.1443 157.273 98.1443 154.722C98.1443 152.171 100.212 150.103 102.763 150.103H130.859ZM232.467 154.722C232.467 152.171 230.4 150.103 227.849 150.103H163.959C161.408 150.103 159.34 152.171 159.34 154.722C159.34 157.273 161.408 159.34 163.959 159.34H227.849C230.4 159.34 232.467 157.273 232.467 154.722ZM159.34 122.392C161.891 122.392 163.959 124.46 163.959 127.01C163.959 129.561 161.891 131.629 159.34 131.629H155.876C153.325 131.629 151.258 133.697 151.258 136.248C151.258 138.798 153.325 140.866 155.876 140.866H254.79C257.341 140.866 259.409 138.798 259.409 136.248C259.409 133.697 257.341 131.629 254.79 131.629H177.814L177.815 131.625C175.353 131.524 173.388 129.497 173.388 127.01C173.388 124.524 175.353 122.497 177.815 122.396L177.814 122.392H187.051C189.602 122.392 191.67 120.324 191.67 117.773C191.67 115.223 189.602 113.155 187.051 113.155H127.01C124.459 113.155 122.392 115.223 122.392 117.773C122.392 120.324 124.459 122.392 127.01 122.392H159.34ZM274.034 117.773C274.034 115.223 271.966 113.155 269.416 113.155H209.375C206.824 113.155 204.756 115.223 204.756 117.773C204.756 120.324 206.824 122.392 209.375 122.392H269.416C271.966 122.392 274.034 120.324 274.034 117.773Z" fill="#F0D29F"/>
</g>
<mask id="mask1_0_926" style="mask-type:luminance" maskUnits="userSpaceOnUse" x="0" y="0" width="224" height="224">
<circle cx="112" cy="112" r="112" fill="white"/>
</mask>
<g mask="url(#mask1_0_926)">
<path d="M61.1959 154.722C61.1959 152.171 59.1281 150.103 56.5773 150.103H45.4158C42.865 150.103 40.7972 148.036 40.7972 145.485C40.7972 142.934 42.865 140.866 45.4158 140.866H84.2887C86.8394 140.866 88.9072 142.934 88.9072 145.485C88.9072 148.036 86.8394 150.103 84.2887 150.103H83.134L83.1336 150.107C80.6723 150.208 78.708 152.236 78.708 154.722C78.708 157.208 80.6723 159.235 83.1336 159.336L83.134 159.34H84.2887C86.8394 159.34 88.9072 161.408 88.9072 163.959C88.9072 166.51 86.8394 168.578 84.2887 168.578H55.0378C52.487 168.578 50.4192 166.51 50.4192 163.959C50.4192 161.408 52.487 159.34 55.0378 159.34H56.5773C59.1281 159.34 61.1959 157.273 61.1959 154.722Z" fill="#D86534"/>
</g>
<mask id="mask2_0_926" style="mask-type:luminance" maskUnits="userSpaceOnUse" x="0" y="0" width="224" height="224">
<circle cx="112" cy="112" r="112" fill="white"/>
</mask>
<g mask="url(#mask2_0_926)">
<path fill-rule="evenodd" clip-rule="evenodd" d="M179.354 20.7837C176.803 20.7837 174.735 22.8515 174.735 25.4022C174.735 27.953 176.803 30.0208 179.354 30.0208H239.395C241.946 30.0208 244.014 27.953 244.014 25.4022C244.014 22.8515 241.946 20.7837 239.395 20.7837H179.354ZM94.6805 20.7837C92.1297 20.7837 90.0619 22.8515 90.0619 25.4022C90.0619 27.953 92.1297 30.0208 94.6805 30.0208H124.701L124.701 30.0247C127.163 30.1255 129.127 32.153 129.127 34.6394C129.127 37.1257 127.163 39.1532 124.701 39.254L124.701 39.2579H63.1203C60.5696 39.2579 58.5018 41.3257 58.5018 43.8765C58.5018 46.4272 60.5696 48.495 63.1203 48.495H162.034C164.585 48.495 166.653 46.4272 166.653 43.8765C166.653 41.3257 164.585 39.2579 162.034 39.2579H143.175C140.625 39.2579 138.557 37.1901 138.557 34.6394C138.557 32.0886 140.625 30.0208 143.175 30.0208H154.722C157.272 30.0208 159.34 27.953 159.34 25.4022C159.34 22.8515 157.272 20.7837 154.722 20.7837H94.6805ZM173.581 57.7321C171.03 57.7321 168.962 59.7999 168.962 62.3507C168.962 64.9015 171.03 66.9693 173.581 66.9693H201.677C204.228 66.9693 206.296 64.9015 206.296 62.3507C206.296 59.7999 204.228 57.7321 201.677 57.7321H173.581ZM63.1203 57.7321C60.5696 57.7321 58.5018 59.7999 58.5018 62.3507C58.5018 64.9015 60.5696 66.9693 63.1203 66.9693H91.2165C93.7673 66.9693 95.8351 64.9015 95.8351 62.3507C95.8351 59.7999 93.7673 57.7321 91.2165 57.7321H63.1203ZM-38.4879 62.3507C-38.4879 59.7999 -36.4201 57.7321 -33.8694 57.7321H30.0207C32.5714 57.7321 34.6392 59.7999 34.6392 62.3507C34.6392 64.9015 32.5714 66.9693 30.0207 66.9693H-33.8694C-36.4201 66.9693 -38.4879 64.9015 -38.4879 62.3507ZM34.6392 30.0208C32.0885 30.0208 30.0207 32.0886 30.0207 34.6394C30.0207 37.1901 32.0885 39.2579 34.6392 39.2579H38.1031C40.6539 39.2579 42.7217 41.3257 42.7217 43.8765C42.7217 46.4272 40.6539 48.495 38.1031 48.495H-60.8109C-63.3617 48.495 -65.4295 46.4272 -65.4295 43.8765C-65.4295 41.3257 -63.3617 39.2579 -60.8109 39.2579H16.165L16.1649 39.254C18.6264 39.1532 20.5911 37.1257 20.5911 34.6394C20.5911 32.153 18.6264 30.1255 16.1649 30.0247L16.165 30.0208H6.92789C4.37714 30.0208 2.30933 27.953 2.30933 25.4022C2.30933 22.8515 4.37714 20.7837 6.92789 20.7837H66.9691C69.5199 20.7837 71.5877 22.8515 71.5877 25.4022C71.5877 27.953 69.5199 30.0208 66.9691 30.0208H34.6392ZM-80.0549 25.4022C-80.0549 22.8515 -77.9871 20.7837 -75.4364 20.7837H-15.3951C-12.8444 20.7837 -10.7766 22.8515 -10.7766 25.4022C-10.7766 27.953 -12.8444 30.0208 -15.3951 30.0208H-75.4364C-77.9871 30.0208 -80.0549 27.953 -80.0549 25.4022Z" fill="#DC8E61"/>
</g>
<mask id="mask3_0_926" style="mask-type:luminance" maskUnits="userSpaceOnUse" x="0" y="0" width="224" height="224">
<circle cx="112" cy="112" r="112" fill="white"/>
</mask>
<g mask="url(#mask3_0_926)">
<path fill-rule="evenodd" clip-rule="evenodd" d="M240.165 168.577C237.614 168.577 235.546 170.645 235.546 173.196C235.546 175.746 237.614 177.814 240.165 177.814H300.206C302.757 177.814 304.825 175.746 304.825 173.196C304.825 170.645 302.757 168.577 300.206 168.577H240.165ZM155.491 168.577C152.941 168.577 150.873 170.645 150.873 173.196C150.873 175.746 152.941 177.814 155.491 177.814H185.512L185.512 177.818C187.973 177.919 189.938 179.946 189.938 182.433C189.938 184.919 187.973 186.947 185.512 187.047L185.512 187.051H123.931C121.38 187.051 119.313 189.119 119.313 191.67C119.313 194.221 121.38 196.288 123.931 196.288H222.845C225.396 196.288 227.464 194.221 227.464 191.67C227.464 189.119 225.396 187.051 222.845 187.051H203.986C201.435 187.051 199.368 184.984 199.368 182.433C199.368 179.882 201.435 177.814 203.986 177.814H215.533C218.083 177.814 220.151 175.746 220.151 173.196C220.151 170.645 218.083 168.577 215.533 168.577H155.491ZM234.392 205.526C231.841 205.526 229.773 207.593 229.773 210.144C229.773 212.695 231.841 214.763 234.392 214.763H262.488C265.039 214.763 267.106 212.695 267.106 210.144C267.106 207.593 265.039 205.526 262.488 205.526H234.392ZM123.931 205.526C121.38 205.526 119.313 207.593 119.313 210.144C119.313 212.695 121.38 214.763 123.931 214.763H152.027C154.578 214.763 156.646 212.695 156.646 210.144C156.646 207.593 154.578 205.526 152.027 205.526H123.931ZM22.323 210.144C22.323 207.593 24.3908 205.526 26.9415 205.526H90.8316C93.3823 205.526 95.4501 207.593 95.4501 210.144C95.4501 212.695 93.3823 214.763 90.8316 214.763H26.9415C24.3908 214.763 22.323 212.695 22.323 210.144ZM95.4501 177.814C92.8994 177.814 90.8316 179.882 90.8316 182.433C90.8316 184.984 92.8994 187.051 95.4501 187.051H98.9141C101.465 187.051 103.533 189.119 103.533 191.67C103.533 194.221 101.465 196.288 98.9141 196.288H-3.05176e-05C-2.55078 196.288 -4.61859 194.221 -4.61859 191.67C-4.61859 189.119 -2.55078 187.051 -3.05176e-05 187.051H76.9759L76.9758 187.047C79.4373 186.947 81.402 184.919 81.402 182.433C81.402 179.946 79.4373 177.919 76.9758 177.818L76.9759 177.814H67.7388C65.188 177.814 63.1202 175.746 63.1202 173.196C63.1202 170.645 65.188 168.577 67.7388 168.577H127.78C130.331 168.577 132.399 170.645 132.399 173.196C132.399 175.746 130.331 177.814 127.78 177.814H95.4501ZM-19.244 173.196C-19.244 170.645 -17.1762 168.577 -14.6255 168.577H45.4158C47.9665 168.577 50.0343 170.645 50.0343 173.196C50.0343 175.746 47.9665 177.814 45.4158 177.814H-14.6255C-17.1762 177.814 -19.244 175.746 -19.244 173.196Z" fill="#D89D6D"/>
</g>
<mask id="mask4_0_926" style="mask-type:luminance" maskUnits="userSpaceOnUse" x="0" y="0" width="224" height="224">
<circle cx="112" cy="112" r="112" fill="white"/>
</mask>
<g mask="url(#mask4_0_926)">
<path fill-rule="evenodd" clip-rule="evenodd" d="M68.1237 85.4432C70.6745 85.4432 72.7423 87.511 72.7423 90.0617C72.7423 92.6125 70.6745 94.6803 68.1237 94.6803H64.2749C61.7242 94.6803 59.6564 96.7481 59.6564 99.2988C59.6564 101.85 61.7242 103.917 64.2749 103.917H98.5292C101.08 103.917 103.148 101.85 103.148 99.2988C103.148 96.7481 101.08 94.6803 98.5292 94.6803H94.6804L94.68 94.6763C92.2187 94.5752 90.2544 92.5479 90.2544 90.0617C90.2544 87.5756 92.2187 85.5483 94.68 85.4471L94.6804 85.4432H119.698C122.248 85.4432 124.316 83.3754 124.316 80.8246C124.316 78.2739 122.248 76.2061 119.698 76.2061H43.1065C40.5558 76.2061 38.488 78.2739 38.488 80.8246C38.488 83.3754 40.5558 85.4432 43.1065 85.4432H68.1237ZM50.4192 99.2988C50.4192 96.7481 48.3514 94.6803 45.8007 94.6803H21.9381C19.3874 94.6803 17.3196 96.7481 17.3196 99.2988C17.3196 101.85 19.3874 103.917 21.9381 103.917H45.8007C48.3514 103.917 50.4192 101.85 50.4192 99.2988ZM3.46391 94.6803C6.01467 94.6803 8.08247 96.7481 8.08247 99.2988C8.08247 101.85 6.01467 103.917 3.46391 103.917H-7.31272C-9.86348 103.917 -11.9313 101.85 -11.9313 99.2988C-11.9313 96.7481 -9.86348 94.6803 -7.31272 94.6803H3.46391ZM186.282 99.2988C186.282 96.7481 184.214 94.6803 181.663 94.6803H117.003C114.453 94.6803 112.385 96.7481 112.385 99.2988C112.385 101.85 114.453 103.917 117.003 103.917H181.663C184.214 103.917 186.282 101.85 186.282 99.2988ZM210.914 94.6803C213.465 94.6803 215.533 96.7481 215.533 99.2988C215.533 101.85 213.465 103.917 210.914 103.917H200.137C197.587 103.917 195.519 101.85 195.519 99.2988C195.519 96.7481 197.587 94.6803 200.137 94.6803H210.914ZM197.443 80.8246C197.443 78.2739 195.376 76.2061 192.825 76.2061H138.172C135.621 76.2061 133.553 78.2739 133.553 80.8246C133.553 83.3754 135.621 85.4432 138.172 85.4432H192.825C195.376 85.4432 197.443 83.3754 197.443 80.8246ZM230.543 76.2061C233.094 76.2061 235.161 78.2739 235.161 80.8246C235.161 83.3754 233.094 85.4432 230.543 85.4432H211.299C208.748 85.4432 206.68 83.3754 206.68 80.8246C206.68 78.2739 208.748 76.2061 211.299 76.2061H230.543ZM20.0137 80.8246C20.0137 78.2739 17.9459 76.2061 15.3952 76.2061H4.61855C2.06779 76.2061 -2.86102e-06 78.2739 -2.86102e-06 80.8246C-2.86102e-06 83.3754 2.06779 85.4432 4.61855 85.4432H15.3952C17.9459 85.4432 20.0137 83.3754 20.0137 80.8246Z" fill="#D89D6D"/>
</g>
<mask id="mask5_0_926" style="mask-type:luminance" maskUnits="userSpaceOnUse" x="0" y="0" width="224" height="224">
<circle cx="112" cy="112" r="112" fill="white"/>
</mask>
<g mask="url(#mask5_0_926)">
<rect opacity="0.0775757" x="112" width="112.385" height="224" fill="black"/>
</g>
</svg>
