<svg width="369" height="369" viewBox="0 0 369 369" fill="none" xmlns="http://www.w3.org/2000/svg">
<circle cx="184.5" cy="184.5" r="184.5" fill="#ECAD7A"/>
<mask id="mask0_54_6" style="mask-type:luminance" maskUnits="userSpaceOnUse" x="0" y="0" width="369" height="369">
<circle cx="184.5" cy="184.5" r="184.5" fill="white"/>
</mask>
<g mask="url(#mask0_54_6)">
<path fill-rule="evenodd" clip-rule="evenodd" d="M24.0927 186.402C28.2947 186.402 31.701 189.808 31.701 194.01C31.701 198.212 28.2947 201.619 24.0927 201.619H-74.8145C-79.0164 201.619 -82.4227 198.212 -82.4227 194.01C-82.4227 189.808 -79.0164 186.402 -74.8145 186.402H24.0927ZM163.577 186.402C167.779 186.402 171.185 189.808 171.185 194.01C171.185 198.212 167.779 201.619 163.577 201.619H114.124L114.124 201.625C110.069 201.791 106.832 205.131 106.832 209.227C106.832 213.323 110.069 216.663 114.124 216.829L114.124 216.835H215.567C219.769 216.835 223.175 220.241 223.175 224.443C223.175 228.645 219.769 232.052 215.567 232.052H52.6236C48.4217 232.052 45.0154 228.645 45.0154 224.443C45.0154 220.241 48.4217 216.835 52.6236 216.835H83.6906C87.8926 216.835 91.2989 213.429 91.2989 209.227C91.2989 205.025 87.8926 201.619 83.6906 201.619H64.67C60.4681 201.619 57.0618 198.212 57.0618 194.01C57.0618 189.808 60.4681 186.402 64.67 186.402H163.577ZM33.6031 247.268C37.805 247.268 41.2113 250.674 41.2113 254.876C41.2113 259.078 37.805 262.485 33.6031 262.485H-12.6805C-16.8824 262.485 -20.2887 259.078 -20.2887 254.876C-20.2887 250.674 -16.8824 247.268 -12.6805 247.268H33.6031ZM215.567 247.268C219.769 247.268 223.175 250.674 223.175 254.876C223.175 259.078 219.769 262.485 215.567 262.485H169.284C165.082 262.485 161.675 259.078 161.675 254.876C161.675 250.674 165.082 247.268 169.284 247.268H215.567ZM382.949 254.876C382.949 250.674 379.542 247.268 375.341 247.268H270.093C265.891 247.268 262.485 250.674 262.485 254.876C262.485 259.078 265.891 262.485 270.093 262.485H375.341C379.542 262.485 382.949 259.078 382.949 254.876ZM262.485 201.619C266.687 201.619 270.093 205.025 270.093 209.227C270.093 213.429 266.687 216.835 262.485 216.835H256.779C252.577 216.835 249.17 220.241 249.17 224.443C249.17 228.645 252.577 232.052 256.779 232.052H419.722C423.924 232.052 427.33 228.645 427.33 224.443C427.33 220.241 423.924 216.835 419.722 216.835H292.918L292.918 216.829C288.863 216.663 285.626 213.323 285.626 209.227C285.626 205.131 288.863 201.791 292.918 201.625L292.918 201.619H308.134C312.336 201.619 315.742 198.212 315.742 194.01C315.742 189.808 312.336 186.402 308.134 186.402H209.227C205.025 186.402 201.619 189.808 201.619 194.01C201.619 198.212 205.025 201.619 209.227 201.619H262.485ZM451.423 194.01C451.423 189.808 448.016 186.402 443.815 186.402H344.907C340.705 186.402 337.299 189.808 337.299 194.01C337.299 198.212 340.705 201.619 344.907 201.619H443.815C448.016 201.619 451.423 198.212 451.423 194.01Z" fill="#F0D29F"/>
</g>
<mask id="mask1_54_6" style="mask-type:luminance" maskUnits="userSpaceOnUse" x="0" y="0" width="369" height="369">
<circle cx="184.5" cy="184.5" r="184.5" fill="white"/>
</mask>
<g mask="url(#mask1_54_6)">
<path d="M100.809 254.876C100.809 250.674 97.4028 247.268 93.2009 247.268H74.8143C70.6124 247.268 67.2061 243.862 67.2061 239.66C67.2061 235.458 70.6124 232.052 74.8143 232.052H138.85C143.052 232.052 146.459 235.458 146.459 239.66C146.459 243.862 143.052 247.268 138.85 247.268H136.948L136.948 247.275C132.893 247.441 129.657 250.781 129.657 254.876C129.657 258.972 132.893 262.311 136.948 262.478L136.948 262.485H138.85C143.052 262.485 146.459 265.891 146.459 270.093C146.459 274.295 143.052 277.701 138.85 277.701H90.6648C86.4629 277.701 83.0566 274.295 83.0566 270.093C83.0566 265.891 86.4629 262.485 90.6648 262.485H93.2009C97.4028 262.485 100.809 259.078 100.809 254.876Z" fill="#D86534"/>
</g>
<mask id="mask2_54_6" style="mask-type:luminance" maskUnits="userSpaceOnUse" x="0" y="0" width="369" height="369">
<circle cx="184.5" cy="184.5" r="184.5" fill="white"/>
</mask>
<g mask="url(#mask2_54_6)">
<path fill-rule="evenodd" clip-rule="evenodd" d="M295.454 34.2371C291.252 34.2371 287.845 37.6434 287.845 41.8453C287.845 46.0472 291.252 49.4536 295.454 49.4536H394.361C398.563 49.4536 401.969 46.0472 401.969 41.8453C401.969 37.6434 398.563 34.2371 394.361 34.2371H295.454ZM155.969 34.2371C151.767 34.2371 148.361 37.6434 148.361 41.8453C148.361 46.0472 151.767 49.4536 155.969 49.4536H205.423L205.422 49.46C209.477 49.6261 212.714 52.966 212.714 57.0618C212.714 61.1576 209.477 64.4975 205.422 64.6636L205.423 64.67H103.979C99.7773 64.67 96.371 68.0764 96.371 72.2783C96.371 76.4802 99.7773 79.8865 103.979 79.8865H266.923C271.124 79.8865 274.531 76.4802 274.531 72.2783C274.531 68.0764 271.124 64.67 266.923 64.67H235.856C231.654 64.67 228.247 61.2637 228.247 57.0618C228.247 52.8599 231.654 49.4536 235.856 49.4536H254.876C259.078 49.4536 262.484 46.0472 262.484 41.8453C262.484 37.6434 259.078 34.2371 254.876 34.2371H155.969ZM285.943 95.1031C281.741 95.1031 278.335 98.5094 278.335 102.711C278.335 106.913 281.741 110.32 285.943 110.32H332.227C336.429 110.32 339.835 106.913 339.835 102.711C339.835 98.5094 336.429 95.1031 332.227 95.1031H285.943ZM103.979 95.1031C99.7774 95.1031 96.3711 98.5094 96.3711 102.711C96.3711 106.913 99.7774 110.32 103.979 110.32H150.263C154.465 110.32 157.871 106.913 157.871 102.711C157.871 98.5094 154.465 95.1031 150.263 95.1031H103.979ZM-63.4022 102.711C-63.4022 98.5094 -59.9958 95.1031 -55.7939 95.1031H49.4535C53.6554 95.1031 57.0618 98.5094 57.0618 102.711C57.0618 106.913 53.6554 110.32 49.4535 110.32H-55.7939C-59.9958 110.32 -63.4022 106.913 -63.4022 102.711ZM57.0619 49.4536C52.86 49.4536 49.4536 52.8599 49.4536 57.0618C49.4536 61.2637 52.86 64.67 57.0619 64.67H62.7681C66.97 64.67 70.3763 68.0764 70.3763 72.2783C70.3763 76.4802 66.97 79.8865 62.7681 79.8865H-100.175C-104.377 79.8865 -107.783 76.4802 -107.783 72.2783C-107.783 68.0764 -104.377 64.67 -100.175 64.67H26.6289L26.6286 64.6636C30.6837 64.4975 33.9201 61.1576 33.9201 57.0618C33.9201 52.966 30.6837 49.6261 26.6286 49.46L26.6289 49.4536H11.4124C7.21048 49.4536 3.80414 46.0472 3.80414 41.8453C3.80414 37.6434 7.21048 34.2371 11.4124 34.2371H110.32C114.522 34.2371 117.928 37.6434 117.928 41.8453C117.928 46.0472 114.522 49.4536 110.32 49.4536H57.0619ZM-131.876 41.8453C-131.876 37.6434 -128.47 34.2371 -124.268 34.2371H-25.3608C-21.1589 34.2371 -17.7525 37.6434 -17.7525 41.8453C-17.7525 46.0472 -21.1589 49.4536 -25.3608 49.4536H-124.268C-128.47 49.4536 -131.876 46.0472 -131.876 41.8453Z" fill="#DC8E61"/>
</g>
<mask id="mask3_54_6" style="mask-type:luminance" maskUnits="userSpaceOnUse" x="0" y="0" width="369" height="369">
<circle cx="184.5" cy="184.5" r="184.5" fill="white"/>
</mask>
<g mask="url(#mask3_54_6)">
<path fill-rule="evenodd" clip-rule="evenodd" d="M395.629 277.701C391.427 277.701 388.021 281.107 388.021 285.309C388.021 289.511 391.427 292.917 395.629 292.917H494.536C498.738 292.917 502.144 289.511 502.144 285.309C502.144 281.107 498.738 277.701 494.536 277.701H395.629ZM256.144 277.701C251.942 277.701 248.536 281.107 248.536 285.309C248.536 289.511 251.942 292.917 256.144 292.917H305.598L305.598 292.924C309.653 293.09 312.889 296.43 312.889 300.526C312.889 304.621 309.653 307.961 305.598 308.127L305.598 308.134H204.155C199.953 308.134 196.546 311.54 196.546 315.742C196.546 319.944 199.953 323.35 204.155 323.35H367.098C371.3 323.35 374.706 319.944 374.706 315.742C374.706 311.54 371.3 308.134 367.098 308.134H336.031C331.829 308.134 328.423 304.728 328.423 300.526C328.423 296.324 331.829 292.917 336.031 292.917H355.051C359.253 292.917 362.66 289.511 362.66 285.309C362.66 281.107 359.253 277.701 355.051 277.701H256.144ZM386.119 338.567C381.917 338.567 378.51 341.973 378.51 346.175C378.51 350.377 381.917 353.783 386.119 353.783H432.402C436.604 353.783 440.01 350.377 440.01 346.175C440.01 341.973 436.604 338.567 432.402 338.567H386.119ZM204.155 338.567C199.953 338.567 196.546 341.973 196.546 346.175C196.546 350.377 199.953 353.783 204.155 353.783H250.438C254.64 353.783 258.046 350.377 258.046 346.175C258.046 341.973 254.64 338.567 250.438 338.567H204.155ZM36.7731 346.175C36.7731 341.973 40.1795 338.567 44.3814 338.567H149.629C153.831 338.567 157.237 341.973 157.237 346.175C157.237 350.377 153.831 353.783 149.629 353.783H44.3814C40.1795 353.783 36.7731 350.377 36.7731 346.175ZM157.237 292.917C153.035 292.917 149.629 296.324 149.629 300.526C149.629 304.728 153.035 308.134 157.237 308.134H162.943C167.145 308.134 170.552 311.54 170.552 315.742C170.552 319.944 167.145 323.35 162.943 323.35H9.15527e-05C-4.20184 323.35 -7.60815 319.944 -7.60815 315.742C-7.60815 311.54 -4.20184 308.134 9.15527e-05 308.134H126.804L126.804 308.127C130.859 307.961 134.095 304.621 134.095 300.526C134.095 296.43 130.859 293.09 126.804 292.924L126.804 292.917H111.588C107.386 292.917 103.979 289.511 103.979 285.309C103.979 281.107 107.386 277.701 111.588 277.701H210.495C214.697 277.701 218.103 281.107 218.103 285.309C218.103 289.511 214.697 292.917 210.495 292.917H157.237ZM-31.7009 285.309C-31.7009 281.107 -28.2946 277.701 -24.0927 277.701H74.8145C79.0164 277.701 82.4228 281.107 82.4228 285.309C82.4228 289.511 79.0164 292.917 74.8145 292.917H-24.0927C-28.2946 292.917 -31.7009 289.511 -31.7009 285.309Z" fill="#D89D6D"/>
</g>
<mask id="mask4_54_6" style="mask-type:luminance" maskUnits="userSpaceOnUse" x="0" y="0" width="369" height="369">
<circle cx="184.5" cy="184.5" r="184.5" fill="white"/>
</mask>
<g mask="url(#mask4_54_6)">
<path fill-rule="evenodd" clip-rule="evenodd" d="M112.222 140.753C116.423 140.753 119.83 144.159 119.83 148.361C119.83 152.563 116.423 155.969 112.222 155.969H105.881C101.679 155.969 98.2731 159.375 98.2731 163.577C98.2731 167.779 101.679 171.185 105.881 171.185H162.309C166.511 171.185 169.917 167.779 169.917 163.577C169.917 159.375 166.511 155.969 162.309 155.969H155.969L155.968 155.962C151.914 155.796 148.678 152.456 148.678 148.361C148.678 144.265 151.914 140.926 155.968 140.759L155.969 140.753H197.18C201.382 140.753 204.789 137.346 204.789 133.144C204.789 128.942 201.382 125.536 197.18 125.536H71.0102C66.8083 125.536 63.402 128.942 63.402 133.144C63.402 137.346 66.8083 140.753 71.0102 140.753H112.222ZM83.0567 163.577C83.0567 159.375 79.6503 155.969 75.4484 155.969H36.1391C31.9372 155.969 28.5309 159.375 28.5309 163.577C28.5309 167.779 31.9372 171.186 36.1391 171.186H75.4484C79.6503 171.186 83.0567 167.779 83.0567 163.577ZM5.70617 155.969C9.90808 155.969 13.3144 159.375 13.3144 163.577C13.3144 167.779 9.90808 171.186 5.70617 171.186H-12.0464C-16.2483 171.186 -19.6547 167.779 -19.6547 163.577C-19.6547 159.375 -16.2483 155.969 -12.0464 155.969H5.70617ZM306.866 163.577C306.866 159.375 303.459 155.969 299.258 155.969H192.742C188.54 155.969 185.134 159.375 185.134 163.577C185.134 167.779 188.54 171.186 192.742 171.186H299.258C303.459 171.186 306.866 167.779 306.866 163.577ZM347.443 155.969C351.645 155.969 355.051 159.375 355.051 163.577C355.051 167.779 351.645 171.186 347.443 171.186H329.691C325.489 171.186 322.082 167.779 322.082 163.577C322.082 159.375 325.489 155.969 329.691 155.969H347.443ZM325.253 133.144C325.253 128.942 321.846 125.536 317.644 125.536H227.613C223.411 125.536 220.005 128.942 220.005 133.144C220.005 137.346 223.411 140.753 227.613 140.753H317.644C321.846 140.753 325.253 137.346 325.253 133.144ZM379.778 125.536C383.98 125.536 387.387 128.942 387.387 133.144C387.387 137.346 383.98 140.753 379.778 140.753H348.077C343.875 140.753 340.469 137.346 340.469 133.144C340.469 128.942 343.875 125.536 348.077 125.536H379.778ZM32.9691 133.144C32.9691 128.942 29.5627 125.536 25.3608 125.536H7.60825C3.40633 125.536 0 128.942 0 133.144C0 137.346 3.40633 140.753 7.60825 140.753H25.3608C29.5627 140.753 32.9691 137.346 32.9691 133.144Z" fill="#D89D6D"/>
</g>
<mask id="mask5_54_6" style="mask-type:luminance" maskUnits="userSpaceOnUse" x="0" y="0" width="369" height="369">
<circle cx="184.5" cy="184.5" r="184.5" fill="white"/>
</mask>
<g mask="url(#mask5_54_6)">
<rect opacity="0.0775757" x="184.5" width="185.134" height="369" fill="black"/>
</g>
<path fill-rule="evenodd" clip-rule="evenodd" d="M184.5 365.83C284.596 365.83 365.749 284.727 365.83 184.65V184.35C365.749 84.2731 284.596 3.17017 184.5 3.17017C184.5 3.17017 184.5 3.17017 184.5 3.17017L184.5 365.83Z" fill="#A15C3E"/>
<mask id="mask6_54_6" style="mask-type:luminance" maskUnits="userSpaceOnUse" x="184" y="3" width="182" height="363">
<path fill-rule="evenodd" clip-rule="evenodd" d="M184.5 365.83C284.596 365.83 365.749 284.727 365.83 184.65V184.35C365.749 84.2731 284.596 3.17017 184.5 3.17017C184.5 3.17017 184.5 3.17017 184.5 3.17017L184.5 365.83Z" fill="white"/>
</mask>
<g mask="url(#mask6_54_6)">
<circle cx="184.817" cy="184.817" r="170.869" fill="#F0D29F"/>
<circle cx="185.451" cy="184.817" r="134.729" fill="#E2BE81"/>
<circle cx="185.451" cy="184.817" r="118.879" fill="#D27140"/>
<circle cx="184.5" cy="184.5" r="26.6289" fill="#565658"/>
</g>
</svg>
