<svg width="369" height="369" viewBox="0 0 369 369" fill="none" xmlns="http://www.w3.org/2000/svg">
<circle cx="184.5" cy="184.5" r="184.5" fill="#ECAD7A"/>
<mask id="mask0_0_3213" style="mask-type:luminance" maskUnits="userSpaceOnUse" x="0" y="0" width="369" height="369">
<circle cx="184.5" cy="184.5" r="184.5" fill="white"/>
</mask>
<g mask="url(#mask0_0_3213)">
<path fill-rule="evenodd" clip-rule="evenodd" d="M24.0928 186.402C28.2947 186.402 31.701 189.808 31.701 194.01C31.701 198.212 28.2947 201.618 24.0928 201.618H-74.8144C-79.0163 201.618 -82.4227 198.212 -82.4227 194.01C-82.4227 189.808 -79.0163 186.402 -74.8144 186.402H24.0928ZM163.577 186.402C167.779 186.402 171.186 189.808 171.186 194.01C171.186 198.212 167.779 201.618 163.577 201.618H114.124L114.124 201.625C110.069 201.791 106.832 205.131 106.832 209.227C106.832 213.322 110.069 216.662 114.124 216.828L114.124 216.835H215.567C219.769 216.835 223.175 220.241 223.175 224.443C223.175 228.645 219.769 232.051 215.567 232.051H52.6237C48.4218 232.051 45.0155 228.645 45.0155 224.443C45.0155 220.241 48.4218 216.835 52.6237 216.835H83.6907C87.8927 216.835 91.299 213.429 91.299 209.227C91.299 205.025 87.8927 201.618 83.6907 201.618H64.6701C60.4682 201.618 57.0619 198.212 57.0619 194.01C57.0619 189.808 60.4682 186.402 64.6701 186.402H163.577ZM33.6031 247.268C37.805 247.268 41.2113 250.674 41.2113 254.876C41.2113 259.078 37.805 262.484 33.6031 262.484H-12.6804C-16.8823 262.484 -20.2886 259.078 -20.2886 254.876C-20.2886 250.674 -16.8823 247.268 -12.6804 247.268H33.6031ZM215.567 247.268C219.769 247.268 223.175 250.674 223.175 254.876C223.175 259.078 219.769 262.484 215.567 262.484H169.284C165.082 262.484 161.675 259.078 161.675 254.876C161.675 250.674 165.082 247.268 169.284 247.268H215.567ZM382.948 254.876C382.948 250.674 379.542 247.268 375.34 247.268H270.093C265.891 247.268 262.485 250.674 262.485 254.876C262.485 259.078 265.891 262.484 270.093 262.484H375.34C379.542 262.484 382.948 259.078 382.948 254.876ZM262.485 201.618C266.686 201.618 270.093 205.025 270.093 209.227C270.093 213.429 266.686 216.835 262.485 216.835H256.778C252.576 216.835 249.17 220.241 249.17 224.443C249.17 228.645 252.576 232.051 256.778 232.051H419.722C423.924 232.051 427.33 228.645 427.33 224.443C427.33 220.241 423.924 216.835 419.722 216.835H292.918L292.918 216.828C288.863 216.662 285.626 213.322 285.626 209.227C285.626 205.131 288.863 201.791 292.918 201.625L292.918 201.618H308.134C312.336 201.618 315.742 198.212 315.742 194.01C315.742 189.808 312.336 186.402 308.134 186.402H209.227C205.025 186.402 201.619 189.808 201.619 194.01C201.619 198.212 205.025 201.618 209.227 201.618H262.485ZM451.423 194.01C451.423 189.808 448.016 186.402 443.814 186.402H344.907C340.705 186.402 337.299 189.808 337.299 194.01C337.299 198.212 340.705 201.618 344.907 201.618H443.814C448.016 201.618 451.423 198.212 451.423 194.01Z" fill="#F0D29F"/>
</g>
<mask id="mask1_0_3213" style="mask-type:luminance" maskUnits="userSpaceOnUse" x="0" y="0" width="369" height="369">
<circle cx="184.5" cy="184.5" r="184.5" fill="white"/>
</mask>
<g mask="url(#mask1_0_3213)">
<path d="M100.809 254.876C100.809 250.675 97.4029 247.268 93.201 247.268H74.8144C70.6125 247.268 67.2062 243.862 67.2062 239.66C67.2062 235.458 70.6125 232.052 74.8144 232.052H138.851C143.052 232.052 146.459 235.458 146.459 239.66C146.459 243.862 143.052 247.268 138.851 247.268H136.948L136.948 247.275C132.893 247.441 129.657 250.781 129.657 254.876C129.657 258.972 132.893 262.312 136.948 262.478L136.948 262.485H138.851C143.052 262.485 146.459 265.891 146.459 270.093C146.459 274.295 143.052 277.701 138.851 277.701H90.6649C86.463 277.701 83.0567 274.295 83.0567 270.093C83.0567 265.891 86.463 262.485 90.6649 262.485H93.201C97.4029 262.485 100.809 259.078 100.809 254.876Z" fill="#D86534"/>
</g>
<mask id="mask2_0_3213" style="mask-type:luminance" maskUnits="userSpaceOnUse" x="0" y="0" width="369" height="369">
<circle cx="184.5" cy="184.5" r="184.5" fill="white"/>
</mask>
<g mask="url(#mask2_0_3213)">
<path fill-rule="evenodd" clip-rule="evenodd" d="M295.454 34.2373C291.252 34.2373 287.845 37.6436 287.845 41.8456C287.845 46.0475 291.252 49.4538 295.454 49.4538H394.361C398.563 49.4538 401.969 46.0475 401.969 41.8456C401.969 37.6436 398.563 34.2373 394.361 34.2373H295.454ZM155.969 34.2373C151.767 34.2373 148.361 37.6436 148.361 41.8456C148.361 46.0475 151.767 49.4538 155.969 49.4538H205.423L205.422 49.4603C209.477 49.6263 212.714 52.9662 212.714 57.062C212.714 61.1579 209.477 64.4977 205.422 64.6638L205.423 64.6703H103.979C99.7775 64.6703 96.3712 68.0766 96.3712 72.2785C96.3712 76.4805 99.7775 79.8868 103.979 79.8868H266.923C271.125 79.8868 274.531 76.4805 274.531 72.2785C274.531 68.0766 271.125 64.6703 266.923 64.6703H235.856C231.654 64.6703 228.247 61.264 228.247 57.062C228.247 52.8601 231.654 49.4538 235.856 49.4538H254.876C259.078 49.4538 262.485 46.0475 262.485 41.8456C262.485 37.6436 259.078 34.2373 254.876 34.2373H155.969ZM285.943 95.1033C281.741 95.1033 278.335 98.5096 278.335 102.712C278.335 106.913 281.741 110.32 285.943 110.32H332.227C336.429 110.32 339.835 106.913 339.835 102.712C339.835 98.5096 336.429 95.1033 332.227 95.1033H285.943ZM103.979 95.1033C99.7775 95.1033 96.3712 98.5096 96.3712 102.712C96.3712 106.913 99.7775 110.32 103.979 110.32H150.263C154.465 110.32 157.871 106.913 157.871 102.712C157.871 98.5096 154.465 95.1033 150.263 95.1033H103.979ZM-63.4021 102.712C-63.4021 98.5096 -59.9957 95.1033 -55.7938 95.1033H49.4536C53.6555 95.1033 57.0619 98.5096 57.0619 102.712C57.0619 106.913 53.6555 110.32 49.4536 110.32H-55.7938C-59.9957 110.32 -63.4021 106.913 -63.4021 102.712ZM57.0619 49.4538C52.86 49.4538 49.4536 52.8601 49.4536 57.062C49.4536 61.264 52.86 64.6703 57.0619 64.6703H62.7681C66.97 64.6703 70.3763 68.0766 70.3763 72.2785C70.3763 76.4805 66.97 79.8868 62.7681 79.8868H-100.175C-104.377 79.8868 -107.783 76.4805 -107.783 72.2785C-107.783 68.0766 -104.377 64.6703 -100.175 64.6703H26.6289L26.6286 64.6638C30.6837 64.4977 33.9201 61.1579 33.9201 57.062C33.9201 52.9662 30.6837 49.6263 26.6286 49.4603L26.6289 49.4538H11.4124C7.21048 49.4538 3.80414 46.0475 3.80414 41.8456C3.80414 37.6436 7.21048 34.2373 11.4124 34.2373H110.32C114.522 34.2373 117.928 37.6436 117.928 41.8456C117.928 46.0475 114.522 49.4538 110.32 49.4538H57.0619ZM-131.876 41.8456C-131.876 37.6436 -128.47 34.2373 -124.268 34.2373H-25.3608C-21.1589 34.2373 -17.7526 37.6436 -17.7526 41.8456C-17.7526 46.0475 -21.1589 49.4538 -25.3608 49.4538H-124.268C-128.47 49.4538 -131.876 46.0475 -131.876 41.8456Z" fill="#DC8E61"/>
</g>
<mask id="mask3_0_3213" style="mask-type:luminance" maskUnits="userSpaceOnUse" x="0" y="0" width="369" height="369">
<circle cx="184.5" cy="184.5" r="184.5" fill="white"/>
</mask>
<g mask="url(#mask3_0_3213)">
<path fill-rule="evenodd" clip-rule="evenodd" d="M395.629 277.701C391.427 277.701 388.021 281.108 388.021 285.309C388.021 289.511 391.427 292.918 395.629 292.918H494.536C498.738 292.918 502.144 289.511 502.144 285.309C502.144 281.108 498.738 277.701 494.536 277.701H395.629ZM256.144 277.701C251.942 277.701 248.536 281.108 248.536 285.309C248.536 289.511 251.942 292.918 256.144 292.918H305.598L305.598 292.924C309.653 293.09 312.889 296.43 312.889 300.526C312.889 304.622 309.653 307.962 305.598 308.128L305.598 308.134H204.155C199.953 308.134 196.546 311.54 196.546 315.742C196.546 319.944 199.953 323.351 204.155 323.351H367.098C371.3 323.351 374.706 319.944 374.706 315.742C374.706 311.54 371.3 308.134 367.098 308.134H336.031C331.829 308.134 328.423 304.728 328.423 300.526C328.423 296.324 331.829 292.918 336.031 292.918H355.052C359.253 292.918 362.66 289.511 362.66 285.309C362.66 281.108 359.253 277.701 355.052 277.701H256.144ZM386.119 338.567C381.917 338.567 378.51 341.973 378.51 346.175C378.51 350.377 381.917 353.784 386.119 353.784H432.402C436.604 353.784 440.01 350.377 440.01 346.175C440.01 341.973 436.604 338.567 432.402 338.567H386.119ZM204.155 338.567C199.953 338.567 196.546 341.973 196.546 346.175C196.546 350.377 199.953 353.784 204.155 353.784H250.438C254.64 353.784 258.046 350.377 258.046 346.175C258.046 341.973 254.64 338.567 250.438 338.567H204.155ZM36.7732 346.175C36.7732 341.973 40.1795 338.567 44.3814 338.567H149.629C153.831 338.567 157.237 341.973 157.237 346.175C157.237 350.377 153.831 353.784 149.629 353.784H44.3814C40.1795 353.784 36.7732 350.377 36.7732 346.175ZM157.237 292.918C153.035 292.918 149.629 296.324 149.629 300.526C149.629 304.728 153.035 308.134 157.237 308.134H162.943C167.145 308.134 170.552 311.54 170.552 315.742C170.552 319.944 167.145 323.351 162.943 323.351H0C-4.2019 323.351 -7.60825 319.944 -7.60825 315.742C-7.60825 311.54 -4.2019 308.134 0 308.134H126.804L126.804 308.128C130.859 307.962 134.095 304.622 134.095 300.526C134.095 296.43 130.859 293.09 126.804 292.924L126.804 292.918H111.588C107.386 292.918 103.979 289.511 103.979 285.309C103.979 281.108 107.386 277.701 111.588 277.701H210.495C214.697 277.701 218.103 281.108 218.103 285.309C218.103 289.511 214.697 292.918 210.495 292.918H157.237ZM-31.701 285.309C-31.701 281.108 -28.2947 277.701 -24.0928 277.701H74.8144C79.0163 277.701 82.4227 281.108 82.4227 285.309C82.4227 289.511 79.0163 292.918 74.8144 292.918H-24.0928C-28.2947 292.918 -31.701 289.511 -31.701 285.309Z" fill="#D89D6D"/>
</g>
<mask id="mask4_0_3213" style="mask-type:luminance" maskUnits="userSpaceOnUse" x="0" y="0" width="369" height="369">
<circle cx="184.5" cy="184.5" r="184.5" fill="white"/>
</mask>
<g mask="url(#mask4_0_3213)">
<path fill-rule="evenodd" clip-rule="evenodd" d="M112.222 140.753C116.424 140.753 119.83 144.159 119.83 148.361C119.83 152.563 116.424 155.969 112.222 155.969H105.881C101.68 155.969 98.2732 159.375 98.2732 163.577C98.2732 167.779 101.68 171.186 105.881 171.186H162.309C166.511 171.186 169.918 167.779 169.918 163.577C169.918 159.375 166.511 155.969 162.309 155.969H155.969L155.968 155.963C151.914 155.796 148.678 152.456 148.678 148.361C148.678 144.265 151.914 140.926 155.968 140.759L155.969 140.753H197.18C201.382 140.753 204.789 137.346 204.789 133.144C204.789 128.942 201.382 125.536 197.18 125.536H71.0103C66.8084 125.536 63.402 128.942 63.402 133.144C63.402 137.346 66.8084 140.753 71.0103 140.753H112.222ZM83.0567 163.577C83.0567 159.375 79.6503 155.969 75.4484 155.969H36.1391C31.9372 155.969 28.5309 159.375 28.5309 163.577C28.5309 167.779 31.9372 171.186 36.1391 171.186H75.4484C79.6503 171.186 83.0567 167.779 83.0567 163.577ZM5.70616 155.969C9.90808 155.969 13.3144 159.375 13.3144 163.577C13.3144 167.779 9.90808 171.186 5.70616 171.186H-12.0464C-16.2483 171.186 -19.6547 167.779 -19.6547 163.577C-19.6547 159.375 -16.2483 155.969 -12.0464 155.969H5.70616ZM306.866 163.577C306.866 159.375 303.46 155.969 299.258 155.969H192.742C188.54 155.969 185.134 159.375 185.134 163.577C185.134 167.779 188.54 171.186 192.742 171.186H299.258C303.46 171.186 306.866 167.779 306.866 163.577ZM347.443 155.969C351.645 155.969 355.052 159.375 355.052 163.577C355.052 167.779 351.645 171.186 347.443 171.186H329.691C325.489 171.186 322.082 167.779 322.082 163.577C322.082 159.375 325.489 155.969 329.691 155.969H347.443ZM325.253 133.144C325.253 128.942 321.846 125.536 317.644 125.536H227.613C223.411 125.536 220.005 128.942 220.005 133.144C220.005 137.346 223.411 140.753 227.613 140.753H317.644C321.846 140.753 325.253 137.346 325.253 133.144ZM379.778 125.536C383.98 125.536 387.387 128.942 387.387 133.144C387.387 137.346 383.98 140.753 379.778 140.753H348.077C343.875 140.753 340.469 137.346 340.469 133.144C340.469 128.942 343.875 125.536 348.077 125.536H379.778ZM32.969 133.144C32.969 128.942 29.5627 125.536 25.3608 125.536H7.60822C3.4063 125.536 -2.47955e-05 128.942 -2.47955e-05 133.144C-2.47955e-05 137.346 3.4063 140.753 7.60822 140.753H25.3608C29.5627 140.753 32.969 137.346 32.969 133.144Z" fill="#D89D6D"/>
</g>
<mask id="mask5_0_3213" style="mask-type:luminance" maskUnits="userSpaceOnUse" x="0" y="0" width="369" height="369">
<circle cx="184.5" cy="184.5" r="184.5" fill="white"/>
</mask>
<g mask="url(#mask5_0_3213)">
<rect opacity="0.0775757" x="184.5" width="185.134" height="369" fill="black"/>
</g>
</svg>
