<svg width="285" height="285" viewBox="0 0 285 285" fill="none" xmlns="http://www.w3.org/2000/svg">
<circle cx="142.5" cy="142.5" r="142.5" fill="#545BFE"/>
<mask id="mask0_54_4" style="mask-type:luminance" maskUnits="userSpaceOnUse" x="0" y="0" width="285" height="285">
<circle cx="142.5" cy="142.5" r="142.5" fill="white"/>
</mask>
<g mask="url(#mask0_54_4)">
<path fill-rule="evenodd" clip-rule="evenodd" d="M119.067 17.1001C119.067 12.9028 115.664 9.50012 111.467 9.50012H-18.3667C-22.564 9.50012 -25.9667 12.9028 -25.9667 17.1001C-25.9667 21.2975 -22.564 24.7001 -18.3667 24.7001H12.0333C16.2307 24.7001 19.6333 28.1028 19.6333 32.3001C19.6333 36.4975 16.2307 39.9001 12.0333 39.9001H8.23333C4.03596 39.9001 0.633326 43.3028 0.633326 47.5001C0.633326 51.6975 4.03596 55.1001 8.23333 55.1001H5.69999C9.89735 55.1001 13.3 58.5028 13.3 62.7001C13.3 66.8975 9.89735 70.3001 5.69999 70.3001H-0.633343C-4.83071 70.3001 -8.23334 73.7028 -8.23334 77.9001C-8.23334 82.0975 -4.83071 85.5001 -0.633343 85.5001H74.7333C78.9307 85.5001 82.3333 82.0975 82.3333 77.9001C82.3333 73.7028 78.9307 70.3001 74.7333 70.3001H71.5667L71.5667 70.2936C67.5162 70.1275 64.2835 66.7914 64.2835 62.7001C64.2835 58.6089 67.5162 55.2727 71.5667 55.1066L71.5667 55.1001H115.267C119.464 55.1001 122.867 51.6975 122.867 47.5001C122.867 43.3028 119.464 39.9001 115.267 39.9001H110.833V39.8936C106.783 39.7275 103.55 36.3914 103.55 32.3001C103.55 28.2089 106.783 24.8727 110.833 24.7066V24.7001H111.467C115.664 24.7001 119.067 21.2975 119.067 17.1001ZM62.0667 100.7C66.264 100.7 69.6667 104.103 69.6667 108.3C69.6667 112.497 66.264 115.9 62.0667 115.9C57.8693 115.9 54.4667 112.497 54.4667 108.3C54.4667 104.103 57.8693 100.7 62.0667 100.7ZM38.6334 123.5C38.6334 119.303 35.2308 115.9 31.0334 115.9H8.86673C4.66936 115.9 1.26672 119.303 1.26672 123.5C1.26672 127.697 4.66936 131.1 8.86673 131.1H31.0334C35.2308 131.1 38.6334 127.697 38.6334 123.5ZM92.4668 214.7C92.4668 218.897 89.0641 222.3 84.8668 222.3H88.0334C83.8361 222.3 80.4334 225.703 80.4334 229.9C80.4334 234.097 83.8361 237.5 88.0334 237.5H106.4C110.597 237.5 114 234.097 114 229.9C114 225.703 110.597 222.3 106.4 222.3H108.933V222.293C104.883 222.127 101.65 218.791 101.65 214.7C101.65 210.609 104.883 207.273 108.933 207.106V207.1H126.033C130.231 207.1 133.633 203.697 133.633 199.5C133.633 195.303 130.231 191.9 126.033 191.9L126.033 191.893C121.983 191.727 118.75 188.391 118.75 184.3C118.75 180.209 121.983 176.873 126.033 176.706L126.033 176.7H129.833C134.031 176.7 137.433 173.297 137.433 169.1C137.433 164.903 134.031 161.5 129.833 161.5H97.5334V161.493C93.483 161.327 90.2503 157.991 90.2503 153.9C90.2503 149.809 93.483 146.473 97.5334 146.306V146.3H96.2668C100.464 146.3 103.867 142.897 103.867 138.7C103.867 134.503 100.464 131.1 96.2668 131.1H65.2334C61.0361 131.1 57.6334 134.503 57.6334 138.7C57.6334 142.897 61.0361 146.3 65.2334 146.3C69.4308 146.3 72.8334 149.703 72.8334 153.9C72.8334 158.097 69.4308 161.5 65.2334 161.5C61.0361 161.5 57.6334 164.903 57.6334 169.1C57.6334 173.297 61.0361 176.7 65.2334 176.7H71.5668C75.7641 176.7 79.1668 180.103 79.1668 184.3C79.1668 188.497 75.7641 191.9 71.5668 191.9H72.8334C68.6361 191.9 65.2334 195.303 65.2334 199.5C65.2334 203.697 68.6361 207.1 72.8334 207.1H84.8668C89.0641 207.1 92.4668 210.503 92.4668 214.7Z" fill="#4FCDF9"/>
</g>
<mask id="mask1_54_4" style="mask-type:luminance" maskUnits="userSpaceOnUse" x="0" y="0" width="285" height="285">
<circle cx="142.5" cy="142.5" r="142.5" fill="white"/>
</mask>
<g mask="url(#mask1_54_4)">
<path fill-rule="evenodd" clip-rule="evenodd" d="M267.267 32.3C267.267 28.1026 263.864 24.7 259.667 24.7H244.467C240.269 24.7 236.867 28.1026 236.867 32.3C236.867 36.4973 240.269 39.9 244.467 39.9H259.667C263.864 39.9 267.267 36.4973 267.267 32.3ZM418 39.9C422.197 39.9 425.6 43.3026 425.6 47.5C425.6 51.6973 422.197 55.1 418 55.1H413.567V55.1064C409.516 55.2725 406.283 58.6087 406.283 62.7C406.283 66.7912 409.516 70.1274 413.567 70.2935V70.3H423.7C427.897 70.3 431.3 73.7026 431.3 77.9C431.3 82.0973 427.897 85.5 423.7 85.5H313.5C309.303 85.5 305.9 82.0973 305.9 77.9C305.9 73.7026 309.303 70.3 313.5 70.3H310.333C314.531 70.3 317.933 66.8973 317.933 62.7C317.933 58.5026 314.531 55.1 310.333 55.1H284.367C280.169 55.1 276.767 51.6973 276.767 47.5C276.767 43.3026 280.169 39.9 284.367 39.9H418ZM247 207.1C251.197 207.1 254.6 203.697 254.6 199.5C254.6 195.303 251.197 191.9 247 191.9C242.803 191.9 239.4 188.497 239.4 184.3C239.4 180.103 242.803 176.7 247 176.7H245.1C249.297 176.7 252.7 173.297 252.7 169.1C252.7 164.903 249.297 161.5 245.1 161.5H216.6C212.403 161.5 209 158.097 209 153.9C209 149.703 212.403 146.3 216.6 146.3C220.797 146.3 224.2 142.897 224.2 138.7C224.2 134.503 220.797 131.1 216.6 131.1H195.067C190.869 131.1 187.467 127.697 187.467 123.5C187.467 119.303 190.869 115.9 195.067 115.9H211.533C215.731 115.9 219.133 112.497 219.133 108.3C219.133 104.103 215.731 100.7 211.533 100.7C207.336 100.7 203.933 97.2974 203.933 93.1C203.933 88.9027 207.336 85.5 211.533 85.5H247C251.197 85.5 254.6 88.9027 254.6 93.1C254.6 97.2974 251.197 100.7 247 100.7L246.999 100.707C242.949 100.873 239.717 104.209 239.717 108.3C239.717 112.391 242.949 115.727 246.999 115.894L247 115.9H304.633C308.831 115.9 312.233 119.303 312.233 123.5C312.233 127.697 308.831 131.1 304.633 131.1H291.967L291.967 131.107C287.916 131.273 284.684 134.609 284.684 138.7C284.684 142.791 287.916 146.127 291.967 146.294L291.967 146.3H298.3C302.497 146.3 305.9 149.703 305.9 153.9C305.9 158.097 302.497 161.5 298.3 161.5H288.8L288.799 161.507C284.749 161.673 281.517 165.009 281.517 169.1C281.517 173.191 284.749 176.527 288.799 176.694L288.8 176.7H287.533C291.731 176.7 295.133 180.103 295.133 184.3C295.133 188.497 291.731 191.9 287.533 191.9H274.867L274.867 191.907C270.816 192.073 267.584 195.409 267.584 199.5C267.584 203.591 270.816 206.927 274.867 207.094L274.867 207.1H272.333C276.531 207.1 279.933 210.503 279.933 214.7C279.933 218.897 276.531 222.3 272.333 222.3H249.533C245.336 222.3 241.933 218.897 241.933 214.7C241.933 210.503 245.336 207.1 249.533 207.1H247ZM304 191.9C308.197 191.9 311.6 195.303 311.6 199.5C311.6 203.697 308.197 207.1 304 207.1C299.803 207.1 296.4 203.697 296.4 199.5C296.4 195.303 299.803 191.9 304 191.9ZM300.2 93.1C300.2 88.9027 296.797 85.5 292.6 85.5H283.733C279.536 85.5 276.133 88.9027 276.133 93.1C276.133 97.2974 279.536 100.7 283.733 100.7H292.6C296.797 100.7 300.2 97.2974 300.2 93.1ZM234.967 62.7C234.967 58.5026 231.564 55.1 227.367 55.1H212.167C207.969 55.1 204.567 58.5026 204.567 62.7C204.567 66.8973 207.969 70.3 212.167 70.3H227.367C231.564 70.3 234.967 66.8973 234.967 62.7ZM251.433 55.1C255.631 55.1 259.033 58.5026 259.033 62.7C259.033 66.8973 255.631 70.3 251.433 70.3H249.533C245.336 70.3 241.933 66.8973 241.933 62.7C241.933 58.5026 245.336 55.1 249.533 55.1H251.433Z" fill="#4FCDF9"/>
</g>
<mask id="mask2_54_4" style="mask-type:luminance" maskUnits="userSpaceOnUse" x="0" y="0" width="285" height="285">
<circle cx="142.5" cy="142.5" r="142.5" fill="white"/>
</mask>
<g mask="url(#mask2_54_4)">
<path fill-rule="evenodd" clip-rule="evenodd" d="M194.433 32.3C194.433 28.1026 191.031 24.7 186.833 24.7H110.833C106.636 24.7 103.233 21.2973 103.233 17.1C103.233 12.9026 106.636 9.49998 110.833 9.49998H141.867C146.064 9.49998 149.467 6.09734 149.467 1.89997C149.467 -2.29739 146.064 -5.70002 141.867 -5.70002H131.733C127.536 -5.70002 124.133 -9.10266 124.133 -13.3C124.133 -17.4974 127.536 -20.9 131.733 -20.9H171C175.197 -20.9 178.6 -17.4974 178.6 -13.3C178.6 -9.10266 175.197 -5.70002 171 -5.70002H172.267L172.267 -5.69356C168.216 -5.52766 164.983 -2.19139 164.983 1.89997C164.983 5.99134 168.216 9.32761 172.267 9.49351L172.267 9.49998H273.6C277.797 9.49998 281.2 12.9026 281.2 17.1C281.2 21.2973 277.797 24.7 273.6 24.7H230.533L230.533 24.7065C226.483 24.8729 223.25 28.209 223.25 32.3C223.25 36.391 226.483 39.727 230.533 39.8935L230.533 39.9H232.433C236.631 39.9 240.033 43.3026 240.033 47.5C240.033 51.6973 236.631 55.1 232.433 55.1H184.3C180.103 55.1 176.7 51.6973 176.7 47.5C176.7 43.3026 180.103 39.9 184.3 39.9H186.833C191.031 39.9 194.433 36.4973 194.433 32.3ZM261.567 70.3C265.764 70.3 269.167 73.7026 269.167 77.9C269.167 82.0974 265.764 85.5 261.567 85.5H222.3C218.103 85.5 214.7 82.0974 214.7 77.9C214.7 73.7026 218.103 70.3 222.3 70.3H261.567ZM283.1 47.5C283.1 43.3026 279.697 39.9 275.5 39.9H262.833C258.636 39.9 255.233 43.3026 255.233 47.5C255.233 51.6973 258.636 55.1 262.833 55.1H275.5C279.697 55.1 283.1 51.6973 283.1 47.5ZM153.9 39.9C158.097 39.9 161.5 43.3026 161.5 47.5C161.5 51.6973 158.097 55.1 153.9 55.1H141.233C137.036 55.1 133.633 51.6973 133.633 47.5C133.633 43.3026 137.036 39.9 141.233 39.9H153.9ZM307.8 -13.3C307.8 -17.4974 304.397 -20.9 300.2 -20.9H201.4C197.203 -20.9 193.8 -17.4974 193.8 -13.3C193.8 -9.10266 197.203 -5.70002 201.4 -5.70002H300.2C304.397 -5.70002 307.8 -9.10266 307.8 -13.3Z" fill="white"/>
</g>
<mask id="mask3_54_4" style="mask-type:luminance" maskUnits="userSpaceOnUse" x="0" y="0" width="285" height="285">
<circle cx="142.5" cy="142.5" r="142.5" fill="white"/>
</mask>
<g mask="url(#mask3_54_4)">
<path fill-rule="evenodd" clip-rule="evenodd" d="M53.8334 222.3C58.0308 222.3 61.4334 225.703 61.4334 229.9C61.4334 234.097 58.0308 237.5 53.8334 237.5H51.3001C47.1027 237.5 43.7001 240.903 43.7001 245.1C43.7001 249.297 47.1027 252.7 51.3001 252.7H99.4334C103.631 252.7 107.033 249.297 107.033 245.1C107.033 240.903 103.631 237.5 99.4334 237.5H97.5334L97.5328 237.493C93.4827 237.327 90.2502 233.991 90.2502 229.9C90.2502 225.809 93.4827 222.473 97.5328 222.306L97.5334 222.3H114C118.197 222.3 121.6 218.897 121.6 214.7C121.6 210.503 118.197 207.1 114 207.1H105.133L105.134 207.093C101.083 206.928 97.8501 203.591 97.8501 199.5C97.8501 195.409 101.083 192.072 105.134 191.906L105.133 191.9H134.9C139.097 191.9 142.5 188.497 142.5 184.3C142.5 180.103 139.097 176.7 134.9 176.7H60.1667C55.9694 176.7 52.5667 180.103 52.5667 184.3C52.5667 188.497 55.9694 191.9 60.1667 191.9H74.7334C78.9308 191.9 82.3334 195.303 82.3334 199.5C82.3334 203.697 78.9308 207.1 74.7334 207.1H10.7667C6.56938 207.1 3.16675 210.503 3.16675 214.7C3.16675 218.897 6.56938 222.3 10.7667 222.3H53.8334ZM164.667 214.7C164.667 210.503 161.264 207.1 157.067 207.1H144.4C140.203 207.1 136.8 210.503 136.8 214.7C136.8 218.897 140.203 222.3 144.4 222.3H157.067C161.264 222.3 164.667 218.897 164.667 214.7Z" fill="white"/>
</g>
<mask id="mask4_54_4" style="mask-type:luminance" maskUnits="userSpaceOnUse" x="0" y="0" width="285" height="285">
<circle cx="142.5" cy="142.5" r="142.5" fill="white"/>
</mask>
<g mask="url(#mask4_54_4)">
<path fill-rule="evenodd" clip-rule="evenodd" d="M213.433 283.1C217.631 283.1 221.033 286.503 221.033 290.7C221.033 294.897 217.631 298.3 213.433 298.3H210.9C206.703 298.3 203.3 301.703 203.3 305.9C203.3 310.097 206.703 313.5 210.9 313.5H259.033C263.231 313.5 266.633 310.097 266.633 305.9C266.633 301.703 263.231 298.3 259.033 298.3H257.133L257.133 298.293C253.083 298.127 249.85 294.791 249.85 290.7C249.85 286.609 253.083 283.273 257.133 283.107L257.133 283.1H273.6C277.797 283.1 281.2 279.697 281.2 275.5C281.2 271.303 277.797 267.9 273.6 267.9H264.733L264.734 267.894C260.683 267.728 257.45 264.391 257.45 260.3C257.45 256.209 260.683 252.872 264.734 252.706L264.733 252.7H294.5C298.697 252.7 302.1 249.297 302.1 245.1C302.1 240.903 298.697 237.5 294.5 237.5H219.767C215.569 237.5 212.167 240.903 212.167 245.1C212.167 249.297 215.569 252.7 219.767 252.7H234.333C238.531 252.7 241.933 256.103 241.933 260.3C241.933 264.497 238.531 267.9 234.333 267.9H170.367C166.169 267.9 162.767 271.303 162.767 275.5C162.767 279.697 166.169 283.1 170.367 283.1H213.433ZM324.267 275.5C324.267 271.303 320.864 267.9 316.667 267.9H304C299.803 267.9 296.4 271.303 296.4 275.5C296.4 279.697 299.803 283.1 304 283.1H316.667C320.864 283.1 324.267 279.697 324.267 275.5Z" fill="white"/>
</g>
<mask id="mask5_54_4" style="mask-type:luminance" maskUnits="userSpaceOnUse" x="0" y="0" width="285" height="285">
<circle cx="142.5" cy="142.5" r="142.5" fill="white"/>
</mask>
<g mask="url(#mask5_54_4)">
<rect opacity="0.0775757" x="142.806" y="-15.8333" width="158.64" height="316.667" fill="black"/>
</g>
<path fill-rule="evenodd" clip-rule="evenodd" d="M142.5 280.567C218.703 280.567 280.487 218.832 280.567 142.647V142.353C280.487 66.1687 218.703 4.43347 142.5 4.43347C142.5 4.43347 142.5 4.43347 142.5 4.43347V280.567C142.5 280.567 142.5 280.567 142.5 280.567Z" fill="#2A2D80"/>
<mask id="mask6_54_4" style="mask-type:luminance" maskUnits="userSpaceOnUse" x="142" y="4" width="139" height="277">
<path fill-rule="evenodd" clip-rule="evenodd" d="M142.5 280.567C218.703 280.567 280.487 218.832 280.567 142.647V142.353C280.487 66.1687 218.703 4.43347 142.5 4.43347C142.5 4.43347 142.5 4.43347 142.5 4.43347V280.567C142.5 280.567 142.5 280.567 142.5 280.567Z" fill="white"/>
</mask>
<g mask="url(#mask6_54_4)">
<circle cx="143.45" cy="143.45" r="132.05" fill="#952525"/>
<circle cx="143.767" cy="142.5" r="112.733" fill="#E0592F"/>
<circle cx="143.767" cy="142.5" r="67.7667" fill="#F89035"/>
<circle cx="143.133" cy="143.133" r="32.3" fill="#FFF1AA"/>
</g>
</svg>
