<svg width="285" height="285" viewBox="0 0 285 285" fill="none" xmlns="http://www.w3.org/2000/svg">
<circle cx="142.5" cy="142.5" r="142.5" fill="#497EFA"/>
<mask id="mask0_54_10" style="mask-type:luminance" maskUnits="userSpaceOnUse" x="0" y="0" width="285" height="285">
<circle cx="142.5" cy="142.5" r="142.5" fill="white"/>
</mask>
<g mask="url(#mask0_54_10)">
<path fill-rule="evenodd" clip-rule="evenodd" d="M9.6119 105.133C13.8093 105.133 17.2119 108.536 17.2119 112.733C17.2119 116.931 13.8093 120.333 9.6119 120.333H-89.1881C-93.3855 120.333 -96.7881 116.931 -96.7881 112.733C-96.7881 108.536 -93.3855 105.133 -89.1881 105.133H9.6119ZM148.946 105.133C153.143 105.133 156.546 108.536 156.546 112.733C156.546 116.931 153.143 120.333 148.946 120.333H99.5456L99.5459 120.34C95.4952 120.506 92.2623 123.842 92.2623 127.933C92.2623 132.025 95.4952 135.361 99.5459 135.527L99.5456 135.533H200.879C205.076 135.533 208.479 138.936 208.479 143.133C208.479 147.331 205.076 150.733 200.879 150.733H38.1123C33.9149 150.733 30.5123 147.331 30.5123 143.133C30.5123 138.936 33.9149 135.533 38.1123 135.533H69.1456C73.343 135.533 76.7456 132.131 76.7456 127.933C76.7456 123.736 73.343 120.333 69.1456 120.333H50.1456C45.9482 120.333 42.5456 116.931 42.5456 112.733C42.5456 108.536 45.9482 105.133 50.1456 105.133H148.946ZM19.1126 165.933C23.31 165.933 26.7126 169.336 26.7126 173.533C26.7126 177.731 23.31 181.133 19.1126 181.133H-27.1207C-31.3181 181.133 -34.7207 177.731 -34.7207 173.533C-34.7207 169.336 -31.3181 165.933 -27.1207 165.933H19.1126ZM200.879 165.933C205.076 165.933 208.479 169.336 208.479 173.533C208.479 177.731 205.076 181.133 200.879 181.133H154.645C150.448 181.133 147.045 177.731 147.045 173.533C147.045 169.336 150.448 165.933 154.645 165.933H200.879ZM368.078 173.533C368.078 169.336 364.676 165.933 360.478 165.933H255.345C251.148 165.933 247.745 169.336 247.745 173.533C247.745 177.731 251.148 181.133 255.345 181.133H360.478C364.676 181.133 368.078 177.731 368.078 173.533ZM247.746 120.333C251.943 120.333 255.346 123.736 255.346 127.933C255.346 132.131 251.943 135.533 247.746 135.533H242.046C237.849 135.533 234.446 138.936 234.446 143.133C234.446 147.331 237.849 150.733 242.046 150.733H404.813C409.01 150.733 412.413 147.331 412.413 143.133C412.413 138.936 409.01 135.533 404.813 135.533H278.146L278.146 135.527C274.096 135.361 270.863 132.025 270.863 127.933C270.863 123.842 274.096 120.506 278.146 120.34L278.146 120.333H293.346C297.543 120.333 300.946 116.931 300.946 112.733C300.946 108.536 297.543 105.133 293.346 105.133H194.546C190.349 105.133 186.946 108.536 186.946 112.733C186.946 116.931 190.349 120.333 194.546 120.333H247.746ZM436.479 112.733C436.479 108.536 433.076 105.133 428.879 105.133H330.079C325.882 105.133 322.479 108.536 322.479 112.733C322.479 116.931 325.882 120.333 330.079 120.333H428.879C433.076 120.333 436.479 116.931 436.479 112.733Z" fill="#356CEE"/>
</g>
<mask id="mask1_54_10" style="mask-type:luminance" maskUnits="userSpaceOnUse" x="0" y="0" width="285" height="285">
<circle cx="142.5" cy="142.5" r="142.5" fill="white"/>
</mask>
<g mask="url(#mask1_54_10)">
<path opacity="0.4" fill-rule="evenodd" clip-rule="evenodd" d="M9.6119 13.9333C13.8093 13.9333 17.2119 17.336 17.2119 21.5333C17.2119 25.7307 13.8093 29.1333 9.6119 29.1333H-89.1881C-93.3855 29.1333 -96.7881 25.7307 -96.7881 21.5333C-96.7881 17.336 -93.3855 13.9333 -89.1881 13.9333H9.6119ZM148.946 13.9333C153.143 13.9333 156.546 17.336 156.546 21.5333C156.546 25.7307 153.143 29.1334 148.946 29.1334H99.5456L99.5459 29.1398C95.4952 29.3057 92.2623 32.642 92.2623 36.7334C92.2623 40.8247 95.4952 44.161 99.5459 44.3269L99.5456 44.3334H200.879C205.076 44.3334 208.479 47.736 208.479 51.9334C208.479 56.1307 205.076 59.5334 200.879 59.5334H38.1123C33.9149 59.5334 30.5123 56.1307 30.5123 51.9334C30.5123 47.736 33.9149 44.3334 38.1123 44.3334H69.1456C73.343 44.3334 76.7456 40.9307 76.7456 36.7334C76.7456 32.536 73.343 29.1334 69.1456 29.1334H50.1456C45.9482 29.1334 42.5456 25.7307 42.5456 21.5333C42.5456 17.336 45.9482 13.9333 50.1456 13.9333H148.946ZM19.1126 74.7334C23.31 74.7334 26.7126 78.1361 26.7126 82.3334C26.7126 86.5308 23.31 89.9334 19.1126 89.9334H-27.1207C-31.3181 89.9334 -34.7207 86.5308 -34.7207 82.3334C-34.7207 78.1361 -31.3181 74.7334 -27.1207 74.7334H19.1126ZM200.879 74.7334C205.076 74.7334 208.479 78.1361 208.479 82.3334C208.479 86.5308 205.076 89.9334 200.879 89.9334H154.645C150.448 89.9334 147.045 86.5308 147.045 82.3334C147.045 78.1361 150.448 74.7334 154.645 74.7334H200.879ZM368.078 82.3334C368.078 78.1361 364.676 74.7334 360.478 74.7334H255.345C251.148 74.7334 247.745 78.1361 247.745 82.3334C247.745 86.5308 251.148 89.9334 255.345 89.9334H360.478C364.676 89.9334 368.078 86.5308 368.078 82.3334ZM247.746 29.1334C251.943 29.1334 255.346 32.536 255.346 36.7334C255.346 40.9307 251.943 44.3334 247.746 44.3334H242.046C237.849 44.3334 234.446 47.736 234.446 51.9334C234.446 56.1307 237.849 59.5334 242.046 59.5334H404.813C409.01 59.5334 412.413 56.1307 412.413 51.9334C412.413 47.736 409.01 44.3334 404.813 44.3334H278.146L278.146 44.3269C274.096 44.161 270.863 40.8247 270.863 36.7334C270.863 32.642 274.096 29.3057 278.146 29.1398L278.146 29.1334H293.346C297.543 29.1334 300.946 25.7307 300.946 21.5333C300.946 17.336 297.543 13.9333 293.346 13.9333H194.546C190.349 13.9333 186.946 17.336 186.946 21.5333C186.946 25.7307 190.349 29.1334 194.546 29.1334H247.746ZM436.479 21.5333C436.479 17.336 433.076 13.9333 428.879 13.9333H330.079C325.882 13.9333 322.479 17.336 322.479 21.5333C322.479 25.7307 325.882 29.1333 330.079 29.1333H428.879C433.076 29.1333 436.479 25.7307 436.479 21.5333Z" fill="#356CEE"/>
</g>
<mask id="mask2_54_10" style="mask-type:luminance" maskUnits="userSpaceOnUse" x="0" y="0" width="285" height="285">
<circle cx="142.5" cy="142.5" r="142.5" fill="white"/>
</mask>
<g mask="url(#mask2_54_10)">
<path opacity="0.4" fill-rule="evenodd" clip-rule="evenodd" d="M9.6119 211.533C13.8093 211.533 17.2119 214.936 17.2119 219.133C17.2119 223.331 13.8093 226.733 9.6119 226.733H-89.1881C-93.3855 226.733 -96.7881 223.331 -96.7881 219.133C-96.7881 214.936 -93.3855 211.533 -89.1881 211.533H9.6119ZM148.946 211.533C153.143 211.533 156.546 214.936 156.546 219.133C156.546 223.331 153.143 226.733 148.946 226.733H99.5456L99.5459 226.74C95.4952 226.906 92.2623 230.242 92.2623 234.333C92.2623 238.425 95.4952 241.761 99.5459 241.927L99.5456 241.933H200.879C205.076 241.933 208.479 245.336 208.479 249.533C208.479 253.731 205.076 257.133 200.879 257.133H38.1123C33.9149 257.133 30.5123 253.731 30.5123 249.533C30.5123 245.336 33.9149 241.933 38.1123 241.933H69.1456C73.343 241.933 76.7456 238.531 76.7456 234.333C76.7456 230.136 73.343 226.733 69.1456 226.733H50.1456C45.9482 226.733 42.5456 223.331 42.5456 219.133C42.5456 214.936 45.9482 211.533 50.1456 211.533H148.946ZM19.1126 272.333C23.31 272.333 26.7126 275.736 26.7126 279.933C26.7126 284.131 23.31 287.533 19.1126 287.533H-27.1207C-31.3181 287.533 -34.7207 284.131 -34.7207 279.933C-34.7207 275.736 -31.3181 272.333 -27.1207 272.333H19.1126ZM200.879 272.333C205.076 272.333 208.479 275.736 208.479 279.933C208.479 284.131 205.076 287.533 200.879 287.533H154.645C150.448 287.533 147.045 284.131 147.045 279.933C147.045 275.736 150.448 272.333 154.645 272.333H200.879ZM368.078 279.933C368.078 275.736 364.676 272.333 360.478 272.333H255.345C251.148 272.333 247.745 275.736 247.745 279.933C247.745 284.131 251.148 287.533 255.345 287.533H360.478C364.676 287.533 368.078 284.131 368.078 279.933ZM247.746 226.733C251.943 226.733 255.346 230.136 255.346 234.333C255.346 238.531 251.943 241.933 247.746 241.933H242.046C237.849 241.933 234.446 245.336 234.446 249.533C234.446 253.731 237.849 257.133 242.046 257.133H404.813C409.01 257.133 412.413 253.731 412.413 249.533C412.413 245.336 409.01 241.933 404.813 241.933H278.146L278.146 241.927C274.096 241.761 270.863 238.425 270.863 234.333C270.863 230.242 274.096 226.906 278.146 226.74L278.146 226.733H293.346C297.543 226.733 300.946 223.331 300.946 219.133C300.946 214.936 297.543 211.533 293.346 211.533H194.546C190.349 211.533 186.946 214.936 186.946 219.133C186.946 223.331 190.349 226.733 194.546 226.733H247.746ZM436.479 219.133C436.479 214.936 433.076 211.533 428.879 211.533H330.079C325.882 211.533 322.479 214.936 322.479 219.133C322.479 223.331 325.882 226.733 330.079 226.733H428.879C433.076 226.733 436.479 223.331 436.479 219.133Z" fill="#356CEE"/>
</g>
<mask id="mask3_54_10" style="mask-type:luminance" maskUnits="userSpaceOnUse" x="0" y="0" width="285" height="285">
<circle cx="142.5" cy="142.5" r="142.5" fill="white"/>
</mask>
<g mask="url(#mask3_54_10)">
<path d="M93.8452 173.533C93.8452 169.336 90.4425 165.933 86.2452 165.933H74.2118C70.0145 165.933 66.6118 162.531 66.6118 158.333C66.6118 154.136 70.0145 150.733 74.2118 150.733H124.245C128.443 150.733 131.845 154.136 131.845 158.333C131.845 162.531 128.443 165.933 124.245 165.933H122.345L122.345 165.94C118.295 166.106 115.062 169.442 115.062 173.533C115.062 177.625 118.295 180.961 122.345 181.127L122.345 181.133H124.245C128.443 181.133 131.845 184.536 131.845 188.733C131.845 192.931 128.443 196.333 124.245 196.333H85.6118C81.4145 196.333 78.0118 192.931 78.0118 188.733C78.0118 184.536 81.4145 181.133 85.6118 181.133H86.2452C90.4425 181.133 93.8452 177.731 93.8452 173.533Z" fill="#2255CA"/>
</g>
<mask id="mask4_54_10" style="mask-type:luminance" maskUnits="userSpaceOnUse" x="0" y="0" width="285" height="285">
<circle cx="142.5" cy="142.5" r="142.5" fill="white"/>
</mask>
<g mask="url(#mask4_54_10)">
<rect opacity="0.0775757" x="142.5" y="6.96667" width="136.391" height="271.067" fill="black"/>
</g>
<path fill-rule="evenodd" clip-rule="evenodd" d="M142.5 280.567C218.752 280.567 280.566 218.752 280.566 142.5C280.566 66.2481 218.752 4.43364 142.5 4.43347V280.567Z" fill="#94D5FF"/>
<mask id="mask5_54_10" style="mask-type:luminance" maskUnits="userSpaceOnUse" x="142" y="4" width="139" height="277">
<path fill-rule="evenodd" clip-rule="evenodd" d="M142.5 280.567C218.752 280.567 280.566 218.752 280.566 142.5C280.566 66.2481 218.752 4.43364 142.5 4.43347V280.567Z" fill="white"/>
</mask>
<g mask="url(#mask5_54_10)">
<circle cx="142.5" cy="142.5" r="133.633" fill="#2959C9"/>
<circle cx="142.5" cy="142.5" r="93.1" fill="#6593FF"/>
<circle cx="142.5" cy="142.5" r="51.9333" fill="#4A7AE9"/>
<circle cx="142.5" cy="142.5" r="20.2667" fill="#042570"/>
</g>
</svg>
