<svg width="173" height="173" viewBox="0 0 173 173" fill="none" xmlns="http://www.w3.org/2000/svg">
<circle cx="86.5" cy="86.5" r="86.5" fill="#497EFA"/>
<mask id="mask0_0_186" style="mask-type:luminance" maskUnits="userSpaceOnUse" x="0" y="0" width="173" height="173">
<circle cx="86.5" cy="86.5" r="86.5" fill="white"/>
</mask>
<g mask="url(#mask0_0_186)">
<path fill-rule="evenodd" clip-rule="evenodd" d="M5.83481 63.8179C8.38268 63.8179 10.4481 65.8833 10.4481 68.4312C10.4481 70.9791 8.38268 73.0445 5.83481 73.0445H-54.1385C-56.6864 73.0445 -58.7519 70.9791 -58.7519 68.4312C-58.7519 65.8833 -56.6864 63.8179 -54.1385 63.8179H5.83481ZM90.4126 63.8179C92.9604 63.8179 95.0259 65.8833 95.0259 68.4312C95.0259 70.9791 92.9604 73.0445 90.4126 73.0445H60.4259L60.4261 73.0485C57.9673 73.1492 56.0048 75.1743 56.0048 77.6579C56.0048 80.1414 57.9673 82.1666 60.4261 82.2673L60.4259 82.2712H121.937C124.485 82.2712 126.55 84.3367 126.55 86.8845C126.55 89.4324 124.485 91.4979 121.937 91.4979H23.1348C20.5869 91.4979 18.5215 89.4324 18.5215 86.8845C18.5215 84.3367 20.5869 82.2712 23.1348 82.2712H41.9726C44.5205 82.2712 46.5859 80.2057 46.5859 77.6579C46.5859 75.11 44.5205 73.0445 41.9726 73.0445H30.4392C27.8914 73.0445 25.8259 70.9791 25.8259 68.4312C25.8259 65.8833 27.8914 63.8179 30.4392 63.8179H90.4126ZM11.6015 100.725C14.1493 100.725 16.2148 102.79 16.2148 105.338C16.2148 107.886 14.1493 109.951 11.6015 109.951H-16.463C-19.0108 109.951 -21.0763 107.886 -21.0763 105.338C-21.0763 102.79 -19.0108 100.725 -16.463 100.725H11.6015ZM121.937 100.725C124.485 100.725 126.55 102.79 126.55 105.338C126.55 107.886 124.485 109.951 121.937 109.951H93.8726C91.3247 109.951 89.2592 107.886 89.2592 105.338C89.2592 102.79 91.3247 100.725 93.8726 100.725H121.937ZM223.43 105.338C223.43 102.79 221.365 100.725 218.817 100.725H154.999C152.451 100.725 150.386 102.79 150.386 105.338C150.386 107.886 152.451 109.951 154.999 109.951H218.817C221.365 109.951 223.43 107.886 223.43 105.338ZM150.386 73.0445C152.934 73.0445 154.999 75.11 154.999 77.6579C154.999 80.2057 152.934 82.2712 150.386 82.2712H146.926C144.378 82.2712 142.313 84.3367 142.313 86.8845C142.313 89.4324 144.378 91.4979 146.926 91.4979H245.728C248.276 91.4979 250.341 89.4324 250.341 86.8845C250.341 84.3367 248.276 82.2712 245.728 82.2712H168.839L168.839 82.2673C166.381 82.1666 164.418 80.1414 164.418 77.6579C164.418 75.1743 166.381 73.1492 168.839 73.0485L168.839 73.0445H178.066C180.614 73.0445 182.679 70.9791 182.679 68.4312C182.679 65.8833 180.614 63.8179 178.066 63.8179H118.093C115.545 63.8179 113.479 65.8833 113.479 68.4312C113.479 70.9791 115.545 73.0445 118.093 73.0445H150.386ZM264.95 68.4312C264.95 65.8833 262.885 63.8179 260.337 63.8179H200.364C197.816 63.8179 195.75 65.8833 195.75 68.4312C195.75 70.9791 197.816 73.0445 200.364 73.0445H260.337C262.885 73.0445 264.95 70.9791 264.95 68.4312Z" fill="#356CEE"/>
</g>
<mask id="mask1_0_186" style="mask-type:luminance" maskUnits="userSpaceOnUse" x="0" y="0" width="173" height="173">
<circle cx="86.5" cy="86.5" r="86.5" fill="white"/>
</mask>
<g mask="url(#mask1_0_186)">
<path opacity="0.4" fill-rule="evenodd" clip-rule="evenodd" d="M5.83481 8.45801C8.38268 8.45801 10.4481 10.5235 10.4481 13.0713C10.4481 15.6192 8.38268 17.6847 5.83481 17.6847H-54.1385C-56.6864 17.6847 -58.7519 15.6192 -58.7519 13.0713C-58.7519 10.5235 -56.6864 8.45801 -54.1385 8.45801H5.83481ZM90.4126 8.45801C92.9604 8.45801 95.0259 10.5235 95.0259 13.0713C95.0259 15.6192 92.9604 17.6847 90.4126 17.6847H60.4259L60.4261 17.6886C57.9673 17.7893 56.0048 19.8145 56.0048 22.298C56.0048 24.7815 57.9673 26.8067 60.4261 26.9074L60.4259 26.9113H121.937C124.485 26.9113 126.55 28.9768 126.55 31.5247C126.55 34.0725 124.485 36.138 121.937 36.138H23.1348C20.5869 36.138 18.5215 34.0725 18.5215 31.5247C18.5215 28.9768 20.5869 26.9113 23.1348 26.9113H41.9726C44.5205 26.9113 46.5859 24.8459 46.5859 22.298C46.5859 19.7501 44.5205 17.6847 41.9726 17.6847H30.4392C27.8914 17.6847 25.8259 15.6192 25.8259 13.0713C25.8259 10.5235 27.8914 8.45801 30.4392 8.45801H90.4126ZM11.6015 45.3647C14.1493 45.3647 16.2148 47.4301 16.2148 49.978C16.2148 52.5259 14.1493 54.5913 11.6015 54.5913H-16.463C-19.0108 54.5913 -21.0763 52.5259 -21.0763 49.978C-21.0763 47.4301 -19.0108 45.3647 -16.463 45.3647H11.6015ZM121.937 45.3647C124.485 45.3647 126.55 47.4301 126.55 49.978C126.55 52.5259 124.485 54.5913 121.937 54.5913H93.8726C91.3247 54.5913 89.2592 52.5259 89.2592 49.978C89.2592 47.4301 91.3247 45.3647 93.8726 45.3647H121.937ZM223.43 49.978C223.43 47.4301 221.365 45.3647 218.817 45.3647H154.999C152.451 45.3647 150.386 47.4301 150.386 49.978C150.386 52.5259 152.451 54.5913 154.999 54.5913H218.817C221.365 54.5913 223.43 52.5259 223.43 49.978ZM150.386 17.6847C152.934 17.6847 154.999 19.7501 154.999 22.298C154.999 24.8459 152.934 26.9113 150.386 26.9113H146.926C144.378 26.9113 142.313 28.9768 142.313 31.5247C142.313 34.0725 144.378 36.138 146.926 36.138H245.728C248.276 36.138 250.341 34.0725 250.341 31.5247C250.341 28.9768 248.276 26.9113 245.728 26.9113H168.839L168.839 26.9074C166.381 26.8067 164.418 24.7815 164.418 22.298C164.418 19.8145 166.381 17.7893 168.839 17.6886L168.839 17.6847H178.066C180.614 17.6847 182.679 15.6192 182.679 13.0713C182.679 10.5235 180.614 8.45801 178.066 8.45801H118.093C115.545 8.45801 113.479 10.5235 113.479 13.0713C113.479 15.6192 115.545 17.6847 118.093 17.6847H150.386ZM264.95 13.0713C264.95 10.5235 262.885 8.45801 260.337 8.45801H200.364C197.816 8.45801 195.75 10.5235 195.75 13.0713C195.75 15.6192 197.816 17.6847 200.364 17.6847H260.337C262.885 17.6847 264.95 15.6192 264.95 13.0713Z" fill="#356CEE"/>
</g>
<mask id="mask2_0_186" style="mask-type:luminance" maskUnits="userSpaceOnUse" x="0" y="0" width="173" height="173">
<circle cx="86.5" cy="86.5" r="86.5" fill="white"/>
</mask>
<g mask="url(#mask2_0_186)">
<path opacity="0.4" fill-rule="evenodd" clip-rule="evenodd" d="M5.83481 128.404C8.38268 128.404 10.4481 130.47 10.4481 133.018C10.4481 135.566 8.38268 137.631 5.83481 137.631H-54.1385C-56.6864 137.631 -58.7519 135.566 -58.7519 133.018C-58.7519 130.47 -56.6864 128.404 -54.1385 128.404H5.83481ZM90.4126 128.404C92.9604 128.404 95.0259 130.47 95.0259 133.018C95.0259 135.566 92.9604 137.631 90.4126 137.631H60.4259L60.4261 137.635C57.9673 137.736 56.0048 139.761 56.0048 142.244C56.0048 144.728 57.9673 146.753 60.4261 146.854L60.4259 146.858H121.937C124.485 146.858 126.55 148.923 126.55 151.471C126.55 154.019 124.485 156.084 121.937 156.084H23.1348C20.5869 156.084 18.5215 154.019 18.5215 151.471C18.5215 148.923 20.5869 146.858 23.1348 146.858H41.9726C44.5205 146.858 46.5859 144.792 46.5859 142.244C46.5859 139.696 44.5205 137.631 41.9726 137.631H30.4392C27.8914 137.631 25.8259 135.566 25.8259 133.018C25.8259 130.47 27.8914 128.404 30.4392 128.404H90.4126ZM11.6015 165.311C14.1493 165.311 16.2148 167.376 16.2148 169.924C16.2148 172.472 14.1493 174.538 11.6015 174.538H-16.463C-19.0108 174.538 -21.0763 172.472 -21.0763 169.924C-21.0763 167.376 -19.0108 165.311 -16.463 165.311H11.6015ZM121.937 165.311C124.485 165.311 126.55 167.376 126.55 169.924C126.55 172.472 124.485 174.538 121.937 174.538H93.8726C91.3247 174.538 89.2592 172.472 89.2592 169.924C89.2592 167.376 91.3247 165.311 93.8726 165.311H121.937ZM223.43 169.924C223.43 167.376 221.365 165.311 218.817 165.311H154.999C152.451 165.311 150.386 167.376 150.386 169.924C150.386 172.472 152.451 174.538 154.999 174.538H218.817C221.365 174.538 223.43 172.472 223.43 169.924ZM150.386 137.631C152.934 137.631 154.999 139.696 154.999 142.244C154.999 144.792 152.934 146.858 150.386 146.858H146.926C144.378 146.858 142.313 148.923 142.313 151.471C142.313 154.019 144.378 156.084 146.926 156.084H245.728C248.276 156.084 250.341 154.019 250.341 151.471C250.341 148.923 248.276 146.858 245.728 146.858H168.839L168.839 146.854C166.381 146.753 164.418 144.728 164.418 142.244C164.418 139.761 166.381 137.736 168.839 137.635L168.839 137.631H178.066C180.614 137.631 182.679 135.566 182.679 133.018C182.679 130.47 180.614 128.404 178.066 128.404H118.093C115.545 128.404 113.479 130.47 113.479 133.018C113.479 135.566 115.545 137.631 118.093 137.631H150.386ZM264.95 133.018C264.95 130.47 262.885 128.404 260.337 128.404H200.364C197.816 128.404 195.75 130.47 195.75 133.018C195.75 135.566 197.816 137.631 200.364 137.631H260.337C262.885 137.631 264.95 135.566 264.95 133.018Z" fill="#356CEE"/>
</g>
<mask id="mask3_0_186" style="mask-type:luminance" maskUnits="userSpaceOnUse" x="0" y="0" width="173" height="173">
<circle cx="86.5" cy="86.5" r="86.5" fill="white"/>
</mask>
<g mask="url(#mask3_0_186)">
<path d="M56.9659 105.338C56.9659 102.79 54.9005 100.724 52.3526 100.724H45.0481C42.5003 100.724 40.4348 98.6588 40.4348 96.1109C40.4348 93.563 42.5003 91.4976 45.0481 91.4976H75.4192C77.9671 91.4976 80.0326 93.563 80.0326 96.1109C80.0326 98.6588 77.9671 100.724 75.4192 100.724H74.2659L74.2659 100.728C71.8072 100.829 69.8449 102.854 69.8449 105.338C69.8449 107.821 71.8072 109.846 74.2659 109.947L74.2659 109.951H75.4192C77.9671 109.951 80.0326 112.016 80.0326 114.564C80.0326 117.112 77.9671 119.178 75.4192 119.178H51.9681C49.4203 119.178 47.3548 117.112 47.3548 114.564C47.3548 112.016 49.4203 109.951 51.9681 109.951H52.3526C54.9005 109.951 56.9659 107.885 56.9659 105.338Z" fill="#2255CA"/>
</g>
<mask id="mask4_0_186" style="mask-type:luminance" maskUnits="userSpaceOnUse" x="0" y="0" width="173" height="173">
<circle cx="86.5" cy="86.5" r="86.5" fill="white"/>
</mask>
<g mask="url(#mask4_0_186)">
<rect opacity="0.0775757" x="86.5" y="4.229" width="82.7918" height="164.542" fill="black"/>
</g>
</svg>
