<svg width="253" height="253" viewBox="0 0 253 253" fill="none" xmlns="http://www.w3.org/2000/svg">
<circle cx="126.5" cy="126.5" r="126.5" fill="#F7CC7F"/>
<mask id="mask0_54_3" style="mask-type:luminance" maskUnits="userSpaceOnUse" x="0" y="0" width="253" height="253">
<circle cx="126.5" cy="126.5" r="126.5" fill="white"/>
</mask>
<g mask="url(#mask0_54_3)">
<path fill-rule="evenodd" clip-rule="evenodd" d="M195.443 22.1375C195.443 17.9456 192.044 14.5475 187.853 14.5475H25.3C21.1082 14.5475 17.71 17.9456 17.71 22.1375C17.71 26.3293 21.1082 29.7275 25.3 29.7275H101.2C105.392 29.7275 108.79 33.1256 108.79 37.3175C108.79 41.5093 105.392 44.9075 101.2 44.9075H98.67C94.4782 44.9075 91.08 48.3056 91.08 52.4975C91.08 56.6893 94.4782 60.0875 98.67 60.0875H146.74C150.932 60.0875 154.33 56.6893 154.33 52.4975C154.33 48.3056 150.932 44.9075 146.74 44.9075H144.843L144.842 44.901C140.797 44.7348 137.569 41.4031 137.569 37.3175C137.569 33.2318 140.797 29.9002 144.842 29.734L144.843 29.7275H187.853C192.044 29.7275 195.443 26.3293 195.443 22.1375ZM183.425 82.8574C183.425 78.6656 180.027 75.2674 175.835 75.2674H136.62C132.428 75.2674 129.03 78.6656 129.03 82.8574C129.03 87.0492 132.428 90.4474 136.62 90.4474H175.835C180.027 90.4474 183.425 87.0492 183.425 82.8574ZM-6.00871 105.628C-1.81687 105.628 1.58129 109.026 1.58129 113.218C1.58129 117.409 -1.81687 120.808 -6.00871 120.808H-33.8387C-38.0306 120.808 -41.4287 117.409 -41.4287 113.218C-41.4287 109.026 -38.0306 105.628 -33.8387 105.628H-6.00871ZM191.015 113.218C191.015 109.026 187.617 105.628 183.425 105.628H37.3175C33.1257 105.628 29.7275 109.026 29.7275 113.218C29.7275 117.409 33.1257 120.808 37.3175 120.808H81.5925C85.7844 120.808 89.1825 124.206 89.1825 128.398C89.1825 132.589 85.7844 135.988 81.5925 135.988H75.9C71.7082 135.988 68.31 139.386 68.31 143.578C68.31 147.769 71.7082 151.168 75.9 151.168H165.715C169.907 151.168 173.305 154.566 173.305 158.758C173.305 162.949 169.907 166.348 165.715 166.348H161.92C157.728 166.348 154.33 169.746 154.33 173.938C154.33 178.129 157.728 181.528 161.92 181.528H209.99C214.182 181.528 217.58 178.129 217.58 173.938C217.58 169.746 214.182 166.348 209.99 166.348H209.358L209.357 166.341C205.312 166.175 202.084 162.843 202.084 158.758C202.084 154.672 205.312 151.34 209.357 151.174L209.358 151.168H222.008C226.199 151.168 229.598 147.769 229.598 143.578C229.598 139.386 226.199 135.988 222.008 135.988H171.408L171.408 135.981C167.362 135.815 164.134 132.483 164.134 128.398C164.134 124.312 167.362 120.98 171.408 120.814L171.408 120.808H183.425C187.617 120.808 191.015 117.409 191.015 113.218ZM203.665 204.297C203.665 200.106 200.267 196.707 196.075 196.707H49.9674C45.7756 196.707 42.3774 200.106 42.3774 204.297C42.3774 208.489 45.7756 211.887 49.9674 211.887H75.8999C80.0918 211.887 83.4899 215.286 83.4899 219.477C83.4899 223.669 80.0918 227.067 75.8999 227.067H73.3699C69.1781 227.067 65.7799 230.466 65.7799 234.657C65.7799 238.849 69.1781 242.247 73.3699 242.247H121.44C125.632 242.247 129.03 238.849 129.03 234.657C129.03 230.466 125.632 227.067 121.44 227.067H119.542L119.542 227.061C115.497 226.895 112.269 223.563 112.269 219.477C112.269 215.392 115.497 212.06 119.542 211.894L119.542 211.887H196.075C200.267 211.887 203.665 208.489 203.665 204.297ZM74.0025 166.348C78.1944 166.348 81.5925 169.746 81.5925 173.938C81.5925 178.129 78.1944 181.527 74.0025 181.527H25.9325C21.7407 181.527 18.3425 178.129 18.3425 173.938C18.3425 169.746 21.7407 166.348 25.9325 166.348H74.0025ZM287.787 143.578C287.787 139.386 284.389 135.988 280.197 135.988H254.265C250.073 135.988 246.675 139.386 246.675 143.578C246.675 147.769 250.073 151.168 254.265 151.168H280.197C284.389 151.168 287.787 147.769 287.787 143.578ZM87.9177 75.2674C92.1096 75.2674 95.5077 78.6656 95.5077 82.8574C95.5077 87.0492 92.1096 90.4474 87.9177 90.4474H75.2677C71.0759 90.4474 67.6777 87.0492 67.6777 82.8574C67.6777 78.6656 71.0759 75.2674 75.2677 75.2674H87.9177ZM189.75 44.9074C193.942 44.9074 197.34 48.3056 197.34 52.4974C197.34 56.6893 193.942 60.0874 189.75 60.0874H177.1C172.908 60.0874 169.51 56.6893 169.51 52.4974C169.51 48.3056 172.908 44.9074 177.1 44.9074H189.75ZM75.9001 52.4974C75.9001 48.3056 72.5019 44.9074 68.3101 44.9074H55.6601C51.4682 44.9074 48.0701 48.3056 48.0701 52.4974C48.0701 56.6893 51.4682 60.0874 55.6601 60.0874H68.3101C72.5019 60.0874 75.9001 56.6893 75.9001 52.4974Z" fill="#FFE6AE"/>
</g>
<mask id="mask1_54_3" style="mask-type:luminance" maskUnits="userSpaceOnUse" x="0" y="0" width="253" height="253">
<circle cx="126.5" cy="126.5" r="126.5" fill="white"/>
</mask>
<g mask="url(#mask1_54_3)">
<path fill-rule="evenodd" clip-rule="evenodd" d="M55.0274 120.807C59.2193 120.807 62.6174 124.206 62.6174 128.397C62.6174 132.589 59.2193 135.987 55.0274 135.987H52.4974C48.3056 135.987 44.9074 139.386 44.9074 143.577C44.9074 147.769 48.3056 151.167 52.4974 151.167H100.567C104.759 151.167 108.157 147.769 108.157 143.577C108.157 139.386 104.759 135.987 100.567 135.987H98.6699L98.6693 135.981C94.6245 135.815 91.3964 132.483 91.3964 128.397C91.3964 124.312 94.6245 120.98 98.6693 120.814L98.6699 120.807H141.68C145.872 120.807 149.27 117.409 149.27 113.217C149.27 109.026 145.872 105.627 141.68 105.627H40.4799L40.4802 105.621C36.4349 105.455 33.2062 102.123 33.2062 98.0375C33.2062 93.9515 36.4349 90.6196 40.4802 90.4539L40.4799 90.4475H89.8149C94.0068 90.4475 97.4049 87.0493 97.4049 82.8575C97.4049 78.6656 94.0068 75.2675 89.8149 75.2675H-8.85507C-13.0469 75.2675 -16.4451 78.6656 -16.4451 82.8575C-16.4451 87.0493 -13.0469 90.4475 -8.85507 90.4475H10.1199C14.3118 90.4475 17.7099 93.8456 17.7099 98.0375C17.7099 102.229 14.3118 105.627 10.1199 105.627H1.26493C-2.92691 105.627 -6.32507 109.026 -6.32507 113.217C-6.32507 117.409 -2.92691 120.807 1.26493 120.807H55.0274ZM137.253 173.938C137.253 169.746 133.855 166.348 129.663 166.348H90.4477C86.2558 166.348 82.8577 169.746 82.8577 173.938C82.8577 178.129 86.2558 181.528 90.4477 181.528H129.663C133.855 181.528 137.253 178.129 137.253 173.938ZM143.577 135.988C147.769 135.988 151.167 139.386 151.167 143.578C151.167 147.769 147.769 151.168 143.577 151.168H130.927C126.736 151.168 123.337 147.769 123.337 143.578C123.337 139.386 126.736 135.988 130.927 135.988H143.577ZM262.487 143.578C262.487 139.386 259.089 135.988 254.897 135.988H191.015C186.823 135.988 183.425 139.386 183.425 143.578C183.425 147.769 186.823 151.168 191.015 151.168H254.897C259.089 151.168 262.487 147.769 262.487 143.578ZM22.1375 135.988C26.3293 135.988 29.7275 139.386 29.7275 143.578C29.7275 147.769 26.3293 151.168 22.1375 151.168H9.48746C5.29562 151.168 1.89746 147.769 1.89746 143.578C1.89746 139.386 5.29562 135.988 9.48746 135.988H22.1375ZM227.7 113.218C227.7 109.026 224.302 105.628 220.11 105.628H207.46C203.268 105.628 199.87 109.026 199.87 113.218C199.87 117.409 203.268 120.808 207.46 120.808H220.11C224.302 120.808 227.7 117.409 227.7 113.218Z" fill="#E29F58"/>
</g>
<mask id="mask2_54_3" style="mask-type:luminance" maskUnits="userSpaceOnUse" x="0" y="0" width="253" height="253">
<circle cx="126.5" cy="126.5" r="126.5" fill="white"/>
</mask>
<g mask="url(#mask2_54_3)">
<rect opacity="0.0775757" x="127.133" y="-15.8125" width="142.312" height="284.625" fill="black"/>
</g>
<path fill-rule="evenodd" clip-rule="evenodd" d="M127.133 248.572C194.51 248.572 249.138 193.985 249.205 126.623V126.376C249.138 59.0144 194.51 4.42737 127.133 4.42737C127.133 4.42737 127.133 4.42737 127.133 4.42737L127.133 248.572Z" fill="#C08240"/>
<mask id="mask3_54_3" style="mask-type:luminance" maskUnits="userSpaceOnUse" x="127" y="4" width="123" height="245">
<path fill-rule="evenodd" clip-rule="evenodd" d="M127.133 248.572C194.51 248.572 249.138 193.985 249.205 126.623V126.376C249.138 59.0144 194.51 4.42737 127.133 4.42737C127.133 4.42737 127.133 4.42737 127.133 4.42737L127.133 248.572Z" fill="white"/>
</mask>
<g mask="url(#mask3_54_3)">
<circle cx="127.765" cy="127.133" r="117.012" fill="#A34D28"/>
<circle cx="127.765" cy="126.5" r="52.4975" fill="#FAD14C"/>
</g>
</svg>
